<svg xmlns="http://www.w3.org/2000/svg" viewBox="0 0 500 500"><g id="freepik--background-simple--inject-153"><path d="M485.17,246.36c-.56-39-15.88-76.6-39.2-105.65a204.35,204.35,0,0,0-48-43.47c-18.6-12-38.83-25.5-61.27-27.57A44.11,44.11,0,0,0,320,71c-20.93,6.24,20.49,28.48,25.9,31.73C288,78,228.1,52.85,164.81,55.22c-12.2.46-24.86,2.1-35.59,8.87s-19,19.84-17.43,32.79c1.32,10.7,8.55,22.66,1.77,31-1.94,2.39-4.69,3.81-7.38,5-13.85,6.29-28.79,9.6-41.91,17.61C44,163,30.1,185.77,23.68,209.76s-6.12,49.2-3.6,73.61c4.75,45.93,17.65,91.5,43.77,127.22,37.3,51,98.46,77,159.72,81.3,74.13,5.18,154.49-22,203.51-84.79,7.27-9.32,13.93-19.64,16.58-31.33s.55-25-7.59-32.68c-2.19-2.06-5-4.26-4.78-7.47.32-4.34,5.54-5.81,9.52-6.72,26.09-6,41-37.63,43.7-66.1A150.93,150.93,0,0,0,485.17,246.36Z" style="fill:#C53F3F"></path><path d="M485.17,246.36c-.56-39-15.88-76.6-39.2-105.65a204.35,204.35,0,0,0-48-43.47c-18.6-12-38.83-25.5-61.27-27.57A44.11,44.11,0,0,0,320,71c-20.93,6.24,20.49,28.48,25.9,31.73C288,78,228.1,52.85,164.81,55.22c-12.2.46-24.86,2.1-35.59,8.87s-19,19.84-17.43,32.79c1.32,10.7,8.55,22.66,1.77,31-1.94,2.39-4.69,3.81-7.38,5-13.85,6.29-28.79,9.6-41.91,17.61C44,163,30.1,185.77,23.68,209.76s-6.12,49.2-3.6,73.61c4.75,45.93,17.65,91.5,43.77,127.22,37.3,51,98.46,77,159.72,81.3,74.13,5.18,154.49-22,203.51-84.79,7.27-9.32,13.93-19.64,16.58-31.33s.55-25-7.59-32.68c-2.19-2.06-5-4.26-4.78-7.47.32-4.34,5.54-5.81,9.52-6.72,26.09-6,41-37.63,43.7-66.1A150.93,150.93,0,0,0,485.17,246.36Z" style="fill:#fff;opacity:0.7000000000000001"></path></g><g id="freepik--Hearts--inject-153"><path d="M411.27,412.43a.33.33,0,0,1-.24-.13c-.08-.08-7.82-7.78-15.46-12-4.48-2.47-19.47-11.43-24.61-23.15-4.48-10.22-1.86-21.14,6.51-27.18,9.78-7,23.67-4.53,31,5.6a23.61,23.61,0,0,1,1.93,3.18,22.57,22.57,0,0,1,1.92-3.18,22.9,22.9,0,0,1,14.54-9.25A21.41,21.41,0,0,1,443.26,350h0a20,20,0,0,1,8.49,13.92c.9,7.13-1.83,15.32-7.32,21.91-4.45,5.34-9.79,9.67-16.44,14.52l-3.73,2.77c-2.42,1.79-5.55,4.12-8.09,6C412.49,411.8,411.62,412.43,411.27,412.43ZM389.94,347a20.23,20.23,0,0,0-11.89,3.82c-8,5.75-10.46,16.18-6.17,26,5,11.43,19.77,20.24,24.17,22.67a79.88,79.88,0,0,1,15.38,11.89c1.51-1.07,8.39-6.17,12.24-9l3.73-2.76c6.59-4.81,11.88-9.1,16.26-14.36,5.31-6.38,8-14.29,7.1-21.14a19,19,0,0,0-8.08-13.23h0A20.35,20.35,0,0,0,427,347.3a22,22,0,0,0-13.91,8.85,22.58,22.58,0,0,0-2.28,4,.52.52,0,0,1-.91,0,22.23,22.23,0,0,0-2.28-4A21.88,21.88,0,0,0,389.94,347Z" style="fill:#263238"></path><path d="M66.36,180.23c-.11,0-.17-.06-.26-.15a61.17,61.17,0,0,0-11.26-8.74c-3.27-1.8-14.24-8.36-18-17-3.3-7.52-1.37-15.56,4.79-20,7.2-5.19,17.43-3.35,22.8,4.11a17.29,17.29,0,0,1,1.3,2.11A16.07,16.07,0,0,1,67,138.49c5.37-7.45,15.6-9.3,22.8-4.11h0a14.68,14.68,0,0,1,6.25,10.25c.67,5.24-1.34,11.26-5.37,16.1-3.26,3.91-7.17,7.07-12,10.62l-2.78,2.07L70,177.77C67.35,179.72,66.67,180.23,66.36,180.23ZM50.8,132.43a14.64,14.64,0,0,0-8.59,2.76c-5.78,4.16-7.57,11.71-4.47,18.79,3.65,8.31,14.38,14.72,17.59,16.49a61.39,61.39,0,0,1,11.18,8.61c1.27-.9,6.06-4.46,8.77-6.47l2.79-2.06c4.81-3.51,8.66-6.63,11.85-10.46,3.85-4.64,5.78-10.37,5.15-15.33a13.75,13.75,0,0,0-5.84-9.57h0c-6.76-4.87-16.36-3.12-21.41,3.88A17.35,17.35,0,0,0,66.17,142a.52.52,0,0,1-.91,0,16.67,16.67,0,0,0-1.65-2.88A15.84,15.84,0,0,0,50.8,132.43Z" style="fill:#263238"></path><path d="M298.61,450.6a.3.3,0,0,1-.22-.12,42.3,42.3,0,0,0-7.79-6.05c-2.29-1.26-10-5.85-12.6-11.86-2.32-5.3-1-11,3.39-14.09a11,11,0,0,1,8.52-1.9,11.88,11.88,0,0,1,7.54,4.79,12.82,12.82,0,0,1,.78,1.23,11,11,0,0,1,.77-1.23,11.55,11.55,0,0,1,16.06-2.89h0a10.36,10.36,0,0,1,4.41,7.23A15.25,15.25,0,0,1,315.7,437a44.93,44.93,0,0,1-8.38,7.41l-1.86,1.38C300.09,449.78,299,450.6,298.61,450.6Zm-10.76-33.21a10,10,0,0,0-5.88,1.9c-4,2.84-5.18,8-3.05,12.87,2.51,5.73,9.94,10.17,12.16,11.39a41.55,41.55,0,0,1,7.72,5.93l6.07-4.49,1.86-1.37a44.44,44.44,0,0,0,8.2-7.25,14.28,14.28,0,0,0,3.55-10.54,9.29,9.29,0,0,0-4-6.54h0A10.56,10.56,0,0,0,299.81,422a12.39,12.39,0,0,0-1.13,2,.52.52,0,0,1-.91,0,11.67,11.67,0,0,0-1.13-2,10.81,10.81,0,0,0-8.79-4.56Z" style="fill:#263238"></path><path d="M358.92,68.11a.29.29,0,0,1-.22-.12h0a42.34,42.34,0,0,0-7.79-6c-2.29-1.26-10-5.84-12.59-11.86-2.32-5.3-1-11,3.38-14.09a11.56,11.56,0,0,1,16.06,2.89,13,13,0,0,1,.78,1.24,13,13,0,0,1,.78-1.24A11.56,11.56,0,0,1,375.38,36a10.39,10.39,0,0,1,4.41,7.23A15.34,15.34,0,0,1,376,54.53a44.62,44.62,0,0,1-8.38,7.41l-1.94,1.44C360.39,67.31,359.31,68.11,358.92,68.11Zm-10.75-33.2a10.06,10.06,0,0,0-5.88,1.89c-4,2.85-5.18,8-3.05,12.88,2.51,5.73,9.94,10.16,12.15,11.39A41.61,41.61,0,0,1,359.11,67c1-.72,4.17-3.07,6-4.41l2-1.45a44.17,44.17,0,0,0,8.21-7.24,14.27,14.27,0,0,0,3.54-10.54,9.24,9.24,0,0,0-4-6.55,10.56,10.56,0,0,0-14.66,2.67,10.94,10.94,0,0,0-1.13,2,.51.51,0,0,1-.46.3h0a.52.52,0,0,1-.46-.3,10.61,10.61,0,0,0-1.13-2A10.84,10.84,0,0,0,348.17,34.91Z" style="fill:#263238"></path><path d="M231.68,219.74a.29.29,0,0,1-.22-.12,41.75,41.75,0,0,0-7.79-6.05c-2.29-1.26-10-5.84-12.6-11.86-2.32-5.3-1-11,3.39-14.09a11.55,11.55,0,0,1,16.06,2.89,11,11,0,0,1,.77,1.23,14.19,14.19,0,0,1,.78-1.23,11.88,11.88,0,0,1,7.54-4.79,11.11,11.11,0,0,1,8.52,1.9h0a10.36,10.36,0,0,1,4.41,7.23,15.25,15.25,0,0,1-3.77,11.3,45.33,45.33,0,0,1-8.38,7.42l-1.9,1.4C233.15,218.94,232.06,219.74,231.68,219.74Zm-10.75-33.2a10,10,0,0,0-5.89,1.89c-3.95,2.85-5.18,8-3,12.88,2.51,5.73,9.94,10.16,12.16,11.39a41.56,41.56,0,0,1,7.71,5.92c1-.72,4.2-3.09,6-4.45l1.9-1.41a44.08,44.08,0,0,0,8.2-7.25A14.24,14.24,0,0,0,251.55,195a9.31,9.31,0,0,0-4-6.55h0a10.06,10.06,0,0,0-7.76-1.72,10.87,10.87,0,0,0-6.91,4.39,11.58,11.58,0,0,0-1.13,2,.52.52,0,0,1-.91,0,11.87,11.87,0,0,0-1.13-2A10.85,10.85,0,0,0,220.93,186.54Z" style="fill:#263238"></path></g><g id="freepik--flower-2--inject-153"><path d="M240,395.42s-3.89-17.85-4.83-28.13.88-19.66,2.22-22.68,22.21-31.19,25.34-40-1.47-31.23-8.67-44.3-16.83-26.9-16.83-26.9-38.17,36.88-37.9,53.11,23.64,47,26.11,49.45,6.36,8.76,7.23,9.47-.73,24.66.47,28.16S238.45,399,238.45,399Z" style="fill:#C53F3F"></path><path d="M240,395.42s-3.89-17.85-4.83-28.13.88-19.66,2.22-22.68,22.21-31.19,25.34-40-1.47-31.23-8.67-44.3-16.83-26.9-16.83-26.9-38.17,36.88-37.9,53.11,23.64,47,26.11,49.45,6.36,8.76,7.23,9.47-.73,24.66.47,28.16S238.45,399,238.45,399Z" style="opacity:0.39"></path><path d="M236.41,347.87l-.49-1.63-1.44-11.82L233.17,348l-.2.44c.07,6.65-.75,22.42.21,25.21,1.2,3.49,5.27,25.36,5.27,25.36l1.59-3.56s-3.89-17.85-4.83-28.13A63.87,63.87,0,0,1,236.41,347.87Z" style="fill:#C53F3F"></path><path d="M234.24,332.35a.49.49,0,0,1-.48-.36A115.61,115.61,0,0,1,232,289.52a353.43,353.43,0,0,0,3.19-45.8.5.5,0,0,1,.49-.51.51.51,0,0,1,.51.5,354.66,354.66,0,0,1-3.2,46,114.15,114.15,0,0,0,1.74,42.06.5.5,0,0,1-.35.61A.34.34,0,0,1,234.24,332.35Z" style="fill:#263238"></path><path d="M234.82,271.48a.51.51,0,0,1-.4-.19l-12.61-16.41a.5.5,0,1,1,.79-.61l12.13,15.78,7.78-15.3a.5.5,0,1,1,.89.45l-8.14,16a.49.49,0,0,1-.4.27Z" style="fill:#263238"></path><path d="M232.77,288a.51.51,0,0,1-.37-.16l-16.49-18.14a.5.5,0,0,1,0-.71.51.51,0,0,1,.71,0l16.08,17.69,14.12-19.32a.5.5,0,0,1,.81.59l-14.49,19.82a.5.5,0,0,1-.38.2Z" style="fill:#263238"></path><path d="M231.34,305.34a.47.47,0,0,1-.33-.14l-18.15-16.66a.5.5,0,0,1,0-.71.51.51,0,0,1,.71,0l17.82,16.37,19.18-15.91a.5.5,0,0,1,.64.77l-19.52,16.19A.47.47,0,0,1,231.34,305.34Z" style="fill:#263238"></path><path d="M232.9,323.45a.52.52,0,0,1-.33-.12l-22.37-19.1a.52.52,0,0,1-.06-.71.51.51,0,0,1,.71,0l22,18.82,20.21-18.2a.5.5,0,0,1,.71,0,.5.5,0,0,1,0,.71l-20.54,18.5A.5.5,0,0,1,232.9,323.45Z" style="fill:#263238"></path><path d="M238.45,399.48h-.06a.5.5,0,0,1-.43-.41c0-.22-4.07-21.87-5.25-25.29-.69-2-.52-9.68-.35-17.11.1-4.72.22-10.07,0-10.88a27.47,27.47,0,0,1-2.27-3.05,52.33,52.33,0,0,0-4.92-6.39c-2.88-2.81-26-33.47-26.26-49.8s36.49-52,38.06-53.48a.48.48,0,0,1,.39-.14.51.51,0,0,1,.37.21c.09.14,9.72,14,16.85,26.94,7.41,13.46,11.8,36,8.7,44.72-2.11,5.92-12.23,20.61-18.92,30.33-3.35,4.87-6,8.72-6.43,9.69-1.42,3.17-3.09,12.49-2.18,22.43.93,10.13,4.78,27.88,4.82,28.06a.55.55,0,0,1,0,.31l-1.59,3.56A.49.49,0,0,1,238.45,399.48ZM237.2,234.2c-4.17,4.1-37.57,37.42-37.33,52.33.26,15.74,23.23,46.43,26,49.11a54,54,0,0,1,5,6.53,28.92,28.92,0,0,0,2.16,2.91c.49.41.54,2,.33,11.62-.15,6.65-.34,14.93.29,16.75,1,3,4,18.75,5,23.86l.87-1.95c-.39-1.81-3.92-18.35-4.81-28-.92-10.11.81-19.66,2.27-22.93.46-1.05,3-4.74,6.52-9.84,6.66-9.68,16.73-24.31,18.8-30.11,3-8.49-1.34-30.64-8.64-43.89C247.31,249,239,236.77,237.2,234.2Z" style="fill:#263238"></path><path d="M254,375.39s15.88-9,24.16-15.2,14-13.79,15.39-16.8,8.37-37.36,12.82-45.57,24.22-19.77,38.76-23.15,31.25-5.45,31.25-5.45-1.94,53-14.19,63.69S311.41,346.74,308,346.52s-10.77,1.12-11.88,1-17.86,17-21.26,18.46-22.39,13-22.39,13Z" style="fill:#C53F3F"></path><path d="M254,375.39s15.88-9,24.16-15.2,14-13.79,15.39-16.8,8.37-37.36,12.82-45.57,24.22-19.77,38.76-23.15,31.25-5.45,31.25-5.45-1.94,53-14.19,63.69S311.41,346.74,308,346.52s-10.77,1.12-11.88,1-17.86,17-21.26,18.46-22.39,13-22.39,13Z" style="opacity:0.39"></path><path d="M291.81,346.32l1.55-.72,9.76-6.83-9.21,10-.2.44c-5,4.39-16.18,15.54-18.89,16.69-3.41,1.44-22.39,13-22.39,13l1.58-3.56s15.88-9,24.16-15.2A63.55,63.55,0,0,0,291.81,346.32Z" style="fill:#C53F3F"></path><path d="M305.18,337.73a.5.5,0,0,1-.22-1A114.31,114.31,0,0,0,337.41,310a354.47,354.47,0,0,1,32.06-33.08.49.49,0,0,1,.7.05.48.48,0,0,1,0,.7,355,355,0,0,0-31.95,33,115,115,0,0,1-32.78,27.07A.42.42,0,0,1,305.18,337.73Z" style="fill:#263238"></path><path d="M350.09,296.64a.51.51,0,0,1-.47-.68l6.48-16.75a.5.5,0,1,1,.93.36l-6.19,16,19.85-1.52a.51.51,0,0,1,.54.46.5.5,0,0,1-.46.53l-20.64,1.59Z" style="fill:#263238"></path><path d="M363.69,309.34h0l-24.52-.15a.53.53,0,0,1-.39-.18.53.53,0,0,1-.1-.42l5.07-24a.5.5,0,0,1,1,.21l-4.94,23.42,23.9.14a.5.5,0,0,1,0,1Z" style="fill:#263238"></path><path d="M351.75,324.21h-.05l-24.53-2.36a.5.5,0,0,1-.45-.48l-1-25.34a.51.51,0,0,1,.48-.52h0a.51.51,0,0,1,.5.49l1,24.89,24.09,2.33a.49.49,0,0,1,.45.54A.5.5,0,0,1,351.75,324.21Z" style="fill:#263238"></path><path d="M341.87,336.67h-.07l-29.16-3.88a.51.51,0,0,1-.44-.5l0-27.64a.5.5,0,0,1,.5-.5h0a.5.5,0,0,1,.5.5l0,27.2,28.73,3.82a.5.5,0,0,1-.06,1Z" style="fill:#263238"></path><path d="M252.42,379.45a.54.54,0,0,1-.33-.12.51.51,0,0,1-.12-.58l1.59-3.57a.51.51,0,0,1,.21-.23c.16-.09,15.94-9.08,24.1-15.16,8-6,13.82-13.43,15.23-16.61.43-1,1.53-5.5,2.91-11.25,2.76-11.48,6.94-28.82,9.93-34.35,4.4-8.11,24.12-19.92,39.08-23.4,14.4-3.34,31.14-5.44,31.31-5.46a.49.49,0,0,1,.4.13.48.48,0,0,1,.16.39c-.08,2.17-2.09,53.38-14.36,64.05S312,347.29,307.92,347a52.94,52.94,0,0,0-8,.61,26.59,26.59,0,0,1-3.79.34c-.78.35-4.68,4-8.13,7.25-5.41,5.09-11,10.35-13,11.17-3.33,1.41-22.13,12.87-22.32,13A.54.54,0,0,1,252.42,379.45Zm2-3.71-.87,1.95c4.46-2.7,18.19-11,21.09-12.22,1.78-.76,7.82-6.42,12.67-11,7-6.55,8.21-7.61,8.87-7.52a29.28,29.28,0,0,0,3.6-.33A52.53,52.53,0,0,1,308,346c3.84.26,42-3.17,53.88-13.49,11.26-9.78,13.73-56.9,14-62.74-3.09.4-17.8,2.39-30.62,5.37-14.74,3.42-34.14,15-38.43,22.9-2.93,5.41-7.09,22.68-9.84,34.1-1.45,6-2.5,10.38-3,11.43-1.46,3.27-7.42,10.94-15.55,17C270.67,366.4,256,374.82,254.4,375.74ZM296.14,348Z" style="fill:#263238"></path><path d="M297.48,211s-5.91-2.63-13.36-5-13.87-8.08-17.55-12.55L262.9,189s1.44,6.31,15,25.13,31.35,16.58,31.35,16.58l7.58-1.11,1.58-1.42Z" style="fill:#C53F3F"></path><path d="M297.48,211s-5.91-2.63-13.36-5-13.87-8.08-17.55-12.55L262.9,189s1.44,6.31,15,25.13,31.35,16.58,31.35,16.58l7.58-1.11,1.58-1.42Z" style="opacity:0.39"></path><path d="M307.6,231.23c-4.85,0-19-1.44-30.09-16.86-13.48-18.68-15-25-15.1-25.31a.5.5,0,0,1,.88-.42l3.67,4.47c1.79,2.18,8.34,9.53,17.32,12.39,7.38,2.36,13.34,5,13.4,5a.26.26,0,0,1,.11.07l20.95,17.13a.49.49,0,0,1,.18.38.52.52,0,0,1-.17.38l-1.58,1.42a.42.42,0,0,1-.26.12l-7.58,1.11A13.59,13.59,0,0,1,307.6,231.23Zm-43.07-39.5c1.6,3.47,5.33,10.34,13.79,22.05,13.23,18.34,30.7,16.4,30.88,16.38l7.42-1.08,1-.93-20.44-16.73c-.64-.28-6.31-2.75-13.24-5-9.23-3-16-10.48-17.78-12.72Z" style="fill:#263238"></path><path d="M367.27,238.82s6,4.56,21.65-1.92,39.29-13.42,39.29-13.42-7-2.4-20.46.32a50,50,0,0,1-24.49-1.24S369.44,237.66,367.27,238.82Z" style="fill:#C53F3F"></path><path d="M367.27,238.82s6,4.56,21.65-1.92,39.29-13.42,39.29-13.42-7-2.4-20.46.32a50,50,0,0,1-24.49-1.24S369.44,237.66,367.27,238.82Z" style="opacity:0.39"></path><path d="M374.13,240.89c-4.87,0-7-1.56-7.16-1.68a.45.45,0,0,1-.19-.43.49.49,0,0,1,.26-.4c1.72-.92,12-12,15.85-16.15a.53.53,0,0,1,.54-.14,50,50,0,0,0,24.22,1.22c13.48-2.71,20.43-.4,20.72-.31a.5.5,0,0,1,.34.49.49.49,0,0,1-.36.47c-.23.07-23.8,7-39.24,13.4C382.53,240.08,377.63,240.89,374.13,240.89Zm-5.93-2.13c1.88.89,8.13,2.81,20.53-2.33,13-5.38,31.72-11.14,37.54-12.9-2.84-.52-9.06-1.13-18.42.76a51.45,51.45,0,0,1-24.44-1.15C381.72,225,371.48,236.11,368.2,238.76Zm-.93.06h0Z" style="fill:#263238"></path><path d="M321.73,220.28s-19.8,59-34,89.55-54.92,97.57-66.66,113-14.62,20.61-17.5,30.71-2.83,11.22-3,12.78,4,4.48,5.77,5.29,8,.9,8.13-5.54,4.47-25.93,8.85-32.11,41.66-67.18,44.29-73.07,27.29-53.77,31.73-63.72,18-48.93,19.64-52.55l8.48-19Z" style="fill:#C53F3F"></path><path d="M208.59,472.44a6.13,6.13,0,0,1-2.4-.43c-1.48-.66-6.27-3.76-6.07-5.79l0-.32c.13-1.46.28-3.1,3-12.54,2.94-10.31,6.06-15.8,17.58-30.88,12.31-16.13,52.66-82.81,66.6-112.86s33.76-88.91,34-89.5a.51.51,0,0,1,.35-.33.52.52,0,0,1,.46.12l5.78,5.29a.51.51,0,0,1,.12.57l-8.48,19c-.6,1.34-2.88,7.64-5.76,15.62-4.69,13-11.1,30.69-13.88,36.92-2.52,5.64-11.43,23.28-19.3,38.84-6.07,12-11.3,22.34-12.44,24.89-2.64,5.92-39.71,66.64-44.33,73.15-4.27,6-8.61,25.53-8.76,31.83-.08,3.11-1.51,4.66-2.7,5.41A7.08,7.08,0,0,1,208.59,472.44ZM322,221.17c-2.33,6.87-20.57,60.46-33.75,88.87-14,30.09-54.38,96.89-66.71,113-11.56,15.14-14.49,20.28-17.42,30.55-2.66,9.35-2.81,10.95-2.93,12.36l0,.33c-.1,1.11,3.44,3.87,5.49,4.78a6.31,6.31,0,0,0,5.18-.5A5.23,5.23,0,0,0,214,466c.16-6.57,4.5-26.11,8.94-32.38,4.61-6.49,41.61-67.08,44.24-73,1.14-2.57,6.38-12.93,12.45-24.93,7.87-15.55,16.78-33.18,19.29-38.8,2.76-6.19,9.17-23.91,13.85-36.85,2.89-8,5.17-14.31,5.79-15.69l8.33-18.68Z" style="fill:#263238"></path><path d="M321.73,220.28s-5.63,16.78-13,37.07c1.56.58,3.24,1.13,5,1.62,2.66-7.34,4.75-13.11,5.32-14.4l8.48-19Z" style="fill:#263238"></path><path d="M313.71,259.46h-.13c-1.71-.47-3.41-1-5.06-1.63a.5.5,0,0,1-.3-.64c7.32-20.06,13-36.89,13-37.06a.51.51,0,0,1,.35-.33.52.52,0,0,1,.46.12l5.78,5.29a.51.51,0,0,1,.12.57l-8.48,19c-.56,1.25-2.55,6.74-5.31,14.35A.48.48,0,0,1,313.71,259.46Zm-4.38-2.4c1.34.48,2.7.92,4.07,1.3,2.68-7.41,4.62-12.73,5.18-14l8.33-18.68-5-4.52C320.81,224.58,315.72,239.55,309.33,257.06Z" style="fill:#263238"></path><path d="M291.56,164.41s-3.72,16.3-2.64,27.65,9.63,23.42,16.67,29.87,20.05,12.25,25,12.81,10.17-3.73,10.87-5.31-13.75-18.42-28.31-39.8-18.56-26.7-18.56-26.7S292.51,161.77,291.56,164.41Z" style="fill:#263238"></path><path d="M331.48,235.29a7.57,7.57,0,0,1-1-.06c-5-.56-18.1-6.36-25.28-12.93-7.61-7-15.76-19-16.83-30.2s2.62-27.63,2.65-27.8l0-.05a2.94,2.94,0,0,1,1.65-1.93,2.69,2.69,0,0,1,2.09.17.7.7,0,0,1,.16.14c0,.05,4.17,5.58,18.57,26.72,6.95,10.21,14,19.54,19.15,26.36,7.86,10.4,9.65,12.93,9.21,13.92C341.13,231.41,336.28,235.29,331.48,235.29ZM292,164.56c-.17.78-3.66,16.54-2.62,27.45s9.28,22.94,16.51,29.55c7,6.45,19.84,12.13,24.71,12.68,4.62.52,9.71-3.55,10.36-5,0-.89-4.21-6.46-9.09-12.92-5.15-6.82-12.21-16.17-19.18-26.39-13.36-19.62-17.87-25.78-18.47-26.59a1.55,1.55,0,0,0-1.17-.07A2,2,0,0,0,292,164.56Z" style="fill:#263238"></path><path d="M283.48,103.77s4.11-1.58,9.12,2.48,17.38,10.48,19.65,11.49,3.19,15.29.25,39.21-3,26.62-4.36,25.57S296.79,159,287.49,142.16,282,106.53,283.48,103.77Z" style="fill:#C53F3F"></path><path d="M308.55,183.21a1.18,1.18,0,0,1-.72-.3c-.69-.54-2.7-4.61-6.81-13-4-8.26-9-18.54-14-27.48-9.27-16.81-5.76-35.58-4-38.86a.53.53,0,0,1,.27-.24c.18-.06,4.44-1.63,9.62,2.56,5,4,17.23,10.4,19.54,11.43,3,1.32,3.2,18,.53,39.72-.44,3.59-.81,6.7-1.14,9.39-1.71,14.15-2,16.33-3,16.75A.89.89,0,0,1,308.55,183.21Zm0-1h0Zm-24.75-78c-1.5,3.3-4.8,21.58,4.1,37.74,4.93,9,10,19.25,14,27.52,3.06,6.27,5.95,12.19,6.53,12.69l.06,0c.52-.78,1.11-5.66,2.35-15.89.32-2.69.7-5.8,1.14-9.39,3.19-25.93,1.61-38,.05-38.69-2.33-1-14.71-7.48-19.76-11.56C288.1,103.25,284.65,103.94,283.83,104.18Z" style="fill:#263238"></path><path d="M312.25,117.74c-1.11-.5-4.68-2.31-8.6-4.5-2.3,7.38-6.33,22.22-6.16,35,.23,17.78,11.35,30.45,11.35,30.45s3.36-43.28,4.16-60A1.82,1.82,0,0,0,312.25,117.74Z" style="fill:#263238"></path><path d="M308.84,179.15a.52.52,0,0,1-.38-.17c-.11-.13-11.24-13-11.47-30.77-.17-12.73,3.8-27.46,6.18-35.11a.51.51,0,0,1,.29-.32.47.47,0,0,1,.43,0c3.84,2.14,7.44,4,8.57,4.48a2.18,2.18,0,0,1,1,1.16.52.52,0,0,1,.05.24c-.79,16.52-4.13,59.56-4.17,60a.47.47,0,0,1-.33.43ZM303.94,114c-2.37,7.74-6.11,22-5.95,34.22.19,14.64,7.93,25.88,10.45,29.15.55-7.23,3.33-43.59,4.06-58.58-.23-.44-.4-.55-.45-.57h0C311,117.73,307.75,116.09,303.94,114Z" style="fill:#263238"></path><path d="M357.45,103.57S344.86,92.05,337.84,91s-20-1.44-23.95,4.78-7.15,17-6.85,26-5.2,36.06-4.35,43.62,5.45,17.12,5.45,17.12,10.65-19.8,22.62-30.83S358.83,109.65,357.45,103.57Z" style="fill:#C53F3F"></path><path d="M308.14,183h0a.5.5,0,0,1-.44-.28c-.19-.4-4.65-9.72-5.5-17.28-.45-4,.87-13.53,2.16-22.72,1.15-8.21,2.34-16.71,2.19-20.94-.32-9.55,3.24-20.47,6.92-26.33,4.89-7.78,22.47-5.31,24.46-5,7.08,1.09,19.35,12.26,19.87,12.74a.53.53,0,0,1,.15.25c1.46,6.45-14.87,37.56-26.84,48.59-11.77,10.85-22.41,30.51-22.52,30.71A.49.49,0,0,1,308.14,183Zm21.59-92.17c-6.22,0-12.91,1.16-15.42,5.15-3.6,5.73-7.08,16.42-6.77,25.77.15,4.32-1,12.47-2.2,21.11-1.28,9.12-2.6,18.56-2.16,22.47.69,6.06,3.86,13.53,5,16.06,2.22-3.95,11.78-20.45,22.24-30.09C342.6,140.09,358,109.76,357,103.83c-1.31-1.17-12.8-11.38-19.23-12.37A53.53,53.53,0,0,0,329.73,90.85Z" style="fill:#263238"></path><path d="M321.09,103S312,120.69,308.78,127s-7.17,22.18-7.52,27,2.8,15,2.8,15,2.43,2.72,3.82.62S312.07,147,312.07,147s6.64-26,9-31.34S321.09,103,321.09,103Z" style="fill:#263238"></path><path d="M306.55,170.9a4.59,4.59,0,0,1-2.86-1.58.45.45,0,0,1-.11-.19c-.13-.42-3.16-10.33-2.82-15.2.37-5.11,4.4-21.08,7.58-27.21s12.3-23.91,12.3-23.91a.52.52,0,0,1,.49-.27.51.51,0,0,1,.43.35c.1.3,2.37,7.57,0,13-2.31,5.19-8.9,31-9,31.26-.28,2.05-2.85,20.62-4.26,22.76a2.05,2.05,0,0,1-1.6,1Zm-2.05-2.17c.4.41,1.38,1.23,2.13,1.17a1.06,1.06,0,0,0,.83-.57c1-1.47,3-14.2,4.12-22.39.28-1.12,6.68-26.21,9-31.48,1.69-3.79.86-8.76.33-11-2.07,4-9,17.46-11.72,22.75-3.13,6-7.1,21.79-7.46,26.82C301.45,158.42,304.17,167.63,304.5,168.73Z" style="fill:#263238"></path><path d="M318.36,107.42s-.16-4.53,2.73-4.38,18.14,4.68,19.59,10.1-11,29.67-12.74,35.7-1.51,10-3.57,7.5a37.86,37.86,0,0,1-8.81-20.53C314.63,125.17,318.36,107.42,318.36,107.42Z" style="fill:#C53F3F"></path><path d="M325.39,157.6a2.06,2.06,0,0,1-1.41-.95,37.69,37.69,0,0,1-8.92-20.79c-.9-10.3,2.56-27.36,2.8-28.49,0-.43,0-2.87,1.27-4.1a2.51,2.51,0,0,1,2-.73c3,.16,18.52,4.76,20.05,10.47,1,3.85-4.29,16-8.57,25.8-1.94,4.44-3.61,8.26-4.17,10.17s-.88,3.43-1.16,4.74c-.52,2.43-.79,3.65-1.65,3.86ZM321,103.54a1.51,1.51,0,0,0-1.12.44c-.87.85-1,2.76-1,3.42a.49.49,0,0,1,0,.12c0,.18-3.71,17.8-2.79,28.25A36.72,36.72,0,0,0,324.75,156c.45.55.64.58.64.58a10.93,10.93,0,0,0,.89-3.09c.28-1.33.64-3,1.18-4.81s2.26-5.82,4.21-10.29c4-9.13,9.46-21.63,8.52-25.14-1.35-5.07-16.44-9.59-19.13-9.73Z" style="fill:#263238"></path><path d="M419.39,142.72s-1.34-22.69-5.31-30-19.74-18.57-37.19-16.58-26,4.1-30.06,7.4a94.82,94.82,0,0,0-7.17,6.56l-1.78,3S371,124.54,381.64,133.1s16.16,20,15.25,26.76-9,17.23-10.82,18.53-4.63,3.36-4.63,3.36,14.16,0,20.38-4.4S419.39,142.72,419.39,142.72Z" style="fill:#C53F3F"></path><path d="M381.47,182.25h0a.51.51,0,0,1-.47-.34.49.49,0,0,1,.18-.56s2.81-2.08,4.64-3.37,9.71-11.5,10.61-18.19c.83-6.2-4.16-17.52-15.06-26.3-10.43-8.41-43.28-19.75-43.61-19.86a.51.51,0,0,1-.31-.3.54.54,0,0,1,0-.43l1.78-3,.07-.09a93,93,0,0,1,7.22-6.61c4.13-3.39,12.63-5.5,30.31-7.51,17.89-2,33.8,9.7,37.69,16.84,4,7.31,5.32,29.26,5.37,30.19a.34.34,0,0,1,0,.2c-.46,1.24-11.47,30.39-17.75,34.86S382.45,182.25,381.47,182.25Zm-42.85-69.37c4.6,1.6,33.41,11.83,43.34,19.83,11.3,9.11,16.31,20.58,15.42,27.21-.93,6.93-9.13,17.55-11,18.88-1,.73-2.38,1.7-3.35,2.41,3.83-.14,13.71-.83,18.52-4.27,5.86-4.18,16.63-32.39,17.36-34.3-.11-1.69-1.52-22.8-5.25-29.66S394.38,94.67,377,96.65c-17.25,2-25.88,4.08-29.8,7.29-3.7,3-6.71,6.1-7.09,6.49Z" style="fill:#263238"></path><path d="M396.47,132.8s9.21,6.38,10.17,9.31,1.83,7.64-4.13,13.85-23.38,19.8-23.38,19.8-14.11-8.11-10-14.7,13.52-16,16.05-19.67S396.47,132.8,396.47,132.8Z" style="fill:#C53F3F"></path><path d="M379.13,176.26a.54.54,0,0,1-.25-.06c-.38-.22-9.41-5.47-10.84-11.12a5.36,5.36,0,0,1,.63-4.29c2.53-4.09,7.11-9.27,10.8-13.44,2.31-2.61,4.3-4.87,5.26-6.25,2.57-3.69,11.13-8.53,11.5-8.73a.49.49,0,0,1,.53,0c.38.27,9.35,6.51,10.36,9.57,1.13,3.43,1.67,8.17-4.24,14.34S379.61,176,379.44,176.16A.5.5,0,0,1,379.13,176.26Zm17.32-42.87c-1.5.87-8.7,5.13-10.9,8.28-1,1.43-3,3.71-5.33,6.34-3.66,4.14-8.22,9.29-10.7,13.31a4.36,4.36,0,0,0-.51,3.52c1.19,4.7,8.53,9.37,10.08,10.32,2.23-1.75,17.61-13.86,23.06-19.55s5.06-10.17,4-13.34C405.44,140.07,399.14,135.28,396.45,133.39Z" style="fill:#263238"></path><path d="M394.85,153a10.21,10.21,0,0,0,1.12-6c-.48-3.24-2.56-7.18-4.57-4.51s-7.21,9.4-11.23,12.27a73.13,73.13,0,0,0-8,6.86s7.19-.56,12.06-1.21C389.35,159.74,395.37,154.07,394.85,153Z" style="fill:#263238"></path><path d="M372.17,162.13a.51.51,0,0,1-.46-.29.54.54,0,0,1,.1-.57,74.45,74.45,0,0,1,8.07-6.91c2.75-2,6.6-6.17,11.12-12.16a2.06,2.06,0,0,1,2.21-1c1.83.47,3,3.7,3.26,5.76a10.77,10.77,0,0,1-1.09,6.15,1.59,1.59,0,0,1-.24.86c-1.13,2.09-6.36,6.38-10.85,7-4.82.64-12,1.2-12.08,1.21Zm20.62-20c-.21,0-.55.11-1,.69-4.58,6.07-8.51,10.35-11.34,12.38a67.08,67.08,0,0,0-6.94,5.84c2.33-.2,7.12-.63,10.64-1.09,5-.66,10.21-5.86,10.22-6.77a.38.38,0,0,1,0-.41,9.79,9.79,0,0,0,1.06-5.67c-.36-2.42-1.51-4.68-2.52-4.94A.52.52,0,0,0,392.79,142.11Z" style="fill:#263238"></path><path d="M373,119.15a45.5,45.5,0,0,1,12.49,3.08c5.5,2.45,12.42,3.26,11.44,8.51s-4.75,18.79-10.47,24-9.11,4.12-9.11,4.12a77.69,77.69,0,0,0,2.1-9.29c.4-3.46-2.9-19.48-3.83-23.53A25.44,25.44,0,0,0,373,119.15Z" style="fill:#C53F3F"></path><path d="M378.19,159.42a3.7,3.7,0,0,1-1-.11.5.5,0,0,1-.33-.62,74.72,74.72,0,0,0,2.08-9.21c.39-3.32-2.86-19.17-3.81-23.36a25.24,25.24,0,0,0-2.57-6.71.49.49,0,0,1,0-.52.53.53,0,0,1,.47-.24,45.91,45.91,0,0,1,12.66,3.12c1.24.55,2.56,1,3.84,1.48,4.48,1.6,8.71,3.11,7.88,7.58s-4.62,18.82-10.62,24.25C382.65,158.84,379.64,159.42,378.19,159.42Zm-.19-1c1.1.05,4-.29,8.14-4.07,5.79-5.24,9.47-19.21,10.31-23.69.67-3.64-3-4.94-7.24-6.46-1.29-.46-2.64-.94-3.91-1.51a43.94,43.94,0,0,0-11.39-2.92,27.24,27.24,0,0,1,2.21,6.14c.68,3,4.27,20,3.84,23.7A71.77,71.77,0,0,1,378,158.41Z" style="fill:#263238"></path><path d="M358.09,115.91s7-3.47,11-2.16,8.12,13.4,10,23.54-.87,20.3-1.65,21.54-8.27,2.23-8.27,2.23,4.46-4.38,4.08-6.6-9.86-2.35-14-2.17a27.31,27.31,0,0,1-13.4-2.56c-5.31-2.37-7.07-10.66-7.07-10.66s3.19-7.67,6.28-11.52S358.09,115.91,358.09,115.91Z" style="fill:#C53F3F"></path><path d="M369.09,161.56a.5.5,0,0,1-.35-.86c1.65-1.62,4.18-4.73,3.94-6.15s-7.32-2-13.52-1.76a27.55,27.55,0,0,1-13.63-2.61c-5.48-2.44-7.28-10.66-7.36-11a.48.48,0,0,1,0-.29c.13-.32,3.26-7.78,6.35-11.65s12.82-11.4,13.23-11.72l.08-.05c.3-.15,7.23-3.54,11.35-2.18,4.65,1.53,8.7,15.15,10.29,23.92,1.87,10.26-.81,20.46-1.72,21.9s-6.81,2.21-8.62,2.45Zm-7-9.83c4.2,0,11.15.35,11.54,2.65.3,1.76-1.85,4.47-3.21,6,3.08-.48,6.14-1.23,6.49-1.78.6-1,3.45-10.88,1.58-21.19s-6-22-9.63-23.16-9.95,1.83-10.54,2.11c-.7.55-10.11,7.89-13,11.53-2.77,3.46-5.69,10.18-6.15,11.26.27,1.11,2.12,8.08,6.75,10.15a26.71,26.71,0,0,0,13.18,2.52C359.49,151.78,360.63,151.73,362.12,151.73Z" style="fill:#263238"></path><path d="M365.27,167.08s6.8-10.15,7.9-12.62-.86-2.65-12.29-2.52-19-3.72-22.22-12.87-3.29-28.3-3.29-28.3A183.78,183.78,0,0,0,326,133.4c-3.35,10.56-7.91,14.66-3.49,24.14s9.72,9.79,22.37,14.07A19.37,19.37,0,0,0,365.27,167.08Z" style="fill:#C53F3F"></path><path d="M351.62,173.27a21.45,21.45,0,0,1-6.94-1.19c-1.84-.62-3.53-1.16-5.07-1.66-9.14-2.92-13.73-4.38-17.6-12.67-3.37-7.24-1.6-11.53.84-17.48.83-2,1.78-4.33,2.63-7a186.48,186.48,0,0,1,9.44-22.7.5.5,0,0,1,.56-.26.49.49,0,0,1,.39.48c0,.19.13,19.17,3.26,28.14,3,8.56,10.13,12.66,21.75,12.53,9.52-.11,12,0,12.83,1.25a2,2,0,0,1-.08,2c-1.11,2.47-7.67,12.27-7.95,12.69l0,0A20,20,0,0,1,351.62,173.27Zm-16.72-60.4a177.73,177.73,0,0,0-8.47,20.68c-.86,2.74-1.82,5.06-2.66,7.1-2.43,5.92-4,9.84-.85,16.67,3.68,7.9,7.85,9.23,17,12.15,1.55.5,3.24,1,5.09,1.66a19,19,0,0,0,19.88-4.36c.41-.62,6.79-10.18,7.83-12.51.34-.76.21-1,.17-1-.58-.87-4.91-.89-12-.8h-.57c-11.79,0-19-4.32-22.13-13.21C335.6,131.8,335,118.11,334.9,112.87Zm30.37,54.21h0Z" style="fill:#263238"></path><path d="M365,160.61s-23.08,1.21-30.6-.22c-6.12-1.17-11.79-6.9-13.69-9a18.12,18.12,0,0,0,1.78,6.14c4.41,9.47,9.72,9.79,22.37,14.07a20,20,0,0,0,11.46.59Z" style="fill:#263238"></path><path d="M351.66,173.28a21.62,21.62,0,0,1-7-1.2c-1.84-.62-3.53-1.16-5.07-1.66-9.14-2.92-13.73-4.38-17.6-12.67a18.77,18.77,0,0,1-1.81-6.31.48.48,0,0,1,.3-.5.48.48,0,0,1,.56.12c1.62,1.78,7.36,7.69,13.41,8.84,7.37,1.41,30.26.22,30.49.21a.49.49,0,0,1,.46.26.5.5,0,0,1,0,.54L356.7,172.5a.53.53,0,0,1-.28.18A19.11,19.11,0,0,1,351.66,173.28Zm-30.25-20.4a19.6,19.6,0,0,0,1.51,4.44c3.68,7.9,7.85,9.23,17,12.15,1.55.5,3.24,1,5.09,1.66a19.48,19.48,0,0,0,11,.63l7.93-10.6c-4.67.22-23,1-29.65-.28C329,159.87,324,155.56,321.41,152.88Z" style="fill:#263238"></path><path d="M331.39,166.74a189.17,189.17,0,0,1,25.29-5.28c12.6-1.6,28.08-1.07,32-3.15a19.69,19.69,0,0,0,6.19-5.31s-7.38,13.7-12.67,19.83-11.55,9.71-13.79,10a26.74,26.74,0,0,1-11.34-1.24C351.42,179.92,333.32,167.17,331.39,166.74Z" style="fill:#C53F3F"></path><path d="M365.65,183.49a30.76,30.76,0,0,1-8.75-1.43c-3.49-1-11.43-6.08-17.81-10.14-3.67-2.34-7.14-4.54-7.81-4.69a.51.51,0,0,1-.39-.48.49.49,0,0,1,.36-.49,191,191,0,0,1,25.37-5.3c5.24-.66,11.05-1,16.17-1.23,7.22-.37,13.45-.7,15.63-1.86a19.32,19.32,0,0,0,6-5.16.5.5,0,0,1,.85.53c-.08.14-7.47,13.81-12.73,19.92S370.9,183,368.45,183.31A22.19,22.19,0,0,1,365.65,183.49Zm-32.83-16.63c1.36.76,3.62,2.19,6.8,4.21,6,3.82,14.21,9,17.57,10a26.18,26.18,0,0,0,11.13,1.22c1.9-.23,8-3.44,13.48-9.81,3.54-4.12,8.09-11.74,10.64-16.22a18.69,18.69,0,0,1-3.55,2.46c-2.38,1.27-8.41,1.58-16.05,2-5.1.26-10.89.56-16.1,1.22A189.2,189.2,0,0,0,332.82,166.86Z" style="fill:#263238"></path><path d="M328.13,163.58a139.45,139.45,0,0,0,31.17,13.91c17.94,5.46,26.73,3.85,32.4,2.56s10.12-2.7,10.12-2.7-10.24,7.74-18.44,14.7A130.87,130.87,0,0,1,363,206.32c-3.9,2.08-9.66,5.46-9.66,5.46s-5.84-14.5-11.82-24S328.13,163.58,328.13,163.58Z" style="fill:#C53F3F"></path><path d="M353.34,212.28l-.16,0a.48.48,0,0,1-.3-.29c-.06-.14-5.9-14.56-11.78-23.87S327.75,164,327.68,163.81a.5.5,0,0,1,.11-.6.51.51,0,0,1,.61-.05,140.13,140.13,0,0,0,31,13.85c18.57,5.64,27.4,3.63,32.15,2.55,5.58-1.27,10-2.68,10.08-2.69a.5.5,0,0,1,.6.25.51.51,0,0,1-.14.63c-.11.07-10.34,7.81-18.43,14.68a131.05,131.05,0,0,1-20.47,14.33c-3.84,2.05-9.58,5.41-9.63,5.45A.59.59,0,0,1,353.34,212.28Zm-24-47.36c2.07,4.05,7.82,15.1,12.58,22.63,5.28,8.37,10.52,20.79,11.64,23.51,1.48-.87,6-3.48,9.17-5.18a129.51,129.51,0,0,0,20.29-14.21c5.87-5,12.85-10.41,16.31-13.07-1.85.53-4.54,1.25-7.55,1.94-4.83,1.1-13.83,3.15-32.66-2.57A144.58,144.58,0,0,1,329.37,164.92Z" style="fill:#263238"></path><path d="M333.51,234.35s5.9,3.91,10.89,7,16.54,1,25.8-1.66,21-19.5,24.33-26.94,9.05-23.14,9.05-23.14-28.72,10.12-36.05,13.22-14.86,9.51-17.34,12.22-13.75,7-13.75,7S331.82,231.48,333.51,234.35Z" style="fill:#C53F3F"></path><path d="M351.81,243.38c-3.05,0-5.77-.45-7.67-1.62-4.94-3-10.85-6.95-10.91-7a.46.46,0,0,1-.15-.16c-1.78-3,2.42-11.77,2.91-12.76a.51.51,0,0,1,.27-.25c.11,0,11.18-4.3,13.56-6.9s9.93-9.13,17.52-12.34c7.26-3.07,35.79-13.13,36.07-13.24a.54.54,0,0,1,.53.12.52.52,0,0,1,.11.53c-.06.15-5.78,15.8-9.06,23.17-3.5,7.84-15.37,24.55-24.65,27.22C365.44,241.57,358,243.38,351.81,243.38ZM333.89,234c.81.54,6.2,4.1,10.78,6.91,5.58,3.45,19.62,0,25.39-1.71,9-2.59,20.58-19,24-26.67,2.8-6.25,7.36-18.53,8.67-22.11-5.14,1.82-28.56,10.13-35,12.86-7.44,3.15-14.91,9.63-17.17,12.1s-12.23,6.49-13.76,7.09C335.52,225.11,332.77,231.78,333.89,234Z" style="fill:#263238"></path><path d="M347.9,223.54c2-3.74,11.17-10,17.18-13.76a27.5,27.5,0,0,1,11.46,0c5.63,1.4,13.49-.05,20-1.87,3.2-7.88,7-18.28,7-18.28s-26.24,9.24-34.95,12.77h0l-.51.21-.58.24c-7.33,3.1-14.86,9.51-17.34,12.22s-13.75,7-13.75,7-4.62,9.41-2.93,12.28c0,0,5.9,3.91,10.89,7s16.54,1,25.8-1.66a14.53,14.53,0,0,0,2.9-1.24,29.49,29.49,0,0,1-8.92-.18C358.16,236.83,344.91,229.2,347.9,223.54Z" style="fill:#263238"></path><path d="M351.81,243.38c-3.05,0-5.77-.45-7.67-1.62-4.94-3-10.85-6.95-10.91-7a.46.46,0,0,1-.15-.16c-1.78-3,2.42-11.77,2.91-12.76a.51.51,0,0,1,.27-.25c.11,0,11.18-4.3,13.56-6.9s9.93-9.13,17.52-12.34l1-.43c8.69-3.51,34.78-12.71,35-12.81a.54.54,0,0,1,.53.12.52.52,0,0,1,.11.53c0,.1-3.84,10.5-7,18.3a.47.47,0,0,1-.32.29c-8.71,2.43-15.54,3.06-20.3,1.88a26.47,26.47,0,0,0-11.16,0c-9.46,6-15.47,10.77-16.92,13.51l-.44-.23.44.23a3.63,3.63,0,0,0,.06,3.3c2.05,4.51,10.91,9.52,15.89,10.7a27.94,27.94,0,0,0,8.76.17.5.5,0,0,1,.52.35.51.51,0,0,1-.23.59,15.14,15.14,0,0,1-3,1.28C365.44,241.57,358,243.38,351.81,243.38ZM333.89,234c.81.54,6.2,4.1,10.78,6.91,5.58,3.45,19.62,0,25.39-1.71l.17,0a23.44,23.44,0,0,1-6.17-.41c-5.11-1.21-14.33-6.31-16.57-11.26a4.53,4.53,0,0,1,0-4.18c2-3.71,10.52-9.63,17.35-13.94a.51.51,0,0,1,.17-.07,27.49,27.49,0,0,1,11.69,0c4.48,1.11,11.23.48,19.54-1.81,2.57-6.33,5.52-14.28,6.53-17-4.89,1.73-26.29,9.32-33.93,12.41l-1.08.45c-7.44,3.15-14.91,9.63-17.17,12.1s-12.23,6.49-13.76,7.09C335.52,225.11,332.77,231.78,333.89,234Z" style="fill:#263238"></path><path d="M367.53,202.82s18.28-2.89,27.45-3.47,28-9.57,31.29-14.92,11.48-15.27,8.22-22.24-15.1-19.47-15.1-19.47-7.15,18.89-11.37,25.5-6.2,9.13-6.2,9.13l-30.19,20.08Z" style="fill:#C53F3F"></path><path d="M367.53,203.32a.5.5,0,0,1-.43-.25.5.5,0,0,1,0-.55l4.11-5.39a.34.34,0,0,1,.12-.12l30.12-20c.32-.43,2.32-3.08,6.12-9,4.14-6.49,11.25-25.22,11.33-25.41a.49.49,0,0,1,.36-.31.53.53,0,0,1,.47.14c.48.52,11.93,12.64,15.18,19.61,2.82,6-2.42,13.89-6.24,19.63-.75,1.12-1.46,2.17-2,3.08-3.33,5.5-22.28,14.57-31.69,15.16-9,.57-27.22,3.43-27.4,3.46ZM372,197.8l-3.3,4.33c4.26-.65,18.55-2.79,26.27-3.28,9-.57,27.75-9.48,30.89-14.68.56-.92,1.27-2,2-3.12,3.7-5.54,8.76-13.12,6.18-18.65-2.79-6-12.11-16.21-14.46-18.75-1.4,3.62-7.37,18.93-11.14,24.84-4.19,6.55-6.14,9.06-6.22,9.17a.58.58,0,0,1-.12.1Z" style="fill:#263238"></path><path d="M336.44,222.07s15.94,7.11,18.42,4.4-.56-20.64-9.72-35.34-16.51-23.92-21.37-39.68-5.17-22.69-5.39-27.89,0-16.14,0-16.14-9.53,28-10.53,40.74A93.35,93.35,0,0,1,304.06,169s11.47,23.8,13.15,30.49,1.76,12.25,4.31,15.09S336.44,222.07,336.44,222.07Z" style="fill:#C53F3F"></path><path d="M352.7,227.57c-4.86,0-14.23-4-16.45-5-.68-.25-12.51-4.75-15.1-7.63-1.83-2-2.43-5.24-3.18-9.31-.33-1.81-.71-3.86-1.24-6-1.66-6.57-13-30.16-13.12-30.4a.46.46,0,0,1,0-.38,94.29,94.29,0,0,0,3.74-20.7c1-12.63,10.46-40.58,10.55-40.86a.49.49,0,0,1,.56-.33.5.5,0,0,1,.42.5c0,.11-.21,11,0,16.11s.53,12.07,5.37,27.76c3.84,12.45,9.16,20.67,15.9,31.08,1.73,2.68,3.53,5.46,5.42,8.49,8.88,14.26,12.51,32.82,9.66,35.93A3.38,3.38,0,0,1,352.7,227.57ZM304.6,169c1.14,2.38,11.48,24,13.1,30.41.54,2.16.92,4.22,1.26,6,.72,3.91,1.29,7,2.93,8.83,2.45,2.71,14.6,7.32,14.72,7.36l0,0c6,2.69,16.22,6.29,17.85,4.51,2.32-2.54-.73-20.22-9.77-34.73-1.89-3-3.68-5.8-5.41-8.48-6.78-10.47-12.13-18.74-16-31.32-4.88-15.82-5.19-22.87-5.41-28-.15-3.39-.12-9.26-.07-12.92-2.49,7.64-8.69,27.51-9.48,37.53A97.35,97.35,0,0,1,304.6,169Z" style="fill:#263238"></path><path d="M333.51,234.35s-7.09.66-9.69-3,.37-7.48-9.93-20.57-25.54-43.66-24.95-46,4.62-5.58,2.14-6.69a70.81,70.81,0,0,1-6.77-3.87s-10.65-17.06-10.6-23.84,5.43-22.63,5.43-22.63,3.24-9.17,5.31-1.45,11.56,45.5,18.24,59.09,17.27,37.43,17.86,42.79.74,5,3.45,7.49,12.44,6.39,12.44,6.39Z" style="fill:#C53F3F"></path><path d="M332.21,234.9c-2.26,0-6.75-.39-8.8-3.3a10.36,10.36,0,0,1-1.5-4.2c-.67-3.24-1.58-7.66-8.41-16.35-10-12.66-25.77-43.59-25-46.38a10.2,10.2,0,0,1,1.55-2.82c.71-1,1.52-2.23,1.35-2.85,0-.06-.08-.26-.48-.44a68.1,68.1,0,0,1-6.84-3.91.54.54,0,0,1-.15-.15c-.44-.7-10.73-17.27-10.68-24.11s5.23-22.14,5.45-22.79c.3-.83,1.87-4.94,3.81-4.88,1,0,1.85,1.17,2.47,3.46.24.9.58,2.22,1,3.85,3.1,11.81,11.31,43.19,17.19,55.15,6.94,14.15,17.32,37.59,17.9,43,.51,4.66.63,4.77,2.6,6.54l.7.63c2.62,2.39,12.19,6.26,12.28,6.3a.5.5,0,0,1,.3.58L334,234.47a.49.49,0,0,1-.44.38C333.48,234.86,333,234.9,332.21,234.9Zm1.3-.55h0Zm-48.83-80.48a66.13,66.13,0,0,0,6.6,3.77,1.74,1.74,0,0,1,1,1.09c.3,1.06-.57,2.34-1.49,3.68a9.81,9.81,0,0,0-1.4,2.51c-.36,2.08,14.2,32,24.85,45.51,7,8.87,8,13.62,8.61,16.77a9.41,9.41,0,0,0,1.34,3.82c2.08,3,7.45,2.93,8.88,2.86l2.74-11.51c-1.89-.77-9.72-4.07-12.19-6.33l-.69-.62c-2.17-1.95-2.39-2.27-2.92-7.18S309.3,180,302.24,165.62c-5.92-12.05-13.86-42.38-17.25-55.33-.43-1.64-.78-3-1-3.85-.67-2.5-1.35-2.71-1.54-2.72-.89,0-2.21,2.49-2.82,4.21-.05.15-5.35,15.85-5.4,22.47C274.17,136.69,283.83,152.49,284.68,153.87Z" style="fill:#263238"></path><path d="M335.37,110.77s-.86-2.65,6.09-.91,16.63,6,16.63,6-15,15.81-16.49,18.1-2.94,5.06-2.94,5.06S333.52,119.5,335.37,110.77Z" style="fill:#C53F3F"></path><path d="M338.66,139.57h-.06a.5.5,0,0,1-.42-.37c-.21-.8-5.11-19.63-3.32-28.42a1.47,1.47,0,0,1,.38-1.28c.87-.94,2.94-1,6.34-.13,6.92,1.73,16.61,6,16.71,6.08a.53.53,0,0,1,.29.36.51.51,0,0,1-.13.44c-.15.16-15,15.8-16.43,18s-2.9,5-2.92,5A.49.49,0,0,1,338.66,139.57Zm-1.05-29.81c-1.06,0-1.48.25-1.63.41a.47.47,0,0,0-.13.46.7.7,0,0,1,0,.25c-1.54,7.25,1.9,22.4,3,26.82.57-1,1.46-2.58,2.35-4,1.35-2.1,13.41-14.87,16.05-17.66a121.85,121.85,0,0,0-15.89-5.74A16.26,16.26,0,0,0,337.61,109.76Z" style="fill:#263238"></path><path d="M407.22,149s-5.45,13.26-12.1,20.52-10.05,10.3-12.24,11.14-9.58,0-9.58,0,14-11.5,15-12.65,13.27-10.91,13.27-10.91S405.75,151.26,407.22,149Z" style="fill:#263238"></path><path d="M379.2,181.5c-2.75,0-5.75-.32-5.95-.34a.48.48,0,0,1-.42-.35.49.49,0,0,1,.16-.53c3.88-3.19,14.12-11.66,14.89-12.58,1-1.15,11.8-9.75,13.3-10.93.43-.61,4.25-5.94,5.62-8.08a.5.5,0,0,1,.89.46c-.06.14-5.57,13.42-12.2,20.67s-10.09,10.36-12.44,11.26A12.44,12.44,0,0,1,379.2,181.5Zm-4.64-1.22c2.5.21,6.7.42,8.14-.13,2.16-.83,5.65-4,12.05-11,3.88-4.24,7.38-10.61,9.59-15.1L402,157.41l-.1.1c-3.41,2.7-12.43,9.91-13.2,10.83S377.74,177.66,374.56,180.28Z" style="fill:#263238"></path><path d="M342.57,145.59s7.43-6.46,11.48-9.43,6.71-3.83,8.69.92,1.66,14.61,1.66,14.61-8.47,1.67-13.57-.15A19.87,19.87,0,0,1,342.57,145.59Z" style="fill:#C53F3F"></path><path d="M357,152.9a19.62,19.62,0,0,1-6.31-.88,20.12,20.12,0,0,1-8.48-6.13.5.5,0,0,1,.07-.68c.07-.06,7.49-6.51,11.51-9.45,2.14-1.57,4.39-2.94,6.29-2.41,1.28.35,2.31,1.51,3.15,3.54,2,4.79,1.72,14.41,1.71,14.82a.51.51,0,0,1-.41.47A43.53,43.53,0,0,1,357,152.9Zm-13.7-7.25a19.45,19.45,0,0,0,7.73,5.42c4.29,1.54,11.2.5,12.91.2,0-1.89,0-9.94-1.63-14-.72-1.72-1.54-2.69-2.5-3-1.21-.34-2.78.32-5.43,2.25C350.87,139.11,344.82,144.31,343.27,145.65Z" style="fill:#263238"></path><path d="M358.61,134.1a2.61,2.61,0,0,0-1.92,2.78c.1,2.32,1.17,9.61,1.65,10.06s3.63-2,3.67-5.18" style="fill:#C53F3F"></path><path d="M358.5,147.49a.74.74,0,0,1-.5-.18c-.74-.68-1.74-8.73-1.81-10.41a3.1,3.1,0,0,1,2.31-3.29.5.5,0,0,1,.22,1h0a2.08,2.08,0,0,0-1.53,2.27,60.52,60.52,0,0,0,1.46,9.59,5.92,5.92,0,0,0,2.86-4.7.51.51,0,0,1,.5-.49h0a.49.49,0,0,1,.49.5,6.94,6.94,0,0,1-3.47,5.6A1.44,1.44,0,0,1,358.5,147.49Z" style="fill:#263238"></path><path d="M318.92,230.71a15.46,15.46,0,0,0,7.54,11.16c7.05,4.33,9.9,5.36,17,1s13-8.39,17.27-9.07a42,42,0,0,1,8-.45s-3.81-3.11-13.07-3-19.12,4.87-22.19,4S318.92,230.71,318.92,230.71Z" style="fill:#C53F3F"></path><path d="M318.92,230.71a15.46,15.46,0,0,0,7.54,11.16c7.05,4.33,9.9,5.36,17,1s13-8.39,17.27-9.07a42,42,0,0,1,8-.45s-3.81-3.11-13.07-3-19.12,4.87-22.19,4S318.92,230.71,318.92,230.71Z" style="opacity:0.39"></path><path d="M335.8,246.15c-2.91,0-5.64-1.42-9.6-3.85a15.87,15.87,0,0,1-7.78-11.55.49.49,0,0,1,.18-.42.49.49,0,0,1,.44-.1c.11,0,11.56,2.78,14.6,3.64,1.27.36,4.14-.43,7.47-1.35,4.22-1.16,9.48-2.61,14.58-2.67,9.34-.13,13.24,3,13.4,3.11a.5.5,0,0,1,.15.56.49.49,0,0,1-.5.32,41.65,41.65,0,0,0-7.89.45c-3.49.54-8.19,3.47-13.62,6.85l-3.47,2.15C340.53,245.27,338.11,246.15,335.8,246.15Zm-16.28-14.78a15.44,15.44,0,0,0,7.2,10.08c6.73,4.12,9.42,5.33,16.52,1,1.19-.72,2.34-1.44,3.46-2.14,5.75-3.58,10.3-6.41,14-7a42.14,42.14,0,0,1,6.13-.49,25.67,25.67,0,0,0-11.13-2c-5,.06-10.16,1.49-14.33,2.64-3.61,1-6.47,1.78-8,1.34C330.79,234.11,322.09,232,319.52,231.37Z" style="fill:#263238"></path></g><g id="freepik--flower-1--inject-153"><path d="M172.26,384.88s-13.16-6-20.3-10.3-12.76-9.92-14.31-12.22-13.2-29.05-18-35.24-21.22-13.93-32.33-15.55-23.54-2.05-23.54-2.05,11.59,42,22.45,49.53,39.2,7.28,41.64,6.85,8,.1,8.73-.12,16.12,12.21,18.85,13.11,18.62,8.7,18.62,8.7Z" style="fill:#C53F3F"></path><path d="M172.26,384.88s-13.16-6-20.3-10.3-12.76-9.92-14.31-12.22-13.2-29.05-18-35.24-21.22-13.93-32.33-15.55-23.54-2.05-23.54-2.05,11.59,42,22.45,49.53,39.2,7.28,41.64,6.85,8,.1,8.73-.12,16.12,12.21,18.85,13.11,18.62,8.7,18.62,8.7Z" style="opacity:0.39"></path><path d="M139.47,364.56l-1.25-.46-8.33-4.71,8.55,7.29.23.34c4.43,3.12,14.63,11.15,16.8,11.87,2.73.89,18.62,8.7,18.62,8.7l-1.83-2.71s-13.16-6-20.3-10.3A60.41,60.41,0,0,1,139.47,364.56Z" style="fill:#C53F3F"></path><path d="M128.11,358.82a.58.58,0,0,1-.19,0c-.14-.06-14.14-5.64-28.8-19.11A337.51,337.51,0,0,0,69.8,315.84a.49.49,0,0,1-.12-.69.5.5,0,0,1,.7-.12A337.59,337.59,0,0,1,99.8,339c14.51,13.33,28.35,18.85,28.49,18.91a.5.5,0,0,1-.18,1Z" style="fill:#263238"></path><path d="M72.74,329.73a.5.5,0,0,1,0-1L87,328.49l-7.42-12.08a.5.5,0,1,1,.86-.52l7.87,12.82a.47.47,0,0,1,0,.5.48.48,0,0,1-.43.26l-15.15.26Z" style="fill:#263238"></path><path d="M80.55,340.56a.51.51,0,0,1-.5-.45.5.5,0,0,1,.45-.55l16.93-1.84-8-18.07a.5.5,0,1,1,.91-.4l8.26,18.69a.49.49,0,0,1-.4.7L80.6,340.55Z" style="fill:#263238"></path><path d="M92,351.48a.5.5,0,0,1-.49-.39.51.51,0,0,1,.39-.6l16.7-3.56-4-19.7a.5.5,0,0,1,1-.2l4.15,20.18a.49.49,0,0,1-.38.59l-17.2,3.67Z" style="fill:#263238"></path><path d="M101.5,360.66a.5.5,0,0,1-.12-1l19.76-5.08-5.22-21.47a.5.5,0,0,1,1-.24l5.34,21.95a.5.5,0,0,1-.36.6l-20.24,5.21Z" style="fill:#263238"></path><path d="M174.09,388.09a.42.42,0,0,1-.22,0c-.16-.08-15.89-7.8-18.56-8.68-1.57-.51-6.61-4.28-11.49-7.93-3-2.27-6.48-4.84-7.19-5.14a19.74,19.74,0,0,1-2.78,0,34.68,34.68,0,0,0-5.87.1c-2.85.5-31.07.69-42-6.93s-22.17-48.08-22.65-49.8a.55.55,0,0,1,.09-.45.53.53,0,0,1,.41-.19c.13,0,12.59.45,23.6,2.05,11.45,1.67,27.93,9.62,32.66,15.74,3.22,4.17,9.55,17.64,13.74,26.55,2.1,4.46,3.76,8,4.26,8.72,1.62,2.42,7.25,7.92,14.14,12.07s20.12,10.21,20.25,10.27a.46.46,0,0,1,.21.18l1.83,2.71a.5.5,0,0,1,0,.61A.48.48,0,0,1,174.09,388.09Zm-37.46-22.81c.52,0,1.65.77,7.79,5.35,4.36,3.26,9.79,7.32,11.21,7.78,2.22.73,12.82,5.87,17,7.91l-.71-1.05c-1.38-.63-13.51-6.23-20.22-10.27-7-4.22-12.78-9.87-14.46-12.36-.54-.8-2.13-4.18-4.33-8.86-4.17-8.87-10.48-22.27-13.63-26.36-4.61-6-20.77-13.71-32-15.36-9.47-1.38-20-1.89-22.8-2,1.54,5.37,12.22,41.74,22.07,48.59,10.51,7.32,38.59,7.24,41.28,6.77a35,35,0,0,1,6.07-.12,20,20,0,0,0,2.61,0Z" style="fill:#263238"></path><path d="M162.53,336.7s-9.57-15.63-14-25.2-6.38-19.45-6.38-23,6.69-39.87,6.06-49.76-12.44-29.66-23-39.23-23.28-18.82-23.28-18.82S84.38,233,90.44,248.67s36.05,35.4,38.92,36.68,8.29,5.74,9.25,6.06,8.29,24.24,10.52,27.11,13.4,22.33,13.4,22.33Z" style="fill:#C53F3F"></path><path d="M162.53,336.7s-9.57-15.63-14-25.2-6.38-19.45-6.38-23,6.69-39.87,6.06-49.76-12.44-29.66-23-39.23-23.28-18.82-23.28-18.82S84.38,233,90.44,248.67s36.05,35.4,38.92,36.68,8.29,5.74,9.25,6.06,8.29,24.24,10.52,27.11,13.4,22.33,13.4,22.33Z" style="opacity:0.39"></path><path d="M142.47,292.15l-1-1.38-5.42-10.84,3.82,13.71v.51c2.45,6.42,7.47,22.08,9.25,24.37,2.24,2.87,13.4,22.33,13.4,22.33V336.7s-9.57-15.63-14-25.2A76.3,76.3,0,0,1,142.47,292.15Z" style="fill:#C53F3F"></path><path d="M134.94,278a.52.52,0,0,1-.41-.22c-.11-.15-10.85-15.92-16.71-40.42a424.55,424.55,0,0,0-13.94-45.82.52.52,0,0,1,.29-.65.5.5,0,0,1,.65.29,425.22,425.22,0,0,1,14,45.95c5.81,24.3,16.46,39.93,16.56,40.08a.51.51,0,0,1-.12.7A.52.52,0,0,1,134.94,278Z" style="fill:#263238"></path><path d="M113.48,218.73a.48.48,0,0,1-.28-.08L97.1,208.19a.5.5,0,1,1,.55-.84l15.36,10,.77-18.18a.51.51,0,0,1,.52-.48.5.5,0,0,1,.48.52L114,218.25a.49.49,0,0,1-.27.43A.59.59,0,0,1,113.48,218.73Z" style="fill:#263238"></path><path d="M117.77,235.64a.46.46,0,0,1-.23-.06L97.68,225.12a.5.5,0,0,1,.46-.89l19.26,10.15,4.44-24.82a.51.51,0,0,1,.58-.41.5.5,0,0,1,.4.58l-4.56,25.5a.52.52,0,0,1-.27.36A.59.59,0,0,1,117.77,235.64Z" style="fill:#263238"></path><path d="M122.87,253.08a.63.63,0,0,1-.19,0L102,244.73a.5.5,0,1,1,.37-.93l20.2,8.13,9.74-23.69a.5.5,0,0,1,.93.38l-9.93,24.15A.51.51,0,0,1,122.87,253.08Z" style="fill:#263238"></path><path d="M130.65,270a.51.51,0,0,1-.17,0l-24.95-8.86a.5.5,0,0,1-.31-.63.51.51,0,0,1,.64-.31l24.49,8.69,9.76-26.37a.5.5,0,0,1,.64-.3.52.52,0,0,1,.3.65l-9.93,26.83A.52.52,0,0,1,130.65,270Z" style="fill:#263238"></path><path d="M162.53,341.35a.5.5,0,0,1-.43-.25c-.12-.2-11.18-19.46-13.36-22.27-1.27-1.64-3.9-9.16-6.44-16.43-1.61-4.62-3.44-9.84-4-10.56a23.9,23.9,0,0,1-2.93-2,43.46,43.46,0,0,0-6.26-4.06c-3.34-1.49-33.07-21.22-39.17-37s10.75-66.14,11.47-68.28a.49.49,0,0,1,.77-.24c.13.09,12.9,9.37,23.33,18.85,10.82,9.84,22.5,29.81,23.13,39.57.42,6.64-2.45,25.27-4.36,37.59-.95,6.19-1.7,11.07-1.7,12.2,0,3.7,2,13.5,6.33,22.75,4.4,9.44,13.91,25,14,25.15a.59.59,0,0,1,.07.26v4.15a.5.5,0,0,1-.37.48ZM102.19,181.54c-2,6.07-16.84,52.6-11.28,67,5.88,15.17,35.48,35,38.65,36.4a45.72,45.72,0,0,1,6.44,4.17,23.84,23.84,0,0,0,2.77,1.87c.58.2,1.16,1.65,4.47,11.14,2.28,6.52,5.12,14.64,6.29,16.14,1.87,2.41,9.75,16,12.5,20.77v-2.14c-.9-1.48-9.77-16.08-14-25.12-4.38-9.4-6.42-19.39-6.42-23.18,0-1.21.72-5.88,1.72-12.35,1.89-12.28,4.76-30.84,4.34-37.38-.62-9.55-12.13-29.18-22.81-38.89C115.72,191.6,104.75,183.43,102.19,181.54Z" style="fill:#263238"></path><path d="M169.55,340.53s6.38-19.14,13.07-30,25.52-24.56,45.61-29,62.2-10.84,78.79-13.39,44.33,15.62,44.33,15.62-19.45-8.29-30.62-7-26.79,15.31-56.13,22.32-45.62,1-51.68-1.27a57.44,57.44,0,0,0-10.52-2.87s-7,6.38-12.12,10.52S181,319.8,179.43,323.62,170.5,346,170.5,346Z" style="fill:#C53F3F"></path><path d="M169.55,340.53s6.38-19.14,13.07-30,25.52-24.56,45.61-29,62.2-10.84,78.79-13.39,44.33,15.62,44.33,15.62-19.45-8.29-30.62-7-26.79,15.31-56.13,22.32-45.62,1-51.68-1.27a57.44,57.44,0,0,0-10.52-2.87s-7,6.38-12.12,10.52S181,319.8,179.43,323.62,170.5,346,170.5,346Z" style="opacity:0.39"></path><path d="M223.5,299.05a.51.51,0,0,1-.44-.26l-5.57-10.31a.5.5,0,0,1,.2-.68.51.51,0,0,1,.68.2l5.57,10.31a.5.5,0,0,1-.21.68A.46.46,0,0,1,223.5,299.05Z" style="fill:#263238"></path><path d="M241,294.59a.48.48,0,0,1-.36-.16l-10-10.86a.5.5,0,0,1,0-.71.48.48,0,0,1,.7,0l10,10.86a.5.5,0,0,1,0,.71A.47.47,0,0,1,241,294.59Z" style="fill:#263238"></path><path d="M260.26,289.58a.46.46,0,0,1-.29-.1l-12.26-8.91a.5.5,0,1,1,.59-.81l12.26,8.91a.51.51,0,0,1,.11.7A.49.49,0,0,1,260.26,289.58Z" style="fill:#263238"></path><path d="M282.27,282.62a.46.46,0,0,1-.29-.1l-10.31-7.24a.5.5,0,0,1-.12-.69.51.51,0,0,1,.7-.13l10.31,7.25a.5.5,0,0,1,.12.69A.5.5,0,0,1,282.27,282.62Z" style="fill:#263238"></path><path d="M307.34,275.37h-.08l-15-2.23a.5.5,0,0,1,.15-1l15,2.23a.5.5,0,0,1-.07,1Z" style="fill:#263238"></path><path d="M182.62,310.55c-6.69,10.84-13.07,30-13.07,30l.95,5.42s7.34-18.5,8.93-22.33,5.75-14,10.85-18.18,12.12-10.52,12.12-10.52l-3.53-.24C191.54,299.77,185.76,305.47,182.62,310.55Z" style="fill:#C53F3F"></path><path d="M170.5,346.45h-.05A.5.5,0,0,1,170,346l-1-5.42a.69.69,0,0,1,0-.25c.07-.19,6.48-19.32,13.13-30.09s25.71-24.75,45.93-29.25c19-4.21,57.28-10.09,75.69-12.92l3.12-.48c16.6-2.55,43.55,15,44.69,15.71a.49.49,0,0,1,.16.65.48.48,0,0,1-.63.22c-.2-.08-19.46-8.23-30.37-7-4.67.54-10.23,3.39-17.27,7-9.77,5-21.92,11.27-38.81,15.31-29.38,7-45.74,1-51.89-1.27a59.88,59.88,0,0,0-10.26-2.83c-1.13,1-7.36,6.64-12,10.38-4.86,3.95-8.85,13.55-10.55,17.64l-.14.35C178.32,327.6,171,346,171,346.14A.5.5,0,0,1,170.5,346.45Zm-.44-5.88.63,3.56c1.83-4.62,7-17.58,8.28-20.7l.14-.34c1.74-4.17,5.8-13.93,10.85-18s12-10.45,12.1-10.51a.55.55,0,0,1,.41-.13,58.56,58.56,0,0,1,10.63,2.9c6.14,2.26,22.29,8.21,51.38,1.26,16.77-4,28.86-10.23,38.58-15.23,7.13-3.66,12.76-6.56,17.62-7.11,7.64-.87,18.92,2.6,25.53,5-8.68-5-27-14.46-39.12-12.6l-3.11.48c-18.41,2.82-56.72,8.71-75.64,12.91-20,4.43-38.7,18.13-45.29,28.8C176.73,321,170.61,338.93,170.06,340.57Z" style="fill:#263238"></path><path d="M168.06,142.54s-13.29,97.8-11.16,147.76,14.88,134.47,14.88,134.47a57.54,57.54,0,0,0,10.1,4.25c5.31,1.6,3.72,0,1.06-8s-14.13-98.66-14.66-101.85-.22-6.05-1.82-15.08-1.06-70.16,1.07-93.55,4.78-31.36,6.91-38.8,5.84-26,5.84-26Z" style="fill:#C53F3F"></path><path d="M184.48,430.08a10.7,10.7,0,0,1-2.75-.58,59.35,59.35,0,0,1-10.19-4.29.53.53,0,0,1-.26-.37c-.12-.84-12.78-85.1-14.88-134.52s11-146.87,11.16-147.85a.49.49,0,0,1,.62-.41l12.23,3.19a.49.49,0,0,1,.36.58c0,.18-3.75,18.7-5.85,26.08l-.46,1.58c-2,6.88-4.46,15.43-6.44,37.13-2.16,23.77-2.58,84.81-1.06,93.41a103.49,103.49,0,0,1,1.44,11.5c.1,1.38.18,2.46.37,3.59.12.68.71,5.17,1.6,12,3.28,25,11,83.53,13,89.79.47,1.41.91,2.61,1.28,3.64,1.09,3,1.59,4.41.88,5.16A1.4,1.4,0,0,1,184.48,430.08Zm-12.24-5.63a57.46,57.46,0,0,0,9.78,4.09c2.1.63,2.7.6,2.83.46.28-.3-.39-2.16-1.1-4.13-.37-1-.81-2.25-1.28-3.66-2.12-6.35-9.81-64.95-13.09-90-.89-6.8-1.48-11.29-1.59-12a36.8,36.8,0,0,1-.38-3.67A101.55,101.55,0,0,0,166,304.2c-1.57-8.88-1.17-69.19,1.06-93.67,2-21.79,4.47-30.4,6.47-37.32l.46-1.57c1.91-6.69,5.15-22.63,5.74-25.55l-11.22-2.92c-1.07,8-13.1,99.71-11.08,147.11C159.44,338.31,171.47,419.35,172.24,424.45Z" style="fill:#263238"></path><path d="M173.13,176.32c.45-1.61.89-3.09,1.31-4.55,2.12-7.44,5.84-26,5.84-26l-12.22-3.19s-1.32,9.74-3.07,24.64C167.56,170.47,170.86,174.45,173.13,176.32Z" style="fill:#263238"></path><path d="M173.13,176.82a.51.51,0,0,1-.31-.11c-2.36-1.93-5.77-6.08-8.22-9.23a.52.52,0,0,1-.11-.36c1.73-14.73,3.06-24.55,3.07-24.65a.49.49,0,0,1,.62-.41l12.23,3.19a.48.48,0,0,1,.36.58c0,.18-3.75,18.7-5.85,26.08l-.44,1.53-.87,3a.49.49,0,0,1-.33.34ZM165.51,167a78,78,0,0,0,7.35,8.4c.23-.78.44-1.53.66-2.27l.44-1.53c1.91-6.68,5.15-22.62,5.74-25.54l-11.22-2.92C168.18,145.43,167,154.41,165.51,167Z" style="fill:#263238"></path><path d="M128.47,124.1c-9.68-1.62-13.45-.54-21.8-13.46s-12.11-17-12.11-17,17.5,36.6,24.49,43.86,15.61,10.5,26.65,10.77a61.28,61.28,0,0,0,20.45-3.23S154,133.25,150.81,131.63C150.81,131.63,138.16,125.71,128.47,124.1Z" style="fill:#C53F3F"></path><path d="M242,159.62a33.6,33.6,0,0,1-23.68-12.11l-22.68,5.07a13.36,13.36,0,0,0-2.08-3.45c-3.77-4.31-24.22-7.27-27.45-4,0,0-3.23,4.84,5.38,15.34s13.46,13.19,14.54,18.3a43.83,43.83,0,0,1,1.07,8.07s4-6.19,8.34-14c2.3-4.16,2.67-9.39,2-14,3.34,2.71,9.18,5.81,19.31,7.83,21.52,4.31,25.29,4.57,32.56-.54s17.49-9.42,17.49-9.42S257.65,160.7,242,159.62Z" style="fill:#C53F3F"></path><g style="opacity:0.39"><path d="M128.47,124.1c-9.68-1.62-13.45-.54-21.8-13.46s-12.11-17-12.11-17,17.5,36.6,24.49,43.86,15.61,10.5,26.65,10.77a61.28,61.28,0,0,0,20.45-3.23S154,133.25,150.81,131.63C150.81,131.63,138.16,125.71,128.47,124.1Z"></path><path d="M242,159.62a33.6,33.6,0,0,1-23.68-12.11l-22.68,5.07a13.36,13.36,0,0,0-2.08-3.45c-3.77-4.31-24.22-7.27-27.45-4,0,0-3.23,4.84,5.38,15.34s13.46,13.19,14.54,18.3a43.83,43.83,0,0,1,1.07,8.07s4-6.19,8.34-14c2.3-4.16,2.67-9.39,2-14,3.34,2.71,9.18,5.81,19.31,7.83,21.52,4.31,25.29,4.57,32.56-.54s17.49-9.42,17.49-9.42S257.65,160.7,242,159.62Z"></path></g><path d="M146.9,148.83h-1.21c-11.52-.28-20.09-3.75-27-10.92s-23.86-42.5-24.58-44a.5.5,0,0,1,.82-.55c.15.16,3.89,4.21,12.16,17,7.21,11.16,10.87,11.69,18.17,12.73,1,.15,2.12.31,3.3.51,9.64,1.6,22.34,7.51,22.46,7.57,3.28,1.64,15,13.07,15.48,13.55a.5.5,0,0,1,.14.46.52.52,0,0,1-.32.37A62.91,62.91,0,0,1,146.9,148.83Zm-50-51.42c4.73,9.65,17,34.09,22.48,39.8,6.71,7,15.07,10.34,26.3,10.61a62.15,62.15,0,0,0,19.51-2.94c-2.45-2.37-11.91-11.44-14.63-12.8-.12-.05-12.69-5.9-22.2-7.49-1.17-.19-2.25-.35-3.27-.49-7.36-1.06-11.41-1.64-18.87-13.19C102,104.3,98.91,100,96.93,97.41Z" style="fill:#263238"></path><path d="M187.14,187.3a.34.34,0,0,1-.14,0,.5.5,0,0,1-.36-.48,43.62,43.62,0,0,0-1.06-8c-.65-3.05-2.77-5.28-6.29-9-2.18-2.29-4.89-5.14-8.14-9.1-8.75-10.66-5.56-15.73-5.42-15.94,1.48-1.48,5.25-1.66,8.17-1.56,7.57.25,17.44,2.54,20.08,5.55a13.32,13.32,0,0,1,2,3.2l22.28-5a.5.5,0,0,1,.51.2,33.42,33.42,0,0,0,23.32,11.9h0c14.73,1,23.75-2.6,24.47-2.9l.06,0a.5.5,0,0,1,.39.92l-.13.06a109.78,109.78,0,0,0-17.27,9.31c-7.44,5.23-11.44,4.92-32.95.62-8-1.59-14.2-4-18.56-7.19.37,3.31.37,8.54-2.17,13.13-4.26,7.73-8.32,14-8.36,14A.5.5,0,0,1,187.14,187.3Zm-20.59-41.9c-.26.47-2.45,5.18,5.37,14.71,3.23,3.93,5.92,6.77,8.09,9,3.64,3.83,5.84,6.14,6.54,9.47a52.7,52.7,0,0,1,1,6.59c1.4-2.22,4.39-7,7.49-12.65,2.72-4.95,2.36-10.71,1.89-13.71a.51.51,0,0,1,.25-.51.5.5,0,0,1,.56.05c4.25,3.45,10.68,6,19.09,7.73,21.47,4.29,25,4.58,32.18-.46A91.94,91.94,0,0,1,260.56,159,67.76,67.76,0,0,1,242,160.12a34.65,34.65,0,0,1-23.85-12.05l-22.37,5a.49.49,0,0,1-.56-.29,13.06,13.06,0,0,0-2-3.32c-2.35-2.7-12.16-5-19.35-5.21C170.14,144.12,167.48,144.54,166.55,145.4Z" style="fill:#263238"></path><path d="M161.26,108.23l20.2,35.34s7.58,8.27,16.07,5.74,36.62-32.22,39.42-35,1.66,1.3-20.14,1.76-51.87-6.2-53-7.34A2.25,2.25,0,0,0,161.26,108.23Z" style="fill:#263238"></path><path d="M194.18,150.3c-7.14,0-12.81-6.09-13.09-6.39l-.06-.09-20.2-35.34a.51.51,0,0,1,0-.4.5.5,0,0,1,.25-.3,2.74,2.74,0,0,1,3.1.55c1.51,1.13,30.82,7.66,52.66,7.2,12.76-.27,18.57-1.77,20.9-2.65.19-.07.58-.22.8.16a.58.58,0,0,1-.25.75,10.46,10.46,0,0,0-.94.83c-.27.27-.79.8-1.5,1.54-20.14,20.78-33,32.1-38.14,33.63A12,12,0,0,1,194.18,150.3Zm-12.31-7c.57.6,7.72,7.87,15.52,5.55,5-1.48,17.69-12.71,37.71-33.37l1-1c-3.18.86-9,1.88-19.27,2.09-21.3.44-52-6.1-53.38-7.49a1.69,1.69,0,0,0-1.42-.51Z" style="fill:#263238"></path><path d="M190,155.05s10.78,4.13,20,1.84,17.68-11.48,22.73-19.74S240,125.44,240,125.44s-14.92,5.51-23.64,9.87-13.77,7.35-17.44,8.95-6.2,1.38-8.27,4.13S189.73,153.9,190,155.05Z" style="fill:#C53F3F"></path><path d="M203.79,158.09a43.64,43.64,0,0,1-14-2.57.49.49,0,0,1-.31-.37c0-.15-.08-.32-.13-.52a7.09,7.09,0,0,1,.9-6.53c1.5-2,3.27-2.55,5.31-3.17a30,30,0,0,0,3.16-1.12c1.93-.85,4.3-2.11,7.31-3.71,2.68-1.42,6-3.18,10.11-5.24,8.64-4.32,23.54-9.83,23.69-9.89a.5.5,0,0,1,.59.75s-2.35,3.53-7.34,11.69-13.6,17.61-23,20A25.66,25.66,0,0,1,203.79,158.09Zm-13.41-3.42c1.66.59,11.26,3.77,19.42,1.73,9.13-2.28,17.57-11.58,22.42-19.51,3.3-5.41,5.44-8.77,6.52-10.45-3.94,1.49-15.14,5.81-22.17,9.32-4.09,2-7.41,3.81-10.08,5.23-3,1.6-5.42,2.87-7.38,3.73a27.4,27.4,0,0,1-3.27,1.16c-2,.63-3.49,1.08-4.8,2.81a6.16,6.16,0,0,0-.73,5.69C190.33,154.48,190.36,154.58,190.38,154.67Z" style="fill:#263238"></path><path d="M120.18,89.41s9.41,24.1,17.44,33.51,28,24.33,36.5,26.16,10.79,1.38,11.93-.46,5.28-4.13,1.84-12.39-12.85-20-12.85-20-12.4-11-24.56-16.07S120.18,89.41,120.18,89.41Z" style="fill:#C53F3F"></path><path d="M182.13,150.76a41.42,41.42,0,0,1-8.12-1.19c-8.69-1.88-28.72-16.9-36.77-26.33s-17.43-33.41-17.53-33.65a.52.52,0,0,1,.1-.53.5.5,0,0,1,.52-.13c.18.06,18.29,5.8,30.34,10.8s24.57,16,24.7,16.16,9.55,11.91,13,20.15c3,7.15.41,10.13-1.13,11.91a7.83,7.83,0,0,0-.74.94C185.69,150.15,184.45,150.76,182.13,150.76ZM121,90.21c1.86,4.61,10,24.22,17,32.38,8,9.32,27.69,24.16,36.22,26,8.34,1.81,10.44,1.31,11.41-.23a8.86,8.86,0,0,1,.83-1.06c1.48-1.71,3.71-4.3,1-10.88-3.38-8.1-12.69-19.73-12.78-19.85s-12.42-11-24.37-15.91C139.91,96.35,125,91.49,121,90.21Z" style="fill:#263238"></path><path d="M147.88,99.14c-12-4.76-27.7-9.73-27.7-9.73s2.51,6.43,6,14c7.23-.35,23-.87,26.13,1.1C154.75,106,151.66,102.58,147.88,99.14Z" style="fill:#263238"></path><path d="M153.14,105.33a2.31,2.31,0,0,1-1-.44c-2.14-1.33-11.8-1.71-25.84-1a.46.46,0,0,1-.48-.29c-3.5-7.44-6-13.92-6.07-14a.52.52,0,0,1,.1-.53.5.5,0,0,1,.52-.13c.16,0,15.87,5,27.74,9.75a.46.46,0,0,1,.15.09c6,5.48,5.61,6,5.37,6.33A.56.56,0,0,1,153.14,105.33Zm-14.52-2.81c5.48,0,10.67.27,13.14,1.12-.86-.94-2.28-2.36-4.15-4.07-10.08-4-22.92-8.19-26.57-9.36.82,2,2.88,7,5.5,12.64C130,102.68,134.39,102.52,138.62,102.52Z" style="fill:#263238"></path><path d="M184.68,104.1s46.59-1.38,51.87-3,24.1-8,24.1-6.42-3.44,9.87-9.64,14.91-11.94,6.89-25.48,6.66S186.74,106.16,184.68,104.1Z" style="fill:#263238"></path><path d="M227.8,116.78l-2.28,0c-13.33-.22-38.89-10-41.2-12.31a.51.51,0,0,1-.11-.54.5.5,0,0,1,.45-.31c.47,0,46.59-1.4,51.74-3,1-.3,2.51-.79,4.28-1.35,14.31-4.6,19.22-5.85,20.18-5.15a.7.7,0,0,1,.29.56c0,1.81-3.48,10.14-9.82,15.3S239.38,116.78,227.8,116.78Zm-41.52-12.23c5.57,3,26.91,11,39.26,11.21,12.86.22,18.73-1.31,25.15-6.54,5.75-4.68,9.15-12.35,9.44-14.3-2-.22-13.5,3.5-19.14,5.31-1.78.57-3.28,1-4.3,1.36C231.91,103.05,194.62,104.29,186.28,104.55Z" style="fill:#263238"></path><path d="M219.11,44.42s5.73-9.41,15.37-7.35,28.92,2.76,30.07,6.2,6.2,21.58,4.59,30.53-8.72,17-8.72,17S258.12,77.7,241.37,74,219.33,48.78,219.11,44.42Z" style="fill:#C53F3F"></path><path d="M260.42,91.28a.36.36,0,0,1-.14,0,.48.48,0,0,1-.35-.39c0-.13-2.46-12.8-18.67-16.35-17.39-3.81-22.45-26.13-22.65-30.07a.5.5,0,0,1,.07-.29c.06-.1,6-9.69,15.91-7.57,3.25.69,7.71,1.24,12,1.78,10.93,1.35,17.62,2.34,18.42,4.74,1.08,3.25,6.24,21.68,4.6,30.78s-8.54,16.89-8.84,17.23A.51.51,0,0,1,260.42,91.28Zm-40.8-46.73c.32,4.23,5.29,25.36,21.86,29,14.18,3.11,18.23,13,19.18,16.17,1.75-2.17,6.7-8.83,8-16,1.6-8.89-3.5-27.07-4.57-30.28-.66-2-10-3.14-17.59-4.07-4.33-.54-8.82-1.09-12.11-1.8C225.8,35.73,220.34,43.45,219.62,44.55Z" style="fill:#263238"></path><path d="M143.82,39.6s-14-2.3-20-2.76-11.47-.68-11.25,3,8.73,17.9,9.64,18.13,15.61,1.61,19.29-2.06S143.82,39.6,143.82,39.6Z" style="fill:#C53F3F"></path><path d="M129.61,58.89a56.86,56.86,0,0,1-7.49-.44c-1.44-.36-9.8-15.14-10-18.59a2.88,2.88,0,0,1,.82-2.34c1.76-1.73,6-1.56,11-1.17,5.92.45,19.87,2.73,20,2.76a.5.5,0,0,1,.42.43c.05.53,1.36,12.91-2.44,16.71C139.75,58.37,134.27,58.89,129.61,58.89Zm-10.83-21.8c-2.37,0-4.26.27-5.15,1.15a1.92,1.92,0,0,0-.53,1.56c.21,3.36,8.22,16.93,9.35,17.71,1.15.27,15.38,1.38,18.72-2,3.12-3.11,2.38-13.4,2.19-15.51-2.28-.37-14.22-2.28-19.55-2.69C122,37.21,120.31,37.09,118.78,37.09Z" style="fill:#263238"></path><path d="M140.84,49.7A159.6,159.6,0,0,0,122.93,52c-9.87,1.84-17.67-4.13-17.9,2.3S111.46,86.88,120,91.93,138,99.6,145.2,102a82.56,82.56,0,0,1,12.62,5.51s-9.18-14.92-9.18-25.48.69-23.87.46-25.71S146.8,49,140.84,49.7Z" style="fill:#C53F3F"></path><path d="M157.82,108a.42.42,0,0,1-.24-.07A84,84,0,0,0,145,102.5c-1.28-.43-2.62-.87-4-1.32-6.37-2.07-14.29-4.64-21.32-8.82C111,87.18,104.29,61,104.53,54.27a3.59,3.59,0,0,1,1.12-2.84c1.3-1.08,3.55-.72,6.4-.25a30.63,30.63,0,0,0,10.79.32,161.09,161.09,0,0,1,17.95-2.3c5.9-.67,8.48,4.49,8.81,7.09.11.94,0,4.46-.13,9.33s-.33,11-.33,16.44c0,10.3,9,25.07,9.11,25.22a.5.5,0,0,1-.07.61A.49.49,0,0,1,157.82,108ZM108.15,51.72a2.9,2.9,0,0,0-1.87.48,2.72,2.72,0,0,0-.75,2.11c-.23,6.43,6.41,32.28,14.68,37.19,6.93,4.12,14.46,6.57,21.11,8.73,1.41.45,2.76.89,4,1.33a86.64,86.64,0,0,1,11.14,4.71c-2.34-4.09-8.36-15.5-8.36-24.21,0-5.41.18-11.54.33-16.47.13-4.65.24-8.31.13-9.17-.18-1.48-2-6.88-7.71-6.23h0A158.68,158.68,0,0,0,123,52.49a31.52,31.52,0,0,1-11.13-.33A26.51,26.51,0,0,0,108.15,51.72Zm32.69-2h0Z" style="fill:#263238"></path><path d="M135.62,48.75S131,56.29,131,62.38s.58,11.6.58,11.6-4.64,11.31-.29,18,15.95,7.83,15.95,7.83-6.09-16.24-4.93-22a103.82,103.82,0,0,1,2.9-11l-4.35-17S137.36,42.37,135.62,48.75Z" style="fill:#263238"></path><path d="M147.23,100.29h0c-.49-.05-11.89-1.26-16.33-8.06-4.25-6.52-.31-17,.2-18.32-.08-.86-.57-6-.57-11.53,0-5.94,4.2-13,4.68-13.83.52-1.87,1.25-2.82,2.24-2.9,1.91-.17,3.57,3.16,3.89,3.83l4.39,17.13a.53.53,0,0,1,0,.28,102.52,102.52,0,0,0-2.89,11c-1.11,5.59,4.85,21.61,4.91,21.77a.49.49,0,0,1-.46.67Zm-9.69-53.65h0c-.51,0-1,.84-1.38,2.24l-.06.13c-.05.08-4.57,7.49-4.57,13.37s.58,11.49.58,11.55a.5.5,0,0,1,0,.24c-.05.11-4.49,11.15-.34,17.52,3.52,5.39,12.11,7.09,14.78,7.5-1.21-3.36-5.71-16.33-4.67-21.54a107.91,107.91,0,0,1,2.87-10.94l-4.32-16.89C139.73,48.53,138.43,46.64,137.54,46.64Zm-1.92,2.11h0Z" style="fill:#263238"></path><path d="M197.53,32.71S183.07,17.56,177.1,18.25,156.67,31.8,156.22,35s23.87,5.05,28,4.13S197.53,32.71,197.53,32.71Z" style="fill:#C53F3F"></path><path d="M180.57,39.85c-7.3,0-21.72-1.29-24.35-3.73a1.32,1.32,0,0,1-.5-1.18c.49-3.44,15.05-16.46,21.32-17.18s20.25,14,20.85,14.61a.49.49,0,0,1,.14.41.53.53,0,0,1-.24.36c-.38.23-9.3,5.56-13.46,6.49A21.41,21.41,0,0,1,180.57,39.85Zm-3-21.12-.38,0c-5.69.66-20,13.35-20.45,16.33,0,.1.11.24.19.31,2.79,2.58,23.63,4.06,27.21,3.26,3.43-.76,10.59-4.86,12.62-6C194.33,30.17,182.82,18.73,177.54,18.73Z" style="fill:#263238"></path><path d="M170.68,38s12.16-10.33,17.44-12.85S207.4,21.93,211.07,24s13.31,12.17,14.23,15.84S227.37,49,227.37,49s-24.56,5.51-31.22,2.75S170.68,38,170.68,38Z" style="fill:#C53F3F"></path><path d="M202,53a17.27,17.27,0,0,1-6-.8c-6.61-2.74-25.35-13.7-25.54-13.81a.47.47,0,0,1-.24-.38.5.5,0,0,1,.17-.43c.5-.42,12.28-10.4,17.55-12.92s19.62-3.27,23.42-1.13,13.49,12.24,14.47,16.15c.91,3.64,2.06,9.14,2.07,9.2a.51.51,0,0,1-.38.59C226.68,49.68,211.58,53,202,53ZM171.54,37.92c3.29,1.91,18.93,10.95,24.8,13.38s27-1.93,30.44-2.67c-.3-1.43-1.22-5.69-2-8.68-.89-3.54-10.58-13.6-14-15.52s-17.41-1.27-22.5,1.16C183.8,27.76,174,35.9,171.54,37.92Z" style="fill:#263238"></path><path d="M140,70.29s-4.48-11-4.71-13.25-2.53-16.52,8.72-22,31.9-.69,32.59,2.06-.23,42.7,3,49.35,8.72,13.09,5.73,15.61-15.37,1.84-22.72-.92-22.72-28.92-22.72-28.92Z" style="fill:#C53F3F"></path><path d="M177.59,104.09a47.31,47.31,0,0,1-15.12-2.51c-7.43-2.78-22.35-28.06-23-29.13a.5.5,0,0,1-.07-.29l.11-1.79c-.49-1.2-4.47-11-4.7-13.28l-.05-.44c-1.59-13.81,4-19.64,9.05-22.09,9.43-4.62,25.46-2.07,31.06.53,1.35.62,2.08,1.23,2.24,1.86.22.88.27,4.55.36,11.51.16,12.45.43,33.28,2.59,37.75.89,1.85,2,3.67,3,5.44,2.73,4.66,5.08,8.68,2.62,10.76C184.31,103.58,181.23,104.09,177.59,104.09Zm-37.16-32c1.19,2,15.55,26,22.39,28.57,7.43,2.79,19.47,3.33,22.22,1,1.83-1.54-.33-5.23-2.83-9.49-1-1.79-2.12-3.63-3-5.52-2.26-4.67-2.52-24.83-2.69-38.17-.07-5.62-.13-10.47-.33-11.27,0-.05-.16-.5-1.69-1.21-5.45-2.53-21.05-5-30.2-.53-4.72,2.31-10,7.84-8.5,21.07l.06.46c.17,1.76,3.13,9.35,4.67,13.11a.57.57,0,0,1,0,.22Z" style="fill:#263238"></path><path d="M140.33,93.34s7.24,16.11,16.58,21.25,11.68,12.15,36.9,12.38,32-7,32-7-36.9-2.8-57.92-11.91S140.33,93.34,140.33,93.34Z" style="fill:#263238"></path><path d="M195,127.48h-1.2c-19.6-.18-25.66-4.54-31.51-8.75a53.81,53.81,0,0,0-5.63-3.69c-9.38-5.16-16.5-20.82-16.8-21.49a.5.5,0,0,1,.78-.58c.07.05,6.77,5.68,27.44,14.63s57.39,11.85,57.76,11.88a.49.49,0,0,1,.43.31.51.51,0,0,1-.1.53C225.9,120.6,219.18,127.48,195,127.48ZM141.68,95c2.2,4.36,8.24,15.21,15.47,19.18a55.79,55.79,0,0,1,5.73,3.76c6,4.31,11.65,8.38,30.94,8.56,19.8.19,28.16-4.31,30.71-6.11-6.62-.59-38.15-3.75-56.84-11.85C152.34,101.86,144.73,97.11,141.68,95Z" style="fill:#263238"></path><path d="M140,70.29s14.28,21.57,20.44,24.93,46.5,14.29,57.71,16,20.16.84,18.76,3.08-9,7.28-20.72,7.56-35.3-.56-46.78-7-10.09-7-17.09-10.37-16.52-10.92-19.05-20.72S140,70.29,140,70.29Z" style="fill:#C53F3F"></path><path d="M212.4,122.37c-9.73,0-31.85-.74-43.2-7.11a107.32,107.32,0,0,1-10.3-6.39,40.67,40.67,0,0,0-6.75-4c-7.32-3.51-16.77-11.13-19.32-21-2.6-10.11,6.93-14,7-14a.52.52,0,0,1,.6.19c.15.22,14.29,21.51,20.27,24.77,6.14,3.35,46.49,14.25,57.54,15.91,4.28.64,8.24.92,11.42,1.14,5.17.35,7.29.54,7.81,1.56a1.12,1.12,0,0,1-.11,1.14c-1.62,2.58-9.47,7.52-21.14,7.8C215.42,122.35,214.1,122.37,212.4,122.37ZM139.85,70.92c-1.66.78-8.18,4.43-6,12.69,2.31,9,11.09,16.71,18.78,20.4a41.83,41.83,0,0,1,6.89,4,106.15,106.15,0,0,0,10.22,6.34c13.1,7.35,41.05,7.07,46.52,6.94,12-.29,19.21-5.55,20.32-7.33a.36.36,0,0,0,.07-.16c-.25-.55-3.83-.8-7-1s-7.17-.49-11.5-1.14C207,110,166.43,99,160.25,95.66,154.41,92.47,141.79,73.82,139.85,70.92Z" style="fill:#263238"></path><path d="M173.93,99.42s35.85.56,45.66-1.4S235,85.42,235,78.41a37.61,37.61,0,0,1,2.24-12.6s11.49-1.4,17.37,2.8,11.49,20.73,9.24,24.09-10.08,10.36-24.08,13.72-20.17,2.52-28.58,1.68S173.93,99.42,173.93,99.42Z" style="fill:#C53F3F"></path><path d="M222,109.36a93.57,93.57,0,0,1-9.8-.65l-1.09-.11c-8.34-.83-36.15-8.38-37.33-8.7a.49.49,0,0,1-.36-.55.47.47,0,0,1,.5-.43c.36,0,35.91.54,45.55-1.39s15-12.53,15-19.12a37.76,37.76,0,0,1,2.28-12.79.49.49,0,0,1,.4-.31c.48-.06,11.75-1.37,17.72,2.89S266.63,89.42,264.26,93c-2.22,3.32-10.17,10.52-24.39,13.93A74.5,74.5,0,0,1,222,109.36ZM177.91,100c8.14,2.15,26.89,7,33.32,7.64l1.09.11c7.82.79,14,1.41,27.32-1.78,13.91-3.34,21.65-10.3,23.79-13.52,1.95-2.92-3.14-19.13-9.12-23.4-5.13-3.67-14.88-2.92-16.72-2.75a38.13,38.13,0,0,0-2.1,12.14c0,6.93-5.63,18.07-15.8,20.1C211.78,100.09,187.57,100.05,177.91,100Z" style="fill:#263238"></path><path d="M219.59,98s4.2-.56,14-4.76a46.68,46.68,0,0,1,19.89-3.36" style="fill:#C53F3F"></path><path d="M219.59,98.52a.51.51,0,0,1-.5-.43.51.51,0,0,1,.43-.57s4.28-.61,13.88-4.72a47.59,47.59,0,0,1,20.12-3.4.5.5,0,0,1-.08,1,46.5,46.5,0,0,0-19.65,3.32c-9.75,4.18-14,4.77-14.14,4.8Z" style="fill:#263238"></path><path d="M157.12,68.61a167.1,167.1,0,0,0,7,20.73c3.92,9,9.24,10.64,14.84,10.64s18.77-.56,18.77-.56S183.73,76.45,157.12,68.61Z" style="fill:#C53F3F"></path><path d="M179,100.48c-5.2,0-11.08-1.3-15.3-10.94a170.6,170.6,0,0,1-7-20.8.5.5,0,0,1,.62-.61c26.49,7.81,40.76,30.8,40.91,31a.52.52,0,0,1,0,.5.51.51,0,0,1-.42.26C197.63,99.93,184.52,100.48,179,100.48ZM157.84,69.35a163.57,163.57,0,0,0,6.74,19.79c4,9.09,9.27,10.34,14.39,10.34,4.69,0,14.83-.4,17.87-.52C194.22,95.05,180.78,76.47,157.84,69.35Z" style="fill:#263238"></path><path d="M157.12,68.61s1.31,5,3.31,11c9.24,3.63,28.53,11.81,37.31,19.86C197.74,99.42,183.73,76.45,157.12,68.61Z" style="fill:#263238"></path><path d="M197.74,99.92a.5.5,0,0,1-.34-.13c-8.87-8.14-28.94-16.53-37.16-19.77a.48.48,0,0,1-.29-.3c-2-5.91-3.3-10.93-3.31-11a.5.5,0,0,1,.62-.61c26.49,7.81,40.76,30.8,40.91,31a.51.51,0,0,1-.11.65A.56.56,0,0,1,197.74,99.92ZM160.83,79.18c9.29,3.66,25.07,10.44,34.41,17.52-4.74-6.36-17.5-21.17-37.4-27.35C158.29,71,159.38,74.83,160.83,79.18Z" style="fill:#263238"></path><path d="M197.74,99.42s-11.49-13.16-24.37-21S154,65.81,148.44,63.29s-11.76-5.89-5.88-10.37,19.33-.56,19.33-.56.56.84,11.48,12.61S197.74,99.42,197.74,99.42Z" style="fill:#C53F3F"></path><path d="M197.74,99.92a.52.52,0,0,1-.38-.17c-.11-.13-11.58-13.2-24.25-20.91-4.88-3-8.75-5.44-12.17-7.63-5.37-3.43-9.26-5.91-12.7-7.47-4.25-1.91-8.23-4.06-8.55-6.86-.17-1.47.7-2.93,2.56-4.35,6-4.59,19.22-.81,19.78-.65a.51.51,0,0,1,.27.21s.92,1.21,11.44,12.54C184.57,76.3,198,98.94,198.17,99.17a.5.5,0,0,1-.14.66A.52.52,0,0,1,197.74,99.92Zm-46.8-48.64c-3,0-6.05.49-8.08,2-1.57,1.2-2.3,2.35-2.17,3.44.26,2.31,4.17,4.37,8,6.07,3.51,1.58,7.42,4.08,12.83,7.54,3.41,2.18,7.28,4.65,12.15,7.62,8.66,5.26,16.75,13,21.12,17.49-4.43-7.12-13.81-21.63-21.75-30.17-8.93-9.63-10.95-12-11.41-12.51A44.66,44.66,0,0,0,150.94,51.28Z" style="fill:#263238"></path><path d="M173.2,33.86s4.59-2.75,7.8-2.29,18.37,11.24,21.35,14.23-8.95.46-15.15,9.64-7.34,18.13-7.34,21.11v3l-5.05-2.76s-3.68-3.9-4.82-17.67A63.89,63.89,0,0,1,173.2,33.86Z" style="fill:#C53F3F"></path><path d="M179.86,80a.48.48,0,0,1-.24-.06l-5.05-2.76a.6.6,0,0,1-.13-.09c-.15-.17-3.8-4.19-4.95-18a65,65,0,0,1,3.24-25.47.57.57,0,0,1,.21-.25c.2-.11,4.79-2.84,8.13-2.36s18.56,11.3,21.63,14.37a1.49,1.49,0,0,1,.58,1.41c-.22.8-1.35,1.07-3.22,1.51-3.33.78-8.89,2.09-12.44,7.36-7.18,10.63-7.26,20.42-7.26,20.83v3a.52.52,0,0,1-.25.43A.59.59,0,0,1,179.86,80Zm-4.73-3.65,4.23,2.3V76.55c0-3.86,1.56-12.7,7.43-21.39,3.77-5.6,9.57-7,13-7.78a7.38,7.38,0,0,0,2.49-.81,1.36,1.36,0,0,0-.32-.42c-2.95-2.94-18-13.65-21.07-14.09-2.68-.38-6.52,1.69-7.32,2.14a64.13,64.13,0,0,0-3.13,24.87C171.53,71.6,174.71,75.87,175.13,76.39Z" style="fill:#263238"></path><path d="M167.23,72.42s-5.18-12.8-5.34-20.06,11.31-18.5,11.31-18.5-4.82,20-2.52,28.92,4.13,14,4.13,14S170.9,76.55,167.23,72.42Z" style="fill:#C53F3F"></path><path d="M174.81,77.28h0c-.17,0-4.15-.29-7.92-4.53a.42.42,0,0,1-.09-.14c-.21-.53-5.22-13-5.38-20.24s11-18.4,11.46-18.87a.51.51,0,0,1,.6-.07.5.5,0,0,1,.24.55c-.05.2-4.77,20-2.53,28.68s4.1,13.9,4.12,14a.52.52,0,0,1-.07.47A.51.51,0,0,1,174.81,77.28Zm-7.15-5.13a12.46,12.46,0,0,0,6.4,4c-.6-1.76-2.11-6.38-3.87-13.24-1.92-7.51,1-22.31,2.12-27.41-2.93,3.12-10.05,11.3-9.92,16.85C162.54,59.14,167.23,71.06,167.66,72.15Z" style="fill:#263238"></path><path d="M193.63,92.16s6.19-6.66,17.67-13.31,25.94-15.38,27.31-16.76a5.62,5.62,0,0,1,2.53-1.6s-5.28,16.06-5.74,22.72-8.06,13.65-11.93,14.23-24.14,2.13-25.73,2S193.63,92.16,193.63,92.16Z" style="fill:#C53F3F"></path><path d="M198.05,99.93h-.36c-1.76-.16-3.92-5.85-4.53-7.59a.48.48,0,0,1,.1-.51,83.73,83.73,0,0,1,17.79-13.4c12.11-7,25.94-15.41,27.21-16.68A6,6,0,0,1,241,60a.48.48,0,0,1,.47.15.49.49,0,0,1,.1.49c-.05.16-5.26,16.09-5.71,22.6-.46,6.69-8.05,14.05-12.36,14.69C219.84,98.49,201.23,99.93,198.05,99.93Zm-3.85-7.65c1.3,3.57,2.92,6.58,3.58,6.64,1.6.15,21.93-1.42,25.61-2,3.52-.53,11.06-7.24,11.51-13.78.4-5.73,4.24-18.08,5.43-21.79A6.19,6.19,0,0,0,239,62.45c-1.52,1.51-17.26,10.94-27.42,16.83A85.86,85.86,0,0,0,194.2,92.28Z" style="fill:#263238"></path><path d="M187.2,55.44a12.61,12.61,0,0,1,4.48-9.11c2.69-2.25,6.33-4.76,10-5.58,7.12-1.61,18.13-3.91,20.2-2.76s2.29,19.51,2.29,19.51-20.88-7.34-26.39-6.88-10.56,4.82-10.56,4.82Z" style="fill:#C53F3F"></path><path d="M224.15,58a.45.45,0,0,1-.16,0c-.21-.07-20.85-7.3-26.19-6.86s-10.22,4.66-10.27,4.7a.5.5,0,0,1-.83-.4A13.17,13.17,0,0,1,191.36,46c2.53-2.12,6.35-4.82,10.19-5.69,16.2-3.66,19.49-3.3,20.55-2.7,2.15,1.19,2.5,15.56,2.55,19.94a.48.48,0,0,1-.2.41A.53.53,0,0,1,224.15,58Zm-25.86-7.9c5.66,0,21.79,5.46,25.35,6.7-.14-8.51-.93-17.77-2-18.37s-5.22-.5-19.85,2.8c-3.65.83-7.33,3.44-9.77,5.49a12.09,12.09,0,0,0-4.19,7.6c1.73-1.29,5.65-3.85,9.91-4.2A5.06,5.06,0,0,1,198.29,50.1Z" style="fill:#263238"></path><path d="M187.2,55.44a24.83,24.83,0,0,1,9.89-5.86c6.33-2,25.78,1.35,32.12,6.33s1.35,10.18.45,12.89-13.57,14.48-16.51,15.38-7.46,1.36-11.08-.23-11.76-8.59-12.22-9.72-5-12.44-5-13.8S187.2,55.44,187.2,55.44Z" style="fill:#C53F3F"></path><path d="M207.6,85.5a14.25,14.25,0,0,1-5.73-1.09c-3.61-1.57-12-8.66-12.48-10-1.88-4.68-5-12.72-5-14,0-1.46,2.15-4.88,2.4-5.26l.05-.07a25.22,25.22,0,0,1,10.11-6c6.42-2.07,26,1.24,32.58,6.42,5.41,4.25,3,8.7,1.47,11.64a14,14,0,0,0-.86,1.8c-.95,2.85-13.69,14.73-16.83,15.7A19.94,19.94,0,0,1,207.6,85.5Zm-20-29.75c-.87,1.37-2.22,3.81-2.22,4.68s2,6.22,4.93,13.6c.39.92,8.35,7.89,12,9.47s7.82,1.1,10.73.2,15.34-12.54,16.18-15.06a15.74,15.74,0,0,1,.93-2c1.58-3,3.54-6.65-1.21-10.39-6.26-4.91-25.56-8.21-31.66-6.25A24.74,24.74,0,0,0,187.6,55.75Z" style="fill:#263238"></path><path d="M241.14,60.49s.92-6.66,0-10.56-.92-5.28-6-5.28-26.16.23-28.23,1.15S199.37,49,199.37,49s24.1,6.2,27.77,10.79a10.91,10.91,0,0,1,2.52,9Z" style="fill:#C53F3F"></path><path d="M229.66,69.3a.47.47,0,0,1-.28-.09.48.48,0,0,1-.21-.53,10.47,10.47,0,0,0-2.42-8.57c-3.53-4.41-27.27-10.55-27.51-10.62a.48.48,0,0,1-.37-.44.5.5,0,0,1,.3-.5c.06,0,5.53-2.3,7.57-3.21,2.48-1.1,28.17-1.19,28.43-1.19,5.15,0,5.51,1.57,6.3,5l.16.66c.93,3.95,0,10.47,0,10.74a.47.47,0,0,1-.2.34L230,69.21A.52.52,0,0,1,229.66,69.3ZM200.92,48.9c5.3,1.43,23.36,6.52,26.61,10.58a11.92,11.92,0,0,1,2.78,8.23l10.36-7.5c.14-1.16.78-6.78,0-10.17l-.15-.66c-.77-3.34-1-4.23-5.33-4.23-7.52,0-26.26.32-28,1.1C205.73,46.88,202.69,48.16,200.92,48.9Zm40.22,11.59h0Z" style="fill:#263238"></path><path d="M179.63,54.75s.23,5.51,1.37,7.8,5.05,4.36,5.05,4.36-1.37-4.59.23-6.42,7.12-5.05,7.12-5.05S181.23,53.6,179.63,54.75Z" style="fill:#C53F3F"></path><path d="M186.05,67.41a.46.46,0,0,1-.23-.06c-.17-.08-4.06-2.16-5.26-4.57s-1.42-7.78-1.43-8a.49.49,0,0,1,.21-.43c1.68-1.2,12.07.29,14.13.6a.5.5,0,0,1,.42.4.51.51,0,0,1-.24.53c-.05,0-5.46,3.19-7,5-1.17,1.33-.49,4.75-.13,5.95a.49.49,0,0,1-.16.53A.52.52,0,0,1,186.05,67.41Zm-5.91-12.36c.07,1.2.38,5.41,1.31,7.28.72,1.43,2.65,2.8,3.84,3.55-.31-1.56-.63-4.3.62-5.72a33.57,33.57,0,0,1,6-4.43C187.37,55.1,181.58,54.57,180.14,55.05Z" style="fill:#263238"></path><path d="M179.63,54.75S176,61.86,176,66.68s3.68,13.32,5.51,15.38,13.32,14.69,14.46,15.15S222.56,77,222.56,77a236.05,236.05,0,0,1-25.27-3c-5.3-.92-11.24-7.13-11.24-7.13L181,62.55Z" style="fill:#C53F3F"></path><path d="M195.83,97.69l-.09,0c-1.43-.57-14.52-15.13-14.65-15.28-1.86-2.08-5.64-10.67-5.64-15.71,0-4.88,3.58-11.87,3.73-12.16a.51.51,0,0,1,.52-.27.52.52,0,0,1,.42.41l1.35,7.63,4.91,4.24c.09.1,5.92,6.14,11,7a236,236,0,0,0,25.22,3,.51.51,0,0,1,.45.35.51.51,0,0,1-.16.54C206.26,90.87,197.16,97.69,195.83,97.69Zm.29-.94h0Zm-.19,0ZM179.4,56.37c-1,2.29-3,6.93-3,10.31,0,4.74,3.66,13.11,5.39,15,3.07,3.45,12.73,14,14.18,15C197.88,96,212,84.92,221.25,77.43c-3.39-.23-13.08-1-24.05-2.9-5.4-.94-11.26-7-11.51-7.27l-5-4.33a.51.51,0,0,1-.17-.29Z" style="fill:#263238"></path><path d="M193.4,55.44A36.73,36.73,0,0,1,201,54.29c3.22,0,12.4,1.61,16.53,5.74s3.21,6.19,2.52,8.72,1,7.82-1.28,8-26.26-3.23-26.26-3.23l-6.43-6.66a5,5,0,0,1,.23-6.42A18.38,18.38,0,0,1,193.4,55.44Z" style="fill:#C53F3F"></path><path d="M218.48,77.31c-3.56,0-25.12-3.11-26.07-3.25a.47.47,0,0,1-.29-.14l-6.43-6.66a5.57,5.57,0,0,1,.2-7.09,18.71,18.71,0,0,1,7.34-5.2l0,0a37.46,37.46,0,0,1,7.7-1.16c2.82,0,12.45,1.45,16.88,5.88,4.09,4.09,3.46,6.36,2.78,8.77l-.12.44a12.31,12.31,0,0,0-.09,3.44c.14,2.35.28,4.78-1.63,5ZM192.72,73.1c8.32,1.2,24.21,3.37,26,3.2.89-.09.86-1.68.73-3.92a12.78,12.78,0,0,1,.12-3.76l.13-.46c.64-2.29,1.15-4.1-2.52-7.78-4-4-13.06-5.59-16.18-5.59a36.61,36.61,0,0,0-7.42,1.12,18.12,18.12,0,0,0-6.88,4.89,4.49,4.49,0,0,0-.23,5.79Z" style="fill:#263238"></path><path d="M196.48,69.07a3.42,3.42,0,0,1-.65-.06,4.15,4.15,0,0,1-1.24-.5c-3.07-1.74-8.44-7.44-8.67-7.68a.5.5,0,0,1,.73-.69c0,.06,5.49,5.84,8.43,7.5A3.21,3.21,0,0,0,196,68c1.3.23,3.68-.62,5.54-2,1.17-.85,1.63-1.56,1.68-1.94,0-.14-.11-.36-.36-.6-1.57-1.5-6.45-2.89-7.32-2.75a2.67,2.67,0,0,0-1.78.88,1.54,1.54,0,0,0-.12,1.26c.35,1.39,1.26,1.45,1.36,1.46a.5.5,0,0,1,0,1,2.56,2.56,0,0,1-2.32-2.22,2.49,2.49,0,0,1,.26-2.05,3.42,3.42,0,0,1,2.44-1.32c1.34-.23,6.51,1.42,8.18,3a1.72,1.72,0,0,1,.66,1.44c-.12,1-1.2,2-2.07,2.63A11,11,0,0,1,196.48,69.07Z" style="fill:#263238"></path><path d="M207.84,76.31a.5.5,0,0,1-.35-.86s4.06-4,4.93-8c.5-2.24.3-4-.59-5.25s-2.67-2.12-5.18-2.41a29.11,29.11,0,0,0-9.64.32.5.5,0,0,1-.61-.35.49.49,0,0,1,.35-.61,29.1,29.1,0,0,1,10-.35c2.8.33,4.78,1.27,5.88,2.82s1.31,3.52.75,6c-.94,4.23-5,8.28-5.21,8.45A.49.49,0,0,1,207.84,76.31Z" style="fill:#263238"></path><path d="M190,155.05s-5.28-2.06-3.91-6.43,37.08-26.25,50.9-34.35S263.17,94,262.49,91s-2.3-4.13-1.15-7.34,4.59-6.43,6.65-7.58,12.17,4.82,18.37,9.18,10.33,3,7.34,9.42-12.16,15.14-14.92,15.37-6.2-3.67-6.65-3,.45,3.67-1.84,5S251.24,122,246,125s-29.61,20.66-31.67,21.35-6.43-.69-8.27.46S194.09,143.8,190,155.05Z" style="fill:#C53F3F"></path><path d="M190,155.55a.58.58,0,0,1-.19,0c-2-.78-5.39-3.24-4.19-7.05,1.73-5.48,50.63-34.35,51.12-34.63,14.72-8.63,25.84-20.37,25.3-22.71a15.07,15.07,0,0,0-.79-2.33,6.34,6.34,0,0,1-.34-5.3c1.22-3.42,4.83-6.7,6.88-7.84,2.67-1.48,14.54,6.14,18.89,9.21a31.84,31.84,0,0,0,4.79,2.69c3.14,1.48,5,2.38,2.72,7.34-3,6.46-12.22,15.4-15.33,15.66-1.82.15-3.77-1.22-5.19-2.22a11.5,11.5,0,0,0-1.14-.75c0,.19,0,.45,0,.67,0,1.2-.09,3.2-1.91,4.3-1.09.65-5.24,2.81-10.05,5.31-5.38,2.79-11.49,6-14.29,7.55-2.57,1.45-9.7,6.42-16.6,11.22-8.74,6.09-14.12,9.81-15.17,10.16a10.81,10.81,0,0,1-3.92.12c-1.65-.12-3.36-.25-4.23.29a5.71,5.71,0,0,1-2.94.27c-3.71-.14-9.94-.39-12.93,7.74a.5.5,0,0,1-.26.29A.45.45,0,0,1,190,155.55Zm78.76-79.11a1,1,0,0,0-.48.09c-2,1.11-5.35,4.27-6.43,7.31a5.42,5.42,0,0,0,.32,4.58A14.6,14.6,0,0,1,263,90.9c.83,3.58-12.9,16.26-25.76,23.8-19.76,11.58-49.52,30.42-50.68,34.07-1,3.18,2,5,3.15,5.61,3.31-8.31,10.06-8,13.71-7.9a6.29,6.29,0,0,0,2.37-.12c1.15-.72,3-.57,4.84-.43a10.58,10.58,0,0,0,3.53-.08c1-.32,8.38-5.48,14.91-10,6.92-4.82,14.07-9.8,16.67-11.27,2.83-1.6,8.94-4.77,14.33-7.57,4.59-2.39,8.93-4.64,10-5.28,1.36-.81,1.4-2.28,1.43-3.47a2.87,2.87,0,0,1,.25-1.43.71.71,0,0,1,.44-.29c.48-.08,1,.25,2.05,1,1.3.91,3.11,2.16,4.54,2,2.51-.21,11.56-8.74,14.51-15.09,1.88-4.06.93-4.52-2.24-6a31.45,31.45,0,0,1-4.94-2.78C278.66,80.47,271,76.44,268.72,76.44Z" style="fill:#263238"></path><path d="M203.36,74.77l-.17,0a.49.49,0,0,1-.3-.63l1.07-3c1-2.78-.58-6.35-.6-6.39a.5.5,0,0,1,.26-.66.51.51,0,0,1,.66.25c.07.16,1.75,4,.62,7.14l-1.07,3A.48.48,0,0,1,203.36,74.77Z" style="fill:#263238"></path></g></svg>
