<svg xmlns="http://www.w3.org/2000/svg" viewBox="0 0 500 500"><g id="freepik--background-complete--inject-185"><path d="M452.77,435.31v38.8H285.92a19.39,19.39,0,0,1-19.4-19.4h0a19.4,19.4,0,0,1,19.4-19.4" style="fill:#e0e0e0"></path><path d="M389.83,443.44h62.93a0,0,0,0,1,0,0V466a0,0,0,0,1,0,0H389.83a3.28,3.28,0,0,1-3.28-3.28v-16A3.28,3.28,0,0,1,389.83,443.44Z" style="fill:#ebebeb"></path><path d="M452.77,397.53v38.8H285.92a19.39,19.39,0,0,1-19.4-19.4h0a19.4,19.4,0,0,1,19.4-19.4Z" style="fill:#f5f5f5"></path><path d="M389.83,405.66h62.93a0,0,0,0,1,0,0V428.2a0,0,0,0,1,0,0H389.83a3.28,3.28,0,0,1-3.28-3.28v-16A3.28,3.28,0,0,1,389.83,405.66Z" style="fill:#ebebeb"></path><polygon points="332.27 335.29 305.77 397.53 322.82 397.53 334.6 364.29 332.27 335.29" style="fill:#e0e0e0"></polygon><polygon points="413.64 278.96 423.87 397.53 337.26 397.53 327.75 278.96 413.64 278.96" style="fill:#ebebeb"></polygon><polygon points="405.18 288.37 414.14 387.68 349.13 388.53 340.35 287.79 405.18 288.37" style="fill:#fafafa"></polygon><polygon points="391.38 302.12 396.48 370.45 361.8 370.45 355.69 302.12 391.38 302.12" style="fill:#e0e0e0"></polygon><path d="M84.36,475.21s-21.59-105.47,0-164.08h23.9s18.35,61.81,0,164.08Z" style="fill:#e0e0e0"></path><path d="M102,256.38a45.55,45.55,0,0,1,38.86-22.57c-7.16,14.93-23.81,24.75-40.34,23.8" style="fill:#e0e0e0"></path><path d="M108,212.41a45.52,45.52,0,0,1-11-43.56c12.38,11,17.25,29.7,11.78,45.33" style="fill:#e0e0e0"></path><path d="M86.36,213c-13-5.17-22.72-17.53-24.46-31.18,14.09,4.5,24.71,17.84,25.73,32.33" style="fill:#e0e0e0"></path><path d="M80.45,166.2a29,29,0,0,1,8.68-27.57,27.47,27.47,0,0,1-8.86,28.8" style="fill:#e0e0e0"></path><path d="M97.09,297.55A29,29,0,0,1,113.89,274c-.26,10.79-7.42,21-17.34,24.64" style="fill:#e0e0e0"></path><path d="M71,122.06s4.32,16.15,9.36,42.69q.93,5,1.93,10.43c.65,3.63,1.21,7.42,1.85,11.34,1.34,7.83,2.42,16.25,3.63,25.09,2.2,17.73,4.11,37.28,5.28,57.86s1.32,40.24,1.07,58.09c-.24,8.93-.39,17.42-.87,25.35-.21,4-.35,7.8-.61,11.47s-.52,7.21-.77,10.58c-2.12,26.93-4.65,43.46-4.65,43.46s0-.27.05-.78.13-1.29.22-2.25c.22-2,.53-4.92.93-8.64q.32-2.82.7-6.24c.2-2.29.43-4.78.67-7.44.46-5.35,1.1-11.42,1.49-18.16.23-3.36.47-6.89.72-10.56s.36-7.51.56-11.47c.44-7.93.58-16.41.79-25.33.21-17.84,0-37.47-1.13-58s-3.06-40.09-5.21-57.8c-1.19-8.84-2.24-17.26-3.55-25.08-.63-3.92-1.17-7.72-1.81-11.34s-1.27-7.11-1.87-10.43c-1.12-6.65-2.42-12.62-3.46-17.88-.53-2.63-1-5.07-1.48-7.32s-1-4.29-1.38-6.14c-.8-3.65-1.43-6.51-1.86-8.49-.2-.94-.36-1.68-.47-2.21S71,122.06,71,122.06Z" style="fill:#e0e0e0"></path><path d="M124.08,160.5a2.18,2.18,0,0,1-.14.57l-.51,1.63-2,6.26q-.68,2-1.48,4.51c-.5,1.66-1,3.47-1.63,5.41-1.15,3.88-2.56,8.28-3.83,13.22-.67,2.46-1.36,5-2.09,7.73s-1.34,5.52-2.06,8.43c-1.48,5.81-2.74,12.1-4.14,18.69-2.59,13.24-5,27.88-6.72,43.34s-2.52,30.3-2.88,43.78c-.07,6.74-.21,13.15,0,19.15.07,3,.06,5.89.18,8.67s.24,5.45.36,8c.16,5.1.58,9.7.85,13.74l.42,5.64c.17,1.72.32,3.3.46,4.72.27,2.8.47,5,.62,6.54.06.72.1,1.28.14,1.71a3.17,3.17,0,0,1,0,.58,2.61,2.61,0,0,1-.11-.57c0-.43-.12-1-.22-1.7-.18-1.54-.44-3.73-.77-6.53-.16-1.42-.34-3-.54-4.72s-.31-3.61-.48-5.63c-.32-4-.78-8.64-1-13.75q-.19-3.82-.41-8c-.14-2.79-.15-5.69-.23-8.69-.21-6-.1-12.42,0-19.18.32-13.5,1.15-28.34,2.82-43.85s4.16-30.15,6.8-43.4c1.42-6.6,2.71-12.89,4.22-18.7.73-2.92,1.37-5.74,2.11-8.43s1.46-5.27,2.14-7.73c1.31-4.94,2.76-9.32,4-13.2q.91-2.9,1.7-5.39t1.55-4.5c.94-2.65,1.67-4.74,2.18-6.2.25-.67.44-1.21.59-1.61A3.51,3.51,0,0,1,124.08,160.5Z" style="fill:#e0e0e0"></path><path d="M120.59,172.42c-5.26-4.41-5.58-12.65-3-19s7.42-11.47,11.48-17,7.49-12.17,6.56-19c-.22-1.61-.68-3.26-.34-4.85s1.93-3.09,3.49-2.61c1.38.43,1.94,2,2.23,3.47a47,47,0,0,1,.79,13.33,18.5,18.5,0,0,1,12-10.83,15.85,15.85,0,0,1-4.29,14.69c3.48-1.45,7.2-2.92,10.89-2.21s7,4.64,5.62,8.13c-1.58,4-7,4.06-11.22,4.82a20.42,20.42,0,0,0-12,7.07c-3.8,4.65-5.34,10.72-8.42,15.87s-9,9.65-14.71,7.79" style="fill:#ebebeb"></path><path d="M75.49,139.86c5.83-3.63,7.3-11.74,5.64-18.4s-5.75-12.4-9-18.45-5.72-13.1-3.84-19.7c.44-1.57,1.14-3.13,1-4.76s-1.48-3.33-3.09-3.07c-1.43.23-2.2,1.76-2.69,3.12a47.25,47.25,0,0,0-2.66,13.09A18.48,18.48,0,0,0,50.52,79.28,15.88,15.88,0,0,0,52.7,94.42c-3.23-1.91-6.71-3.9-10.47-3.71s-7.58,3.61-6.7,7.26c1,4.17,6.37,5,10.43,6.35A20.34,20.34,0,0,1,56.87,113c3.11,5.13,3.78,11.36,6.1,16.89s7.57,10.82,13.48,9.78" style="fill:#ebebeb"></path><path d="M68.64,219.15a7.33,7.33,0,0,1,.59,1l1.55,3.05c.67,1.33,1.47,3,2.33,4.89S75,232.24,76,234.71s2.14,5.14,3.2,8.09,2.19,6.09,3.32,9.42c2.15,6.69,4.26,14.14,6,22.07s3,15.58,3.85,22.56c.38,3.5.77,6.82,1,9.94s.41,6,.51,8.69.13,5.06.16,7.17,0,3.94,0,5.42-.08,2.56-.11,3.42a6.26,6.26,0,0,1-.1,1.19,6.47,6.47,0,0,1-.07-1.19c0-.86,0-2,0-3.42s0-3.3-.1-5.41-.09-4.51-.28-7.15-.3-5.55-.61-8.66-.64-6.42-1-9.9c-.92-7-2.17-14.57-3.9-22.48s-3.85-15.33-6-22c-1.11-3.32-2.13-6.5-3.23-9.41s-2.12-5.65-3.11-8.11-1.94-4.66-2.76-6.61-1.57-3.59-2.2-4.94l-1.4-3.12A5.38,5.38,0,0,1,68.64,219.15Z" style="fill:#e0e0e0"></path><path d="M72.6,234.58c2.9-2.36,3.15-6.84,1.8-10.32s-4-6.31-6.11-9.36-4-6.7-3.41-10.39a7.91,7.91,0,0,0,.23-2.64c-.18-.87-1-1.7-1.88-1.45s-1.07,1.1-1.24,1.87a25.57,25.57,0,0,0-.55,7.25,10.05,10.05,0,0,0-6.45-6,8.66,8.66,0,0,0,2.21,8c-1.88-.82-3.89-1.66-5.91-1.3s-3.85,2.46-3.13,4.38c.83,2.18,3.78,2.27,6.07,2.72a11,11,0,0,1,6.48,4c2,2.56,2.82,5.88,4.45,8.71s4.82,5.33,8,4.37" style="fill:#ebebeb"></path><polygon points="456.96 57 456.96 221.91 243.97 221.91 236.29 58.15 456.96 57" style="fill:#e0e0e0"></polygon><rect x="260.82" y="33.43" width="163.95" height="213" transform="translate(202.86 482.72) rotate(-90)" style="fill:#fff"></rect><path d="M450.1,222.72H235.48V57.14H450.1Zm-213-1.63H448.48V58.77H237.11Z" style="fill:#e0e0e0"></path><rect x="259.36" y="74.81" width="166.86" height="125.52" style="fill:#fff"></rect><path d="M426.22,74.81l-.81,0-2.35,0L414,74.9l-34.23.1-120.39.19.38-.38c0,37.65,0,80.38.05,125.5v0l-.43-.43,166.86.08-.35.35c.08-37.94.14-69.27.18-91.15,0-10.94.07-19.51.09-25.38,0-2.91,0-5.15,0-6.68s0-2.31,0-2.31,0,.74,0,2.24,0,3.73,0,6.61c0,5.85.05,14.39.09,25.3,0,21.93.1,53.34.18,91.37v.34h-.35l-166.86.08h-.42v-.44c0-45.12,0-87.85,0-125.5v-.39h.38L380,74.61l34.14.11,9,0,2.31,0C426,74.79,426.22,74.81,426.22,74.81Z" style="fill:#e0e0e0"></path><path d="M236.29,57.58a20.15,20.15,0,0,1,3.61,2.21c2.16,1.46,5.11,3.52,8.31,5.88s6,4.6,8,6.27a20,20,0,0,1,3.11,2.87,23.16,23.16,0,0,1-3.48-2.4l-8.17-6.06-8.16-6.08A21.42,21.42,0,0,1,236.29,57.58Z" style="fill:#e0e0e0"></path><path d="M449.29,58c.14.18-4.91,4.11-11.28,8.76S426.36,75,426.22,74.81s4.92-4.12,11.29-8.77S449.15,57.77,449.29,58Z" style="fill:#e0e0e0"></path><line x1="449.29" y1="221.91" x2="425.37" y2="200.33" style="fill:#fff"></line><path d="M425.37,200.33c.16-.18,5.64,4.51,12.25,10.47s11.83,10.93,11.67,11.11-5.64-4.52-12.24-10.48S425.22,200.5,425.37,200.33Z" style="fill:#e0e0e0"></path><path d="M236.29,221.91c-.15-.18,4.83-4.93,11.14-10.62s11.54-10.17,11.7-10-4.83,4.93-11.14,10.62S236.45,222.08,236.29,221.91Z" style="fill:#e0e0e0"></path><path d="M383,136.43a20.14,20.14,0,1,1-15.51-23.89A20.13,20.13,0,0,1,383,136.43Z" style="fill:#f5f5f5"></path><path d="M356.81,151.36c-.22-.1.64-2.17,1.74-5.56a33.4,33.4,0,0,0,1.85-13.54,18.93,18.93,0,0,0-5.89-11.88c-2.62-2.33-4.88-2.82-4.79-3.1s2.46,0,5.5,2.24A18.46,18.46,0,0,1,362,132.09a29.6,29.6,0,0,1-2.36,14.09C358.2,149.55,357,151.45,356.81,151.36Z" style="fill:#e0e0e0"></path><path d="M382.8,129.8c-.1.46-5.44-1.47-11.71.4s-9.74,6.34-10.07,6c-.16-.11.46-1.39,2.05-3a17.84,17.84,0,0,1,16.38-4.81C381.66,128.88,382.87,129.62,382.8,129.8Z" style="fill:#e0e0e0"></path><path d="M373.7,128.78c-.25,0-.14-1.42-.86-3.39a9.05,9.05,0,0,0-13.08-5.1c-1.87,1-2.73,2.06-2.93,1.91s.41-1.5,2.36-2.86a9.48,9.48,0,0,1,14.71,5.74C374.42,127.39,373.87,128.82,373.7,128.78Z" style="fill:#e0e0e0"></path><path d="M367.28,130.9c-.44-.09-.12-2.86-.92-6.07s-2.29-5.55-1.93-5.83,2.59,1.82,3.45,5.46S367.67,131,367.28,130.9Z" style="fill:#e0e0e0"></path><path d="M367.1,124.59c0,.47-1.75.56-3.41,1.44s-3.08,2.06-3.4,1.72.56-1.93,2.68-3.11S367.19,124.22,367.1,124.59Z" style="fill:#e0e0e0"></path><path d="M334.88,134a15.28,15.28,0,1,1-21.53,1.87A15.29,15.29,0,0,1,334.88,134Z" style="fill:#f5f5f5"></path><path d="M335.52,156.93c-.14.11-1.22-1.21-3.1-3.16a25.6,25.6,0,0,0-8.41-6.06,14.3,14.3,0,0,0-10.05-.3c-2.5.92-3.63,2.26-3.78,2.1s.84-1.66,3.46-2.87a14,14,0,0,1,10.81,0,22.41,22.41,0,0,1,8.59,6.6C334.8,155.35,335.64,156.84,335.52,156.93Z" style="fill:#e0e0e0"></path><path d="M330.36,131.84c.27.22-2.93,3.11-3.91,8s.76,8.78.42,8.88c-.13.06-.76-.8-1.28-2.45a13.5,13.5,0,0,1,2.62-12.68C329.34,132.27,330.26,131.72,330.36,131.84Z" style="fill:#e0e0e0"></path><path d="M326.43,137.56c-.11.16-1-.41-2.58-.63a6.87,6.87,0,0,0-8.08,6.94c0,1.59.41,2.56.23,2.64s-.86-.81-1.07-2.6a7.18,7.18,0,0,1,9.09-7.8C325.76,136.59,326.52,137.47,326.43,137.56Z" style="fill:#e0e0e0"></path><path d="M325.56,142.61c-.23.27-2-.93-4.4-1.54s-4.53-.45-4.59-.79,2.15-1.09,4.89-.36S325.79,142.4,325.56,142.61Z" style="fill:#e0e0e0"></path><path d="M321.27,140.48c.3.19-.25,1.38-.26,2.81s.29,2.79-.06,2.88-1.09-1.06-1.13-2.9S321.05,140.29,321.27,140.48Z" style="fill:#e0e0e0"></path><path d="M335.53,128.78c-5.4-3.53-8.72-9.79-10.86-15.87a29.85,29.85,0,0,1-.25-19,24.75,24.75,0,0,1,13,13.88c2.25,6.11.92,15.11-1.89,21" style="fill:#ebebeb"></path><path d="M329.25,103.88a215,215,0,0,1,5.8,24" style="fill:#fff"></path><path d="M335.05,127.88a16.21,16.21,0,0,1-1-3.49l-2-8.49c-.78-3.14-1.48-6-2.1-8.47a16.71,16.71,0,0,1-.73-3.55,14.7,14.7,0,0,1,1.31,3.39c.69,2.13,1.54,5.11,2.35,8.43s1.39,6.36,1.75,8.57A14.38,14.38,0,0,1,335.05,127.88Z" style="fill:#e0e0e0"></path><path d="M349.2,156.19c6.31-1.33,13.09.76,18.91,3.54A29.89,29.89,0,0,1,381.72,173a24.72,24.72,0,0,1-19-.62c-5.91-2.73-11.34-10-13.51-16.17" style="fill:#ebebeb"></path><path d="M371.25,169.35a214.82,214.82,0,0,1-21.07-12.87" style="fill:#fff"></path><path d="M350.18,156.48a17,17,0,0,1,3.16,1.78l7.41,4.6,7.47,4.5a17,17,0,0,1,3,2,14.58,14.58,0,0,1-3.32-1.47c-2-1-4.7-2.52-7.62-4.3s-5.49-3.51-7.31-4.82A14.45,14.45,0,0,1,350.18,156.48Z" style="fill:#e0e0e0"></path><path d="M343.09,159.19c1.16,3.68.32,7.83-1,11.45a17.77,17.77,0,0,1-7.09,8.87,14.84,14.84,0,0,1-.74-11.34c1.28-3.68,5.31-7.33,8.83-9" style="fill:#ebebeb"></path><path d="M336.55,173.08A128,128,0,0,1,343,159.79" style="fill:#fff"></path><path d="M343,159.79c.2.11-1.26,3.07-3,6.73s-3.19,6.65-3.41,6.56.86-3.24,2.64-6.93S342.78,159.67,343,159.79Z" style="fill:#e0e0e0"></path></g><g id="freepik--Bouquet--inject-185"><path d="M240.26,253.56a2.5,2.5,0,0,1-.17-.41l-.45-1.22c-.19-.54-.46-1.2-.71-2l-.8-2.77a69.54,69.54,0,0,1-2.2-18.23,111.71,111.71,0,0,1,3.81-27c2.54-10,6.46-20.57,10.47-31.7s7.59-21.85,9.54-31.91a94.35,94.35,0,0,0,1.6-27.06,63.68,63.68,0,0,0-4.26-17.76c-.43-1-.82-1.87-1.15-2.64s-.7-1.37-.95-1.88l-.58-1.16c-.13-.27-.19-.4-.19-.41a2.8,2.8,0,0,1,.23.38l.64,1.14c.26.5.63,1.11,1,1.87l1.2,2.62a62.44,62.44,0,0,1,4.44,17.81,94.13,94.13,0,0,1-1.5,27.18c-1.93,10.11-5.51,20.86-9.52,32s-7.93,21.72-10.49,31.64a112.39,112.39,0,0,0-3.91,26.85,72,72,0,0,0,2,18.18c.29,1,.54,2,.76,2.78s.48,1.46.66,2,.3.94.4,1.24A2.15,2.15,0,0,1,240.26,253.56Z" style="fill:#455a64"></path><path d="M267.46,225.68c7.17,1.59,12.27,1.56,21.33-3.4a120.53,120.53,0,0,0,18-12.58c-12.51-1.06-31.91,5.87-39.36,16" style="fill:#FF81AE"></path><path d="M266.87,224.93c-4.62-3.76-9-12.74-9.35-20a34.09,34.09,0,0,1,5.81-20.45,26,26,0,0,1,10,19.63c.21,7.6-.73,15.83-6.5,20.77" style="fill:#FF81AE"></path><path d="M273.17,220.75c4.69-4,7.8-9.61,10.07-15.35,1.74-4.42,3.07-9.11,2.87-13.85S284,182,280.3,179c-1.47,5.69-5.37,10.38-9.21,14.82s-7.84,9-9.58,14.62.47,13.23,5.36,16.47l-.05-.16A26.33,26.33,0,0,0,273.17,220.75Z" style="fill:#FF81AE"></path><path d="M302.72,194.22c-4.45-1.41-7.52-1.17-12.11-.24s-8.95,4.91-11.37,8.92c-2.09,3.44-2.48,7.64-4.08,11.33-2,4.53-5.42,7-8.29,10.7,6.16,2.87,7.31,2.12,13.6.31,6.51-1.88,12.86-9.49,15.14-15.63,3.17-8.58,2.2-11.49,7.11-15.39" style="fill:#FF81AE"></path><path d="M298.51,187.59a2.1,2.1,0,0,0-1.55-.94,14.92,14.92,0,0,0-6.17,0,6.91,6.91,0,0,0-.76-4.14,2.77,2.77,0,0,0-1.7-1.18c-1.26-.27-2,.53-2.63,1.32a24.1,24.1,0,0,0-3.63,6.42l3.72,12.34c3.12.44,6.23-1.31,8.26-3.73s3.18-5.43,4.29-8.38A2.18,2.18,0,0,0,298.51,187.59Z" style="fill:#FF81AE"></path><path d="M295.23,185.82a3,3,0,0,0-4.71-2.43l-1.29-.1a14.94,14.94,0,0,0-.77,5.27l5.58-1.29a1.79,1.79,0,0,0,.77-.31A1.42,1.42,0,0,0,295.23,185.82Z" style="fill:#FF81AE"></path><path d="M280.3,179a2.67,2.67,0,0,1,.45.3,6.12,6.12,0,0,1,1.17,1,12.34,12.34,0,0,1,2.73,5,26.34,26.34,0,0,1,1,8.4,26.07,26.07,0,0,1-2.18,10.1c-2.92,6.81-7.43,11.89-10.66,15.4-1.64,1.76-3,3.13-4,4.07l-1.11,1.07a2.65,2.65,0,0,1-.41.35s.1-.16.34-.42.62-.68,1-1.14c.91-1,2.24-2.4,3.84-4.18,3.15-3.57,7.57-8.64,10.45-15.35a26.06,26.06,0,0,0,2.18-9.92,26.75,26.75,0,0,0-.86-8.28,12.62,12.62,0,0,0-2.52-5,8.27,8.27,0,0,0-1.08-1.08C280.42,179.17,280.29,179,280.3,179Z" style="fill:#263238"></path><path d="M302.72,194.22c0,.1-1.12-.36-3-.63a12.53,12.53,0,0,0-3.24,0,14.15,14.15,0,0,0-3.79,1.16,28.13,28.13,0,0,0-6,4.1,25.71,25.71,0,0,1-2.34,2,13.81,13.81,0,0,1,2.09-2.24,24.3,24.3,0,0,1,6.05-4.29,13.8,13.8,0,0,1,3.95-1.17,11.77,11.77,0,0,1,3.36.11,10.84,10.84,0,0,1,2.17.63A2.67,2.67,0,0,1,302.72,194.22Z" style="fill:#263238"></path><path d="M285.6,193.8a11.34,11.34,0,0,1,5.25-7.34c.09.13-1.52,1.4-3,3.43S285.75,193.86,285.6,193.8Z" style="fill:#263238"></path><path d="M298.68,188.22c-.05,0-.07-.22-.25-.55a2.1,2.1,0,0,0-1.25-.93,12.08,12.08,0,0,0-5.45.07c-.38.06-.76.12-1.12.15l-.34,0,.06-.33c.32-1.85,0-3.6-.81-4.45a2.55,2.55,0,0,0-1.12-.76c-.3-.12-.49-.16-.48-.2s.19,0,.54,0a2.51,2.51,0,0,1,1.31.71c1,.9,1.39,2.82,1.07,4.76l-.28-.3,1.09-.15a11,11,0,0,1,5.66.09,2.2,2.2,0,0,1,1.3,1.19C298.75,188,298.7,188.22,298.68,188.22Z" style="fill:#263238"></path><g style="opacity:0.30000000000000004"><path d="M288.63,200.48c1-5.65,0-12.1-4.38-15.82a27,27,0,0,1-.32,17,44,44,0,0,1-9.09,15l-7.7,8.24a73.91,73.91,0,0,0,13-9.73C284.28,211.16,287.62,206.14,288.63,200.48Z"></path></g><g style="opacity:0.30000000000000004"><path d="M290.57,183.18a3.48,3.48,0,0,1,1,2.22,5.29,5.29,0,0,1,1.94-.09,3.18,3.18,0,0,1,1.72.84,12.46,12.46,0,0,0-4.62.48,9.31,9.31,0,0,0,0-3.45"></path></g><path d="M266.87,224.93s-.14-.08-.39-.27a10.42,10.42,0,0,1-1-.91,15.26,15.26,0,0,1-2.95-4.09,16.5,16.5,0,0,1-1.68-7.28,19.31,19.31,0,0,1,2.25-8.85,38.43,38.43,0,0,1,5.35-7.42c1.86-2.11,3.59-3.94,4.95-5.55a42.54,42.54,0,0,0,3.05-4,18.14,18.14,0,0,1,1-1.52,1.93,1.93,0,0,1-.19.44c-.14.28-.37.68-.67,1.19a36.56,36.56,0,0,1-2.93,4.09c-1.34,1.65-3.05,3.51-4.88,5.62a39.8,39.8,0,0,0-5.25,7.35,19.14,19.14,0,0,0-2.23,8.62,16.15,16.15,0,0,0,4.3,11.22C266.4,224.48,266.91,224.89,266.87,224.93Z" style="fill:#263238"></path><path d="M305.93,209.8a10.39,10.39,0,0,1-1.67.06c-1.07,0-2.62.07-4.53.25a41.5,41.5,0,0,0-14.36,3.78,122,122,0,0,0-12.88,7.66l-3.8,2.51a10,10,0,0,1-1.43.87,10.79,10.79,0,0,1,1.32-1c.86-.64,2.12-1.56,3.7-2.66a104.36,104.36,0,0,1,12.86-7.82,39.55,39.55,0,0,1,14.56-3.68,43.86,43.86,0,0,1,4.56-.08c.54,0,1,.05,1.24.07A1.4,1.4,0,0,1,305.93,209.8Z" style="fill:#263238"></path><path d="M236.1,233.5c2.33-17.88,11-33.4,22.75-47.08a93.85,93.85,0,0,1,44.87-28.87,84.65,84.65,0,0,1-39.25,53.13c-5.37,3.12-11.08,5.65-16.25,9.08s-9.89,8-12.12,13.74" style="fill:#455a64"></path><path d="M201,176.64c.31,8.32,3.64,15.82,8.46,22.61a43.42,43.42,0,0,0,19.4,15.16,39,39,0,0,0-15.79-26.08c-2.33-1.66-4.85-3.07-7.08-4.86a13.93,13.93,0,0,1-5-6.83" style="fill:#455a64"></path><path d="M240.76,273.72c1.88-9.15,6.94-16.84,13.53-23.47A48.66,48.66,0,0,1,278.55,237a43.81,43.81,0,0,1-22.28,26c-2.88,1.41-5.93,2.5-8.73,4.08a15.75,15.75,0,0,0-6.78,6.64" style="fill:#455a64"></path><path d="M242.63,293.42c2.37-16.49-1.82-31.87-9.86-40.74s-19-14.47-29.74-19.77-21.76-10.67-30.14-19.22a83.19,83.19,0,0,0,38.45,50.1c6.18,3.55,12.86,6.32,18.51,10.68a39,39,0,0,1,12.78,18.95" style="fill:#455a64"></path><path d="M245,423.92s0-.23,0-.69,0-1.16.08-2.05c.05-1.8.24-4.44.29-7.86.23-6.82.29-16.7,0-28.91s-.87-26.73-1.61-42.86-1.57-33.87-1.51-52.52c0-4.66.07-9.26-.12-13.78a125,125,0,0,0-1.28-13.31,149.67,149.67,0,0,0-6.2-24.49c-1.24-3.84-2.54-7.55-3.62-11.24a90.19,90.19,0,0,1-2.45-10.87,134.53,134.53,0,0,1-1.54-19.93,142,142,0,0,1,2.68-28.78c.18-.83.34-1.62.49-2.37l.51-2.06c.31-1.28.59-2.35.86-3.21l.6-2c.13-.44.21-.66.21-.66s0,.23-.16.68l-.55,2c-.25.86-.52,1.94-.81,3.22l-.48,2.06c-.15.75-.3,1.54-.47,2.37a144.68,144.68,0,0,0-2.51,28.74,134,134,0,0,0,1.6,19.86,89,89,0,0,0,2.46,10.81c1.08,3.66,2.39,7.38,3.63,11.22a149.75,149.75,0,0,1,6.26,24.56,129.16,129.16,0,0,1,1.29,13.36c.19,4.55.13,9.16.12,13.82-.06,18.62.79,36.36,1.47,52.49s1.3,30.66,1.5,42.87.09,22.1-.2,28.93c-.09,3.42-.31,6.06-.4,7.86,0,.88-.1,1.56-.13,2S245,423.92,245,423.92Z" style="fill:#455a64"></path><path d="M242.33,118.22c-3.13-9.81-11.4-18.31-21.59-19.83A29.25,29.25,0,0,1,219.2,121c-2.88,5.63-7.59,10.3-9.68,16.27-2.43,7-.92,14.8,2.54,21.3S222.58,171,228.73,175a104,104,0,0,1,4.83-10.34c2.49-5.27,4.6-10.16,6.86-16.18C244.05,138.84,245.46,128,242.33,118.22Z" style="fill:#FF81AE"></path><path d="M274.07,113.18c-7.33,0-16.71,1.92-23.16,5.46s-12,9.27-13.81,16.41c-1.53,6.14-.15,12.62-.84,18.91-.85,7.72-3.56,14.72-9.72,19.45,5.8,5.94,19.54,2,27.54-4.44s12.75-16.29,15-26.34,2.29-18.23,5-29.45" style="fill:#FF81AE"></path><path d="M258.9,103.1a3.25,3.25,0,0,0-2.76-.69,23.28,23.28,0,0,0-9.28,2.8,12.4,12.4,0,0,0-2.51-5.33c-1.38-1.44-3.8-2.07-5.38-.86a5.71,5.71,0,0,0-1.62,2.57,37.3,37.3,0,0,0-2.45,11.32l11.33,16.79c4.89-.8,8.74-4.87,10.66-9.44s2.24-9.63,2.54-14.58A3.51,3.51,0,0,0,258.9,103.1Z" style="fill:#FF81AE"></path><path d="M253.15,102a4.71,4.71,0,0,0-8.2-1.46l-2,.45a23.43,23.43,0,0,0,1.3,8.26L252,104.7a3,3,0,0,0,1-.83A2.21,2.21,0,0,0,253.15,102Z" style="fill:#FF81AE"></path><path d="M234.55,105.56a3.78,3.78,0,0,1,.56.51,20,20,0,0,1,1.49,1.59,28.77,28.77,0,0,1,4.28,6.78,34.68,34.68,0,0,1,3,11.5,49.84,49.84,0,0,1-1.1,14.51,84,84,0,0,1-4.29,13.91c-1.64,4.16-3.35,7.82-4.83,10.86s-2.75,5.46-3.63,7.13l-1,1.91a3.39,3.39,0,0,1-.39.65,5.88,5.88,0,0,1,.3-.7c.24-.49.55-1.14.95-2,.82-1.7,2-4.15,3.48-7.2s3.1-6.72,4.72-10.87a87.52,87.52,0,0,0,4.22-13.85A50.75,50.75,0,0,0,243.38,126a35.18,35.18,0,0,0-2.83-11.39,30.54,30.54,0,0,0-4.11-6.8c-.58-.74-1.07-1.28-1.41-1.65A4.43,4.43,0,0,1,234.55,105.56Z" style="fill:#263238"></path><path d="M274.17,112.9c0,.11-2.05-.1-5.32.26a24.74,24.74,0,0,0-2.66.43c-.95.16-1.94.45-3,.73a33.6,33.6,0,0,0-12.28,6.74c-.8.73-1.58,1.41-2.23,2.13a23.83,23.83,0,0,0-1.78,2c-2.07,2.56-3,4.4-3.09,4.34a7.13,7.13,0,0,1,.64-1.29,12,12,0,0,1,.87-1.45,19.14,19.14,0,0,1,1.29-1.83,22.16,22.16,0,0,1,1.76-2.08,30.79,30.79,0,0,1,2.22-2.19,32.4,32.4,0,0,1,12.47-6.84c1.07-.27,2.07-.55,3-.7a24.28,24.28,0,0,1,2.7-.36,20.39,20.39,0,0,1,2.24-.11,12.47,12.47,0,0,1,1.69,0A7.21,7.21,0,0,1,274.17,112.9Z" style="fill:#263238"></path><path d="M242.41,118.44a6.8,6.8,0,0,1,0-2.12,21.5,21.5,0,0,1,3.2-9.67,6.55,6.55,0,0,1,1.3-1.68,48.89,48.89,0,0,0-3,6.48A50.07,50.07,0,0,0,242.41,118.44Z" style="fill:#263238"></path><path d="M259.45,104c-.05,0-.17-.31-.59-.76a3.35,3.35,0,0,0-2.35-.87,12,12,0,0,0-3.81.68,32.61,32.61,0,0,0-4.4,1.94c-.55.27-1.08.52-1.6.75l-.32.13,0-.33c-.39-3-1.71-5.47-3.38-6.36a4.07,4.07,0,0,0-2.09-.59c-.52,0-.81,0-.82,0a2,2,0,0,1,.82-.17,4,4,0,0,1,2.25.48,5.92,5.92,0,0,1,2.41,2.49,11.86,11.86,0,0,1,1.32,4.09l-.36-.2c.51-.22,1-.47,1.58-.73,3-1.6,6.12-2.7,8.46-2.53a3.44,3.44,0,0,1,2.48,1.11,2.24,2.24,0,0,1,.37.64C259.45,103.87,259.47,104,259.45,104Z" style="fill:#263238"></path><g style="opacity:0.30000000000000004"><path d="M250.07,127.05c-1.13-9-6.54-17.65-14.84-21.19A41.69,41.69,0,0,1,243.58,131c-.19,9-2.89,18.55-6.66,26.72l-8.35,17.17A128.28,128.28,0,0,0,244.19,153C248.52,145.11,251.2,136,250.07,127.05Z"></path></g><g style="opacity:0.30000000000000004"><path d="M244.92,100.17a5.47,5.47,0,0,1,2.51,2.87,8.24,8.24,0,0,1,2.87-1,5,5,0,0,1,3,.46,19.41,19.41,0,0,0-6.71,2.87,14.63,14.63,0,0,0-1.65-5.17"></path></g><path d="M169.49,147.88c-7-4.33-16.35-5.21-23.31-.88h0a23.27,23.27,0,0,1,10.72,14.49c1.17,4.9.72,10.16,2.53,14.85,2.11,5.46,7.08,9.44,12.52,11.6s12.8,2.11,18.58,1.36h0a85.78,85.78,0,0,1-2.41-8.75c-1.2-4.48-2.45-8.53-4.18-13.35C181.16,159.49,176.45,152.21,169.49,147.88Z" style="fill:#FF81AE"></path><path d="M186.12,128.46c-4.46,3.76-9.13,9.78-11.22,15.25s-2.5,11.82.1,17.07c2.24,4.5,6.42,7.72,9.25,11.89,3.46,5.11,5.43,10.76,4.14,16.79h0c6.57.61,12.89-8.83,14.39-16.89s-.67-16.44-4.49-23.7-8-12.22-12.17-20.41" style="fill:#FF81AE"></path><path d="M171.73,130.17a2.63,2.63,0,0,0-2,1,18.54,18.54,0,0,0-4.17,6.48h0c-1.49-1-3.06-2-4.89-1.95a3.44,3.44,0,0,0-2.39,1c-1.12,1.16-.77,2.47-.36,3.66a29.8,29.8,0,0,0,4.36,8.13h0l15.53,4.33h0c2.55-3,2.78-7.46,1.58-11.22s-3.6-7-6-10.14A2.77,2.77,0,0,0,171.73,130.17Z" style="fill:#FF81AE"></path><path d="M167.67,132.45a3.76,3.76,0,0,0-5.73,3.35l-1,1.29h0a18.44,18.44,0,0,0,5.05,4.34h0l2.36-6.75a2.27,2.27,0,0,0,.2-1A1.83,1.83,0,0,0,167.67,132.45Z" style="fill:#FF81AE"></path><path d="M158.24,144.22a4.05,4.05,0,0,1,.61,0,16.12,16.12,0,0,1,1.73.19,23,23,0,0,1,6.1,1.88,27.74,27.74,0,0,1,7.75,5.44,39.8,39.8,0,0,1,6.83,9.37,67.44,67.44,0,0,1,4.57,10.65c1.15,3.37,2,6.47,2.66,9.08s1.14,4.73,1.46,6.2c.15.69.26,1.25.36,1.69a2.46,2.46,0,0,1,.08.6,3.17,3.17,0,0,1-.19-.57c-.11-.44-.26-1-.44-1.68-.39-1.45-.91-3.56-1.62-6.15s-1.6-5.66-2.76-9a68.78,68.78,0,0,0-4.58-10.56,40,40,0,0,0-6.71-9.28,27.82,27.82,0,0,0-7.57-5.44,24.54,24.54,0,0,0-6-2C159.07,144.32,158.24,144.29,158.24,144.22Z" style="fill:#263238"></path><path d="M186,128.24c.06.08-1.28,1-3.06,2.93a27.24,27.24,0,0,0-2.81,3.61,26.59,26.59,0,0,0-4,10.4,26.59,26.59,0,0,0-.31,4.57c.06,2.61.44,4.21.33,4.23a5.49,5.49,0,0,1-.3-1.11,9.06,9.06,0,0,1-.23-1.33,16.85,16.85,0,0,1-.17-1.78,24.69,24.69,0,0,1,.2-4.65,28.31,28.31,0,0,1,1.43-5.52,27.36,27.36,0,0,1,2.61-5.07,23.61,23.61,0,0,1,2.94-3.6A17.3,17.3,0,0,1,184,129.7a8.93,8.93,0,0,1,1.06-.84A4.67,4.67,0,0,1,186,128.24Z" style="fill:#263238"></path><path d="M169.65,148a15,15,0,0,1-4.24-10.46A50.79,50.79,0,0,0,167,143,52.74,52.74,0,0,0,169.65,148Z" style="fill:#263238"></path><path d="M172.51,130.41c0,.05-.27-.08-.75-.13a2.71,2.71,0,0,0-1.85.69,9.33,9.33,0,0,0-1.94,2.38,27,27,0,0,0-1.66,3.44l-.42.93-.11.23-.05.11h0l-.4.08h0l0,0-.05,0-.36-.31a9.7,9.7,0,0,0-1.51-1,5.52,5.52,0,0,0-2.9-.77,3.51,3.51,0,0,0-1.89.67c-.4.29-.57.51-.61.48s.1-.28.48-.63a3.33,3.33,0,0,1,2-.88,5.71,5.71,0,0,1,3.16.7,10.14,10.14,0,0,1,1.6,1l.38.32.05,0,0,0h0l-.4.08h0l.06-.11.1-.22.41-.92c1-2.53,2.33-4.8,3.86-5.91a2.73,2.73,0,0,1,2.09-.59A1.4,1.4,0,0,1,172.51,130.41Z" style="fill:#263238"></path><g style="opacity:0.30000000000000004"><path d="M178.73,149.24c-5.3-4.85-13.06-7.32-19.92-5.18h0a33.16,33.16,0,0,1,18,10.93,55.28,55.28,0,0,1,9.74,19.63l3.8,14.71h0A102.26,102.26,0,0,0,188.57,168C187.11,161,184,154.09,178.73,149.24Z"></path></g><g style="opacity:0.30000000000000004"><path d="M161.75,135.61a4.33,4.33,0,0,1,3,.45h0A6.49,6.49,0,0,1,166,134a4,4,0,0,1,2-1.26,15.66,15.66,0,0,0-2.59,5.2h0a11.57,11.57,0,0,0-3.66-2.28"></path></g><path d="M224.12,425.92s0-.22.08-.65l.3-1.89c.28-1.69.69-4.14,1.21-7.29l4.43-26.79c1.84-11.32,4-24.8,6-39.82,1-7.51,2.05-15.4,2.92-23.6a219.15,219.15,0,0,0,1.4-25.45,115,115,0,0,0-2.84-25.27,129,129,0,0,0-7.52-22.49c-6.09-13.88-13.33-25.52-19.56-35.11s-11.67-17.15-15.46-22.32l-4.4-5.93-1.15-1.54-.37-.53s.15.16.42.5l1.19,1.51c1,1.33,2.55,3.3,4.47,5.87,3.84,5.14,9.29,12.66,15.6,22.23s13.57,21.22,19.7,35.13A128.46,128.46,0,0,1,238.13,275,115.51,115.51,0,0,1,241,300.43a222.37,222.37,0,0,1-1.42,25.51c-.88,8.2-1.93,16.09-3,23.6-2.08,15-4.24,28.51-6.12,39.82s-3.49,20.45-4.6,26.76c-.57,3.15-1,5.59-1.31,7.27-.15.82-.26,1.45-.35,1.89S224.12,425.92,224.12,425.92Z" style="fill:#455a64"></path><path d="M242.63,268.16a2.09,2.09,0,0,1-.14-.37c-.1-.27-.22-.63-.38-1.09-.34-1-.81-2.39-1.42-4.19-1.24-3.64-3.12-8.88-5.58-15.3s-5.53-14-9-22.44-7.18-17.7-10.79-27.57a288.53,288.53,0,0,1-8.79-28.27,178.19,178.19,0,0,1-4.33-23.79,134,134,0,0,1-.82-16.27c0-1.93.12-3.42.15-4.43,0-.49,0-.87.07-1.15a2.14,2.14,0,0,1,0-.39,2.29,2.29,0,0,1,0,.39c0,.28,0,.67,0,1.15,0,1-.1,2.5-.05,4.43a139.73,139.73,0,0,0,1,16.23,180.33,180.33,0,0,0,4.43,23.71A291.63,291.63,0,0,0,215.86,197c3.6,9.86,7.35,19.13,10.74,27.57s6.44,16,8.85,22.49,4.25,11.7,5.43,15.36c.61,1.83,1,3.26,1.33,4.23l.33,1.1A1.74,1.74,0,0,1,242.63,268.16Z" style="fill:#455a64"></path><path d="M199.29,128.85c8.89-6.55,13.92-12.35,17.27-27.53,2.38-10.78,3.24-21.82,3.62-32.86-13.6,13.11-25,41.94-20.89,60.39" style="fill:#FF81AE"></path><path d="M197.86,128.77c-8.84,1.51-23.38-2.39-31.84-9.17a51.33,51.33,0,0,1-17.41-26.82,39.08,39.08,0,0,1,32.17,8.06c8.81,7.29,17.2,16.5,17.08,27.93" style="fill:#FF81AE"></path><path d="M199.36,117.49c.09-9.29-3.15-18.33-7.41-26.59-3.27-6.35-7.27-12.49-12.83-17s-12.91-7.13-19.94-5.83c5,7.29,6.44,16.36,7.66,25.1s2.44,17.81,7.07,25.33,15.44,12.56,24,10.23l-.24-.1A38.84,38.84,0,0,0,199.36,117.49Z" style="fill:#FF81AE"></path><path d="M198.59,57.78c-6,3.64-8.78,7.36-12.27,13.47s-3.29,15-1.16,21.7c1.83,5.77,6.2,10.37,8.79,15.85,3.17,6.71,2.53,13,3.91,20,9.34-4.13,9.64-6.17,13.81-15.09,4.32-9.23,2-24-2.7-32.61C202.4,69,198.14,67.19,198.59,57.78" style="fill:#FF81AE"></path><path d="M186.92,56a3.16,3.16,0,0,0-2.6.82,22.38,22.38,0,0,0-6.16,6.94c-1.58-1.45-3.26-3-5.44-3.23a4.23,4.23,0,0,0-3,.75c-1.54,1.17-1.37,2.8-1.1,4.29A35.72,35.72,0,0,0,172.27,76l17.65,8c3.59-3.1,4.68-8.35,4-13s-3-9-5.24-13.15A3.3,3.3,0,0,0,186.92,56Z" style="fill:#FF81AE"></path><path d="M181.67,57.94a4.52,4.52,0,0,0-7.43,2.92l-1.38,1.36a22.5,22.5,0,0,0,5.2,6.09l4.06-7.58a2.89,2.89,0,0,0,.42-1.18A2.15,2.15,0,0,0,181.67,57.94Z" style="fill:#FF81AE"></path><path d="M159.18,68.11a10.47,10.47,0,0,1,3.1-.51,19.24,19.24,0,0,1,8.32,1.91A40,40,0,0,1,181,76.72a39.27,39.27,0,0,1,9.24,12.45,65.84,65.84,0,0,1,4.95,14.73,117.76,117.76,0,0,1,2,12.54c.38,3.59.58,6.5.72,8.52.06,1,.1,1.74.13,2.32a3.83,3.83,0,0,1,0,.81,7.81,7.81,0,0,1-.11-.8c-.06-.58-.14-1.35-.23-2.32-.2-2-.46-4.91-.89-8.49s-1-7.83-2-12.47a67.28,67.28,0,0,0-5-14.61,39.15,39.15,0,0,0-9.1-12.33,40.2,40.2,0,0,0-10.27-7.22,19.49,19.49,0,0,0-8.16-2A23.3,23.3,0,0,0,159.18,68.11Z" style="fill:#263238"></path><path d="M198.59,57.78a6.28,6.28,0,0,1-1,.7,19.25,19.25,0,0,0-2.69,2,18.26,18.26,0,0,0-3.24,3.68,20.33,20.33,0,0,0-2.46,5.47,30.06,30.06,0,0,0-1.07,6c-.19,1.86-.2,3.54-.23,5s0,2.45,0,3.35a5.22,5.22,0,0,1,0,1.24,6.38,6.38,0,0,1-.16-1.23c-.08-.79-.15-1.94-.2-3.36a49.16,49.16,0,0,1,.12-5,28.92,28.92,0,0,1,1.05-6.05,20.16,20.16,0,0,1,2.56-5.6,17.71,17.71,0,0,1,3.4-3.7,17.26,17.26,0,0,1,2.83-1.86A4.6,4.6,0,0,1,198.59,57.78Z" style="fill:#263238"></path><path d="M181.16,76.75a6.19,6.19,0,0,1-1.1-1.71,20.21,20.21,0,0,1-1.69-4.6,20.65,20.65,0,0,1-.55-4.88,6.28,6.28,0,0,1,.23-2,49.22,49.22,0,0,0,.82,6.78A48.7,48.7,0,0,0,181.16,76.75Z" style="fill:#263238"></path><path d="M187.8,56.41c0,.05-.3-.17-.86-.32a3.24,3.24,0,0,0-2.35.47A11,11,0,0,0,181.83,59a31.26,31.26,0,0,0-2.62,3.79c-.31.48-.62,1-.93,1.4l-.2.28-.21-.26c-1.79-2.21-4.13-3.59-5.93-3.49a4,4,0,0,0-2,.56c-.43.25-.65.43-.68.4a1.89,1.89,0,0,1,.58-.56,3.87,3.87,0,0,1,2.08-.74,5.75,5.75,0,0,1,3.22.82,11.59,11.59,0,0,1,3.13,2.68l-.41,0c.3-.44.6-.91.91-1.39,1.68-2.83,3.65-5.27,5.64-6.31A3.28,3.28,0,0,1,187,55.9a2.18,2.18,0,0,1,.63.34C187.75,56.34,187.81,56.4,187.8,56.41Z" style="fill:#263238"></path><g style="opacity:0.30000000000000004"><path d="M191.72,79.93c-5.41-6.73-13.7-12-22.24-10.7,8,3.26,14.57,9.76,18.94,17.19s6.94,16.57,8,25.13l1.7,16.87c1.36-8.53,2.3-15.73,1.87-24.36S197.13,86.67,191.72,79.93Z"></path></g><g style="opacity:0.30000000000000004"><path d="M174.06,60.6a5.21,5.21,0,0,1,3.48,1.09,7.93,7.93,0,0,1,1.82-2.28A4.76,4.76,0,0,1,182,58.29a18.58,18.58,0,0,0-4,5.7,14.2,14.2,0,0,0-3.93-3.39"></path></g><path d="M197.86,128.77a2.82,2.82,0,0,1-.7.14,15.61,15.61,0,0,1-2,.23,22.77,22.77,0,0,1-7.52-.74,24.73,24.73,0,0,1-9.84-5.31A28.8,28.8,0,0,1,170,111.82a58.5,58.5,0,0,1-3.11-13.37c-.55-4.19-.91-8-1.4-11.1A65,65,0,0,0,164,80c-.24-.85-.43-1.52-.57-2a5.12,5.12,0,0,1-.19-.69,3.06,3.06,0,0,1,.29.65c.17.44.4,1.1.67,2a56.36,56.36,0,0,1,1.67,7.36c.54,3.15,1,6.93,1.52,11.09a59,59,0,0,0,3.12,13.25,28.65,28.65,0,0,0,7.58,11.1,24.91,24.91,0,0,0,9.63,5.32,24.4,24.4,0,0,0,7.41.89c.89,0,1.57-.1,2-.13A3.78,3.78,0,0,1,197.86,128.77Z" style="fill:#263238"></path><path d="M219.41,69.57a4.24,4.24,0,0,1-.41.51l-1.21,1.41c-1.06,1.22-2.55,3-4.25,5.35a61.79,61.79,0,0,0-10,20,178,178,0,0,0-4.05,22.18c-.36,2.82-.66,5.13-.87,6.79-.11.76-.19,1.37-.25,1.85a3.16,3.16,0,0,1-.13.64,2.92,2.92,0,0,1,0-.65c0-.48.09-1.1.16-1.86.14-1.61.38-3.94.7-6.81A161.38,161.38,0,0,1,203,96.73a59.89,59.89,0,0,1,10.2-20.11c1.75-2.31,3.29-4.08,4.39-5.27.55-.6,1-1,1.3-1.34S219.39,69.55,219.41,69.57Z" style="fill:#263238"></path><path d="M290.54,144c5.09-5.13,8.19-11.92,10.31-18.84,1.62-5.31,2.72-10.89,2-16.41s-3.32-11-7.94-14.06c-1.18,6.76-5.29,12.6-9.35,18.14s-8.31,11.23-9.81,17.93,1.78,15.38,7.79,18.71l-.08-.19A30.47,30.47,0,0,0,290.54,144Z" style="fill:#FF81AE"></path><path d="M322.52,110.31c-5.32-1.23-8.88-.66-14.15.85s-10,6.56-12.42,11.45c-2.11,4.21-2.17,9.14-3.7,13.6-1.88,5.46-5.66,8.63-8.66,13.25,7.44,2.76,8.71,1.79,15.88-.92,7.42-2.79,14.11-12.25,16.19-19.63,2.9-10.3,1.5-13.6,6.86-18.6" style="fill:#FF81AE"></path><path d="M317,103a2.4,2.4,0,0,0-1.89-1,17.12,17.12,0,0,0-7.19.52c-.1-1.67-.22-3.42-1.29-4.76a3.23,3.23,0,0,0-2.09-1.22c-1.49-.19-2.28.81-2.94,1.79a28.27,28.27,0,0,0-3.63,7.82l5.49,14c3.68.22,7.14-2.11,9.28-5.11s3.2-6.63,4.22-10.17A2.57,2.57,0,0,0,317,103Z" style="fill:#FF81AE"></path><path d="M313,101.22a3.5,3.5,0,0,0-5.71-2.4h-1.51a17.33,17.33,0,0,0-.41,6.21l6.38-2a2,2,0,0,0,.87-.43A1.64,1.64,0,0,0,313,101.22Z" style="fill:#FF81AE"></path><path d="M295,94.68a2.4,2.4,0,0,1,.55.31A7.1,7.1,0,0,1,297,96.08a14.33,14.33,0,0,1,3.63,5.57,30.81,30.81,0,0,1,1.92,9.69,30.5,30.5,0,0,1-1.6,12,51.3,51.3,0,0,1-5.25,10.9,94.72,94.72,0,0,1-5.72,8c-1.75,2.2-3.22,3.93-4.24,5.12l-1.19,1.36a3,3,0,0,1-.45.45,4,4,0,0,1,.37-.52l1.11-1.42c1-1.23,2.4-3,4.1-5.22,3.35-4.45,8-10.77,10.77-18.88A30.28,30.28,0,0,0,302,111.36a31.27,31.27,0,0,0-1.78-9.58,14.68,14.68,0,0,0-3.43-5.55,8,8,0,0,0-1.37-1.15A4.32,4.32,0,0,1,295,94.68Z" style="fill:#263238"></path><path d="M322.52,110.31c0,.11-1.34-.34-3.52-.49a14.41,14.41,0,0,0-3.79.3,16.56,16.56,0,0,0-4.32,1.72,32.26,32.26,0,0,0-6.64,5.35,30.43,30.43,0,0,1-2.53,2.52,4.45,4.45,0,0,1,.56-.79c.38-.48,1-1.16,1.7-2a28.76,28.76,0,0,1,6.65-5.55,16.09,16.09,0,0,1,4.48-1.73,13.78,13.78,0,0,1,3.92-.19,11.86,11.86,0,0,1,2.58.51A3.33,3.33,0,0,1,322.52,110.31Z" style="fill:#263238"></path><path d="M302.52,111.42a11.1,11.1,0,0,1,1.82-5.06,11.24,11.24,0,0,1,3.61-4c.11.12-1.67,1.74-3.17,4.26A50.26,50.26,0,0,0,302.52,111.42Z" style="fill:#263238"></path><path d="M317.25,103.69c-.05,0-.09-.25-.33-.63a2.51,2.51,0,0,0-1.55-1,14,14,0,0,0-6.37.59c-.43.1-.86.2-1.28.27l-.34.07,0-.34c.21-2.19-.33-4.21-1.38-5.13a3.1,3.1,0,0,0-1.39-.78c-.37-.1-.59-.12-.59-.17a1.34,1.34,0,0,1,.63,0,2.91,2.91,0,0,1,1.58.7c1.23,1,1.87,3.15,1.67,5.43l-.31-.27c.41-.08.83-.18,1.26-.28,2.47-.66,4.91-1,6.59-.43A2.58,2.58,0,0,1,317.1,103,1.17,1.17,0,0,1,317.25,103.69Z" style="fill:#263238"></path><g style="opacity:0.30000000000000004"><path d="M306.67,118.92c.64-6.68-1.13-14.1-6.58-18,2.67,6.15,2.82,13.35,1.22,19.85a51.78,51.78,0,0,1-9.2,18.32l-8.21,10.31c5.39-4,9.82-7.51,14.26-12.55S306,125.61,306.67,118.92Z"></path></g><g style="opacity:0.30000000000000004"><path d="M307.32,98.57a4.12,4.12,0,0,1,1.36,2.49,6.3,6.3,0,0,1,2.24-.28,3.76,3.76,0,0,1,2.09.82,14.57,14.57,0,0,0-5.34,1,10.71,10.71,0,0,0-.35-4"></path></g><path d="M283.59,149.46a3,3,0,0,1-.48-.3,12.77,12.77,0,0,1-1.27-1,17.83,17.83,0,0,1-3.8-4.49,19.26,19.26,0,0,1-2.62-8.31,22.38,22.38,0,0,1,1.8-10.52,45.08,45.08,0,0,1,5.53-9.14c2-2.63,3.81-4.93,5.25-6.93a51.71,51.71,0,0,0,3.17-4.91c.68-1.21,1-1.9,1-1.88a2.27,2.27,0,0,1-.19.52c-.13.34-.36.83-.67,1.45a42,42,0,0,1-3.05,5c-1.4,2-3.22,4.37-5.16,7a46,46,0,0,0-5.44,9.06,22.18,22.18,0,0,0-1.8,10.28A18.9,18.9,0,0,0,282,148C283,149,283.62,149.41,283.59,149.46Z" style="fill:#263238"></path><path d="M246.26,53.45c-5.65-5.16-14.13-7.57-21.25-4.77a21.67,21.67,0,0,1,7.38,15.11c.24,4.7-1.07,9.45-.2,14.07,1,5.37,4.89,9.86,9.52,12.76s11.38,4.12,16.82,4.41a74.73,74.73,0,0,1-.72-8.44c-.35-4.31-.8-8.24-1.58-13C255,66.08,251.9,58.6,246.26,53.45Z" style="fill:#FF81AE"></path><path d="M264.82,38.44a38.67,38.67,0,0,0-12.89,12.1c-2.84,4.66-4.31,10.42-2.81,15.67,1.29,4.52,4.58,8.19,6.47,12.49,2.31,5.28,3.15,10.8.94,16.12,5.93,1.68,13.34-5.92,16.09-13.06s2.17-15.21-.1-22.51-5.28-12.59-7.7-20.81" style="fill:#FF81AE"></path><path d="M251.32,37.57a2.44,2.44,0,0,0-2,.58,17.52,17.52,0,0,0-4.94,5.24,9.09,9.09,0,0,0-3.59-2.5A3.14,3.14,0,0,0,237,42.33a4.18,4.18,0,0,0-.09,2.25,27.77,27.77,0,0,0,2.62,8.2L253,59.39c2.85-2.32,3.82-6.37,3.36-10s-2.12-7-3.76-10.33A2.6,2.6,0,0,0,251.32,37.57Z" style="fill:#FF81AE"></path><path d="M247.2,39a3.5,3.5,0,0,0-5.82,2.1l-1.1,1a17.31,17.31,0,0,0,3.89,4.83q1.67-2.9,3.32-5.79a2,2,0,0,0,.35-.9A1.65,1.65,0,0,0,247.2,39Z" style="fill:#FF81AE"></path><path d="M236.56,48.18a2.31,2.31,0,0,1,.55.1,12.93,12.93,0,0,1,1.55.47A21,21,0,0,1,244,51.51a26,26,0,0,1,6.2,6.3,37,37,0,0,1,4.67,9.77,61.93,61.93,0,0,1,2.39,10.55c.48,3.3.73,6.28.9,8.79s.23,4.53.28,5.94c0,.65,0,1.19,0,1.61a3.61,3.61,0,0,1,0,.57,1.93,1.93,0,0,1-.08-.56c0-.43-.08-1-.13-1.61-.11-1.47-.26-3.48-.45-5.93s-.5-5.46-1-8.73a64.82,64.82,0,0,0-2.41-10.47,37.66,37.66,0,0,0-4.58-9.65,25.8,25.8,0,0,0-6-6.28,22.51,22.51,0,0,0-5.14-2.87C237.3,48.41,236.54,48.23,236.56,48.18Z" style="fill:#263238"></path><path d="M264.78,38.22c.05.1-1.34.74-3.3,2.19a24.26,24.26,0,0,0-3.18,2.84,24.87,24.87,0,0,0-5.4,8.86,25.12,25.12,0,0,0-1.07,4.14c-.39,2.4-.32,3.93-.42,3.93a4,4,0,0,1-.1-1.07,8.8,8.8,0,0,1,0-1.25,15.85,15.85,0,0,1,.15-1.67,22.6,22.6,0,0,1,1-4.23,25.67,25.67,0,0,1,2.25-4.83A24.9,24.9,0,0,1,258,42.92a21.78,21.78,0,0,1,3.32-2.81,14.42,14.42,0,0,1,1.41-.89,8.22,8.22,0,0,1,1.11-.59A5,5,0,0,1,264.78,38.22Z" style="fill:#263238"></path><path d="M246.39,53.55a11,11,0,0,1-2.08-4.95,11.25,11.25,0,0,1,0-5.37c.16,0-.05,2.41.55,5.27A51.76,51.76,0,0,0,246.39,53.55Z" style="fill:#263238"></path><path d="M252,37.92s-.24-.12-.67-.24a2.52,2.52,0,0,0-1.81.32,14.07,14.07,0,0,0-4.28,4.73c-.25.37-.51.74-.76,1.08l-.2.27-.21-.27c-1.33-1.75-3.09-2.87-4.48-2.84a3.09,3.09,0,0,0-1.55.37c-.34.18-.52.31-.54.27s.12-.19.45-.43a2.94,2.94,0,0,1,1.64-.55c1.54-.13,3.49,1,4.89,2.86h-.41c.24-.33.49-.69.74-1.06,1.36-2.15,2.95-4,4.55-4.77a2.58,2.58,0,0,1,2-.18A1.25,1.25,0,0,1,252,37.92Z" style="fill:#263238"></path><g style="opacity:0.30000000000000004"><path d="M254.51,56.26c-4-5.35-10.75-8.94-17.4-8.14a31,31,0,0,1,14.69,13.1,51.66,51.66,0,0,1,5.61,19.67l1,14.15a95.59,95.59,0,0,0,1.94-19.88C260.2,68.46,258.55,61.61,254.51,56.26Z"></path></g><g style="opacity:0.30000000000000004"><path d="M241.24,40.87a4.05,4.05,0,0,1,2.68.91,6,6,0,0,1,1.46-1.72,3.74,3.74,0,0,1,2.09-.81,14.4,14.4,0,0,0-3.26,4.33,10.68,10.68,0,0,0-3-2.71"></path></g><path d="M285.6,147.24a2.4,2.4,0,0,1-.2.33l-.62.94c-.56.81-1.33,2.05-2.47,3.53-2.18,3.05-5.62,7.25-10,12.3s-9.76,10.95-15.22,17.9a108.24,108.24,0,0,0-7.81,11.42l-1.76,3.17-1.58,3.33c-.55,1.11-.93,2.31-1.4,3.47a26,26,0,0,0-1.15,3.6,58.76,58.76,0,0,0-1.95,14.67l-.06,1.79,0,1.78c0,1.18,0,2.35.06,3.5.14,2.31.2,4.58.41,6.78.7,8.81,1.78,16.71,2.5,23.36a131.21,131.21,0,0,1,1,15.83c0,.93,0,1.77-.06,2.49s-.14,1.31-.19,1.81-.1.84-.13,1.12a1.74,1.74,0,0,1-.06.37,2.72,2.72,0,0,1,0-.38c0-.28,0-.65.08-1.12s.08-1.1.13-1.81,0-1.55,0-2.49a144.28,144.28,0,0,0-1.2-15.77c-.77-6.65-1.89-14.54-2.62-23.38-.22-2.2-.28-4.47-.43-6.79,0-1.16,0-2.33-.07-3.51l0-1.79.06-1.8a59.1,59.1,0,0,1,2-14.8,27.56,27.56,0,0,1,1.16-3.64c.48-1.17.86-2.38,1.41-3.5s1.07-2.24,1.6-3.35l1.78-3.2a108.12,108.12,0,0,1,7.87-11.46c5.5-7,10.91-12.82,15.32-17.84s7.9-9.18,10.13-12.18c1.16-1.47,2-2.68,2.54-3.47l.67-.91A2.44,2.44,0,0,1,285.6,147.24Z" style="fill:#455a64"></path><path d="M266.87,224.93a2.4,2.4,0,0,1-.48.44L265,226.55a27.06,27.06,0,0,0-2.19,1.95l-1.33,1.25-1.41,1.5a65.4,65.4,0,0,0-6.26,7.92,82.78,82.78,0,0,0-6.07,10.77,80.51,80.51,0,0,0-4.33,11.59c-.46,1.84-1,3.58-1.25,5.25-.16.83-.32,1.63-.47,2.41s-.2,1.52-.29,2.24c-.22,1.42-.28,2.72-.35,3.86,0,.57-.07,1.1-.1,1.6s0,.93,0,1.34v1.85a2.69,2.69,0,0,1,0,.65,3,3,0,0,1-.07-.64c0-.48-.06-1.1-.11-1.86,0-.41,0-.86-.05-1.35s0-1,.05-1.6a34.16,34.16,0,0,1,.28-3.9c.08-.72.16-1.47.25-2.26s.29-1.58.44-2.42c.26-1.69.77-3.44,1.22-5.3a78.9,78.9,0,0,1,4.31-11.68,80.09,80.09,0,0,1,6.15-10.82,62.54,62.54,0,0,1,6.4-7.9l1.43-1.49,1.37-1.23a24.76,24.76,0,0,1,2.27-1.89l1.5-1.1A3.84,3.84,0,0,1,266.87,224.93Z" style="fill:#455a64"></path><path d="M262.52,317.73l16-39.16-34.51.24v-.05l-42.38-.09,16.21,39.08s-34.28,31.79-31.79,66.69,31.79,91,31.79,91h19.29v.1l26.18-.13s29-56.23,31.32-91.15S262.52,317.73,262.52,317.73Z" style="fill:#ebebeb"></path><path d="M262.52,317.73l.61.55c.4.38,1,.94,1.74,1.7,1.5,1.53,3.7,3.83,6.37,7a126,126,0,0,1,9.13,12.13,99.14,99.14,0,0,1,9.59,18,63.68,63.68,0,0,1,4.94,24.6c-.35,9.17-2.36,18.9-5.22,29a315,315,0,0,1-11,31.43c-2.22,5.41-4.55,10.92-7.09,16.48s-5.17,11.22-8.05,16.9l-.07.13h-.14l-26.18.14h-.25v-.35l.25.25H217.68l-.07-.13q-6.36-12.46-12.15-25.81c-3.86-8.88-7.52-18-10.75-27.45a189.35,189.35,0,0,1-7.84-29.38,71.2,71.2,0,0,1-1.13-14.82,62.8,62.8,0,0,1,2.53-14.38,94.64,94.64,0,0,1,12.26-25.42,128.48,128.48,0,0,1,17.15-20.71l-.06.26-16.18-39.09-.13-.29h.33l42.37.12h.18v.23l-.18-.18,34.51-.2h.21l-.08.19-11.9,28.92c-1.37,3.32-2.42,5.86-3.14,7.59-.35.85-.62,1.5-.81,1.94s-.28.66-.28.66.07-.22.24-.65l.78-1.94c.7-1.72,1.72-4.27,3.07-7.59,2.71-6.68,6.69-16.49,11.79-29l.12.19L244,279h-.19v-.23l.18.18-42.38-.06.2-.29,16.23,39.07.06.15-.12.12a128.68,128.68,0,0,0-17.06,20.64,93.86,93.86,0,0,0-12.18,25.28,62.49,62.49,0,0,0-2.51,14.26,71.09,71.09,0,0,0,1.13,14.72,189.1,189.1,0,0,0,7.82,29.29c3.23,9.41,6.88,18.55,10.73,27.42s7.9,17.48,12.13,25.77l-.22-.14h19.54v.35l-.25-.25,26.18-.12-.22.13c2.87-5.66,5.54-11.31,8.06-16.87S276,447.36,278.24,442a316.32,316.32,0,0,0,11.05-31.37c2.87-10.07,4.89-19.77,5.25-28.89a63.48,63.48,0,0,0-4.85-24.48,100.72,100.72,0,0,0-9.51-18,129.94,129.94,0,0,0-9.06-12.15c-2.64-3.17-4.82-5.48-6.31-7Z" style="fill:#263238"></path><path d="M234.83,310.38a16.7,16.7,0,0,1-8.3-3.05c-2.5-1.62-4.79-3.56-7.34-5.11a28.87,28.87,0,0,0-21-3.47,1.58,1.58,0,0,0-.92.43,1.67,1.67,0,0,0-.27,1.12q.06,13.27.1,26.55a4.34,4.34,0,0,0,.58,2.62c.78,1,2.28,1.17,3.59,1.18a59.51,59.51,0,0,0,12.58-.9,24.55,24.55,0,0,0,11.32-5.29c1.48-1.3,2.75-2.82,4.27-4.07a8.2,8.2,0,0,1,5.34-2.16Z" style="fill:#FF81AE"></path><path d="M282.28,332.12c1.06-11,2.12-22,1.38-33-6.93-2-14.46-.43-21.15,2.3s-12.92,6.55-19.65,9.19l-2,7.56a10.61,10.61,0,0,1,6.38,1.69,38.1,38.1,0,0,1,5.27,4.14,50.92,50.92,0,0,0,12.75,8.49,24.62,24.62,0,0,0,15,1.81,2.55,2.55,0,0,0,1.64-.87A2.89,2.89,0,0,0,282.28,332.12Z" style="fill:#FF81AE"></path><path d="M234.83,310.38s0,.16,0,.49,0,.86,0,1.5c0,1.36,0,3.32,0,5.86v.11h-.11a7.09,7.09,0,0,0-3.9,1.19,20.43,20.43,0,0,0-3.75,3.26,22.47,22.47,0,0,1-4.42,3.72,24.61,24.61,0,0,1-5.87,2.67,47.5,47.5,0,0,1-14.43,1.69,9.51,9.51,0,0,1-4-.48,2.57,2.57,0,0,1-1.36-1.61,6.91,6.91,0,0,1-.21-2.06c0-2.71,0-5.48,0-8.29,0-4.14,0-8.19,0-12.1,0-1.95,0-3.87,0-5.75a2.37,2.37,0,0,1,.28-1.48,2.16,2.16,0,0,1,1.36-.6,26.19,26.19,0,0,1,2.71-.42,29.06,29.06,0,0,1,18.37,4.19c2.31,1.46,4.21,3,6,4.25a25.55,25.55,0,0,0,4.77,2.74,14.62,14.62,0,0,0,3.33,1c.78.11,1.23.13,1.21.15h-.32a7.69,7.69,0,0,1-.9-.07,13.57,13.57,0,0,1-3.38-.91,24.92,24.92,0,0,1-4.85-2.7c-1.79-1.21-3.7-2.75-6-4.18a28.77,28.77,0,0,0-18.16-4.06c-.89.1-1.78.24-2.67.43a1.83,1.83,0,0,0-1.13.45,2.14,2.14,0,0,0-.19,1.23c0,1.88,0,3.8,0,5.75q0,5.87.05,12.1c0,2.81,0,5.58,0,8.29a6.85,6.85,0,0,0,.18,1.94,2.18,2.18,0,0,0,1.15,1.35,9.26,9.26,0,0,0,3.77.45,47.57,47.57,0,0,0,14.31-1.64,24.33,24.33,0,0,0,5.8-2.59,22.83,22.83,0,0,0,4.39-3.65,19.66,19.66,0,0,1,3.83-3.27,7.22,7.22,0,0,1,4-1.18l-.11.11c0-2.51.06-4.46.07-5.8,0-.65,0-1.16,0-1.52S234.83,310.38,234.83,310.38Z" style="fill:#263238"></path><path d="M282.28,332.12a2.86,2.86,0,0,1-.13.91,1.51,1.51,0,0,1-.69.87,4.48,4.48,0,0,1-1.46.49,22.2,22.2,0,0,1-9.82-.18,36.16,36.16,0,0,1-13.42-6.62c-1.15-.85-2.31-1.78-3.47-2.75s-2.31-2-3.54-3a18.14,18.14,0,0,0-4-2.59,9.55,9.55,0,0,0-4.81-.91l-.29,0,.07-.28c.62-2.41,1.29-5,2-7.56l0-.11.1,0c3.18-1.24,6.38-2.82,9.64-4.46,5.33-2.7,10.57-5.33,15.94-6.73a28.52,28.52,0,0,1,15.36-.28l.12,0v.13a157.65,157.65,0,0,1-.63,24c-.26,2.89-.49,5.15-.66,6.7-.08.75-.15,1.34-.2,1.76,0,.19,0,.33-.06.45s0,.15,0,.15,0-.05,0-.15,0-.27,0-.46c0-.42.09-1,.15-1.76.13-1.57.32-3.84.56-6.71a167.94,167.94,0,0,0,.47-23.94l.13.16a28.17,28.17,0,0,0-15.15.32c-5.3,1.4-10.51,4-15.85,6.71-3.26,1.64-6.47,3.23-9.67,4.48l.13-.14-2,7.55-.22-.26a10,10,0,0,1,5,.95,19.2,19.2,0,0,1,4.11,2.66c1.24,1,2.38,2.06,3.53,3s2.3,1.89,3.45,2.75A36.13,36.13,0,0,0,270.24,334a22.67,22.67,0,0,0,9.73.31,4.3,4.3,0,0,0,1.43-.45,1.45,1.45,0,0,0,.68-.8C282.26,332.44,282.25,332.12,282.28,332.12Z" style="fill:#263238"></path><path d="M235.46,320.06s-2-.2-5,4.74-12.82,28.94-12.82,28.94l22,12.81,1.06-44.24Z" style="fill:#FF81AE"></path><path d="M242.63,321.94l6.67,30.66L266,340.15s-11.89-18-21.91-20.46Z" style="fill:#FF81AE"></path><path d="M235.46,320.06a1.55,1.55,0,0,1,.34.12l1,.41,4,1.64.05,0v.06c-.12,8-.47,24.57-.93,44.25v.36l-.32-.18-6.14-3.57-15.88-9.25-.16-.09.07-.17c4.33-10.43,8.15-19.34,11.14-25.52a22.92,22.92,0,0,1,4.35-6.73,5.84,5.84,0,0,1,1.77-1.21,2,2,0,0,1,.54-.15c.12,0,.19,0,.19,0l-.19,0a2.49,2.49,0,0,0-.51.17,5.93,5.93,0,0,0-1.7,1.25,23.47,23.47,0,0,0-4.23,6.74c-2.92,6.2-6.68,15.13-11,25.57l-.09-.26c4.93,2.86,10.3,6,15.9,9.23l6.14,3.58-.32.18c.48-19.68.92-36.23,1.18-44.24l.05.09-3.92-1.72-1-.45A2.09,2.09,0,0,1,235.46,320.06Z" style="fill:#263238"></path><path d="M242.63,321.94s0-.05.07-.15l.25-.44,1-1.7,0,0h.06c2.43.52,6.12,2.59,10,6.14A84.72,84.72,0,0,1,266.12,340l.11.16-.16.12L258.45,346l-9,6.74-.26.19-.07-.32c-1.89-8.85-3.54-16.52-4.71-22-.56-2.7-1-4.87-1.33-6.39-.14-.72-.26-1.29-.34-1.71a3,3,0,0,1-.09-.58,3.83,3.83,0,0,1,.16.59c.1.42.24,1,.41,1.72.35,1.52.84,3.69,1.45,6.39,1.21,5.47,2.9,13.1,4.86,21.92l-.33-.13,9-6.75c2.64-2,5.2-3.88,7.63-5.7l-.05.29A87.12,87.12,0,0,0,253.83,326c-3.82-3.57-7.42-5.66-9.81-6.23l.08,0c-.45.7-.81,1.24-1.07,1.64l-.29.43Z" style="fill:#263238"></path><path d="M233.65,316.06c0,.06-1.15,0-3-.09s-4.41-.09-7.24.07a70.22,70.22,0,0,0-7.19.78c-1.83.29-2.95.52-3,.46A3.1,3.1,0,0,1,214,317c.5-.15,1.24-.32,2.15-.5a50.78,50.78,0,0,1,7.22-.91,54.86,54.86,0,0,1,7.27.06c.93.07,1.68.15,2.2.23A2.62,2.62,0,0,1,233.65,316.06Z" style="fill:#263238"></path><path d="M233.51,313.21a23,23,0,0,1-2.72-.64,61.37,61.37,0,0,0-6.59-1.25c-2.6-.33-5-.45-6.7-.53a21.7,21.7,0,0,1-2.79-.17,2.6,2.6,0,0,1,.75-.09c.48,0,1.18,0,2,0a52.88,52.88,0,0,1,6.74.41,43,43,0,0,1,6.62,1.37c.83.25,1.49.47,1.95.64A3.18,3.18,0,0,1,233.51,313.21Z" style="fill:#263238"></path><path d="M269.36,313.48c0,.07-1.3-.28-3.39-.67a41.46,41.46,0,0,0-8.27-.66,37.38,37.38,0,0,0-8.21,1.13c-2.06.53-3.3,1-3.33.92a3.69,3.69,0,0,1,.85-.4,24.06,24.06,0,0,1,2.4-.81,33.13,33.13,0,0,1,8.28-1.28,36.3,36.3,0,0,1,8.34.8c1,.23,1.88.46,2.45.64A3.87,3.87,0,0,1,269.36,313.48Z" style="fill:#263238"></path><path d="M266.13,320.31a2.88,2.88,0,0,1-.8.06c-.52,0-1.27,0-2.19,0a48.82,48.82,0,0,1-7.17-.82,47.85,47.85,0,0,1-7-1.9c-.87-.32-1.57-.59-2-.8s-.73-.34-.71-.37,1.09.33,2.85.88a64.08,64.08,0,0,0,7,1.76,66.68,66.68,0,0,0,7.11.95A26,26,0,0,1,266.13,320.31Z" style="fill:#263238"></path><path d="M246.34,317.61a14.79,14.79,0,0,0-.44-4.53c-.29-1.28-.2-2.47-1.6-3.49a4.93,4.93,0,0,0-4.43-.33c-.78-1.25-2.65-1.17-4-.6a4.71,4.71,0,0,0-2.6,3.37,9.14,9.14,0,0,0,.25,4.37,10.8,10.8,0,0,0,3.17,5.51,5.72,5.72,0,0,0,5.4,1.14A6,6,0,0,0,246.34,317.61Z" style="fill:#FF81AE"></path><path d="M246.34,317.61a2.38,2.38,0,0,1,0,.47,6.73,6.73,0,0,1-.3,1.32,6,6,0,0,1-6.73,4,6.16,6.16,0,0,1-3.43-2,10.87,10.87,0,0,1-2.2-3.77,11.79,11.79,0,0,1-.77-4.62,5.28,5.28,0,0,1,2.59-4.41,5.14,5.14,0,0,1,2.44-.54,2.51,2.51,0,0,1,2.1,1.1l-.26-.07a4.58,4.58,0,0,1,2.87-.3A3.92,3.92,0,0,1,245,310a3.85,3.85,0,0,1,.9,2.11c.1.69.24,1.3.35,1.88a13.71,13.71,0,0,1,.23,2.7c0,.31,0,.55-.05.72a.68.68,0,0,1,0,.24s0-.34,0-1A15.89,15.89,0,0,0,246,314c-.12-.56-.29-1.19-.4-1.88a3.55,3.55,0,0,0-.86-1.94,3.62,3.62,0,0,0-2.14-1,4.23,4.23,0,0,0-2.62.29l-.16.09-.1-.16a2.1,2.1,0,0,0-1.79-.89,4.59,4.59,0,0,0-2.22.5,4.89,4.89,0,0,0-2.36,4.07,11.48,11.48,0,0,0,.74,4.45,10.52,10.52,0,0,0,2.09,3.64,5.79,5.79,0,0,0,3.21,1.88,5.65,5.65,0,0,0,3.24-.31,5.82,5.82,0,0,0,3.26-3.36A13.4,13.4,0,0,0,246.34,317.61Z" style="fill:#263238"></path><path d="M235.57,320.79c0-.05.56-.48,1.37-1.33a11.2,11.2,0,0,0,3.09-8.3c-.05-1.17-.23-1.88-.16-1.9a4.88,4.88,0,0,1,.46,1.88,10.19,10.19,0,0,1-3.18,8.54A4.61,4.61,0,0,1,235.57,320.79Z" style="fill:#263238"></path><path d="M246.16,314.2a5.24,5.24,0,0,1-.61,1.68,13.06,13.06,0,0,1-2.53,3.5,12.11,12.11,0,0,1-3.58,2.44,4.82,4.82,0,0,1-1.71.52,18.7,18.7,0,0,0,5-3.27A22.57,22.57,0,0,0,246.16,314.2Z" style="fill:#263238"></path><path d="M227.38,309.89a7.14,7.14,0,0,1-1.07-.56l-2.85-1.65a78.68,78.68,0,0,0-9.66-4.86,34.61,34.61,0,0,0-10.45-2.51,28.29,28.29,0,0,0-3.28,0,6.81,6.81,0,0,1-1.2,0,6,6,0,0,1,1.19-.2,20.87,20.87,0,0,1,3.3-.11,32.11,32.11,0,0,1,10.6,2.41,65.75,65.75,0,0,1,9.65,5c1.19.73,2.13,1.34,2.78,1.76A6.46,6.46,0,0,1,227.38,309.89Z" style="fill:#fff"></path><path d="M222.36,312.5a20.08,20.08,0,0,1-3.29-.33,20.81,20.81,0,0,1-3.27-.43,9.32,9.32,0,0,1,3.32,0A9.52,9.52,0,0,1,222.36,312.5Z" style="fill:#fff"></path><path d="M219.42,317.23c0,.12-.6.31-1.38.43s-1.43.13-1.45,0,.6-.31,1.38-.43S219.4,317.12,219.42,317.23Z" style="fill:#fff"></path><path d="M234.53,315a2,2,0,0,1-.29-1.06,5.75,5.75,0,0,1,.36-2.61,5.88,5.88,0,0,1,1.46-2.2c.51-.45.89-.63.92-.59a10.54,10.54,0,0,0-2,2.94A10.11,10.11,0,0,0,234.53,315Z" style="fill:#fff"></path><path d="M239.75,317.66a11,11,0,0,1,.58-1.8c.31-1,.4-1.82.53-1.81a2.91,2.91,0,0,1-.11,1.94A3,3,0,0,1,239.75,317.66Z" style="fill:#fff"></path><path d="M261.51,303.89a65.89,65.89,0,0,1-6.94,3.1,67.16,67.16,0,0,1-7.1,2.71,67.08,67.08,0,0,1,6.94-3.11A66.42,66.42,0,0,1,261.51,303.89Z" style="fill:#fff"></path><path d="M254.37,313.47a5.16,5.16,0,0,1-2,.61,5.24,5.24,0,0,1-2.12.18,5.33,5.33,0,0,1,2-.61A5.41,5.41,0,0,1,254.37,313.47Z" style="fill:#fff"></path><path d="M230.24,329.94a16.31,16.31,0,0,1,4.25-8.46c.1.08-1.2,1.77-2.37,4.11S230.36,330,230.24,329.94Z" style="fill:#fff"></path><path d="M247.31,332.92a16.89,16.89,0,0,1-.85-3.67,17.09,17.09,0,0,1-.44-3.74,32.57,32.57,0,0,1,1.29,7.41Z" style="fill:#fff"></path><g style="opacity:0.30000000000000004"><path d="M266.21,312.78a3.49,3.49,0,0,0-1.69-.64A32.32,32.32,0,0,0,246,314l.14.72a19.88,19.88,0,0,1,12.85.77,20.46,20.46,0,0,0,3.51,1.34,4.08,4.08,0,0,0,3.56-.73A2.31,2.31,0,0,0,266.21,312.78Z"></path></g><g style="opacity:0.30000000000000004"><path d="M235,319.9c0,1.54.39,3.72,1.5,4.78a2.55,2.55,0,0,0,2.09.84,2.19,2.19,0,0,0,1.28-.83,6.68,6.68,0,0,0,.76-1.36A6.56,6.56,0,0,1,235,319.9Z"></path></g><g style="opacity:0.30000000000000004"><path d="M246.28,320.87c-.08-.29-.33-.59-.63-.54a.89.89,0,0,0-.51.39,7,7,0,0,1-2.54,2l.13.14a3.19,3.19,0,0,0,2.48.06A1.83,1.83,0,0,0,246.28,320.87Z"></path></g><g style="opacity:0.30000000000000004"><path d="M240.11,311.65a9.77,9.77,0,0,1-1.32,5.64,19,19,0,0,1-3.22,3.5l.28.15a8.47,8.47,0,0,0,4.26-9.29Z"></path></g><g style="opacity:0.30000000000000004"><path d="M233,316.11a36.2,36.2,0,0,0-13.79.68.63.63,0,0,0-.43.25.44.44,0,0,0,.16.55,1.33,1.33,0,0,0,.59.19,29.7,29.7,0,0,0,14.05-1.44Z"></path></g><path d="M197.27,413.07a2.81,2.81,0,0,1-.24-.63c-.16-.47-.35-1.08-.6-1.84-.13-.41-.27-.85-.42-1.34s-.26-1-.41-1.61c-.28-1.16-.65-2.47-.9-3.95A93.66,93.66,0,0,1,193,380.33a77,77,0,0,1,1.67-12.83l.3-1.44c.13-.47.25-.93.38-1.38.25-.91.48-1.8.73-2.65s.58-1.64.85-2.41l.4-1.14c.16-.36.32-.71.47-1.06a31.26,31.26,0,0,1,1.77-3.65,22.65,22.65,0,0,1,1.59-2.62l1.14-1.57a3.17,3.17,0,0,1,.43-.52,5.1,5.1,0,0,1-.34.59l-1.06,1.61a25.3,25.3,0,0,0-1.5,2.65,34.45,34.45,0,0,0-1.69,3.65c-.14.35-.29.7-.45,1.06s-.25.75-.38,1.13c-.26.78-.53,1.58-.82,2.41s-.46,1.73-.7,2.63c-.12.45-.24.91-.37,1.38s-.19.95-.29,1.43a80.78,80.78,0,0,0-1.61,12.75,99.11,99.11,0,0,0,1.52,23.28c.23,1.48.57,2.79.83,3.95l.36,1.62c.14.49.26.93.38,1.34.2.77.37,1.39.5,1.87A5.7,5.7,0,0,1,197.27,413.07Z" style="fill:#fff"></path><path d="M217.46,299.76a73.4,73.4,0,0,1-4.21-7.74,72.2,72.2,0,0,1-3.74-8,76.84,76.84,0,0,1,4.2,7.74A75.87,75.87,0,0,1,217.46,299.76Z" style="fill:#fff"></path><path d="M293.57,370.51c-23.7,29.49-57.87,53-93.89,64.57l3.07,7.62s31.36-9.47,50.86-22.54,40.81-36.58,40.81-36.58A50.21,50.21,0,0,0,293.57,370.51Z" style="fill:#fff"></path><path d="M290.44,170a6.52,6.52,0,0,1-.67.55l-2,1.5c-.87.64-1.92,1.43-3.12,2.39s-2.58,2-4,3.25-3.1,2.58-4.78,4.1-3.46,3.15-5.32,4.89c-3.65,3.54-7.54,7.56-11.4,12s-7.26,8.87-10.25,13c-1.45,2.09-2.86,4.05-4.08,6s-2.37,3.67-3.38,5.31-1.87,3.15-2.65,4.47-1.41,2.47-1.92,3.42l-1.2,2.17a6.53,6.53,0,0,1-.45.74,4.27,4.27,0,0,1,.35-.79l1.12-2.22c.48-1,1.09-2.13,1.85-3.46s1.57-2.88,2.59-4.52,2.07-3.46,3.33-5.35,2.6-3.91,4.05-6c3-4.15,6.4-8.6,10.25-13.06s7.78-8.46,11.46-12c1.87-1.73,3.63-3.4,5.36-4.87s3.33-2.84,4.83-4,2.89-2.27,4.11-3.2,2.28-1.71,3.17-2.33l2-1.42A4.43,4.43,0,0,1,290.44,170Z" style="fill:#263238"></path><path d="M228.32,214.64a5.9,5.9,0,0,1-.66-1c-.39-.68-1-1.65-1.69-2.84a101.48,101.48,0,0,0-6.16-9,103.24,103.24,0,0,0-7.1-8.26c-1-1-1.76-1.81-2.31-2.37a5.41,5.41,0,0,1-.82-.9,5.75,5.75,0,0,1,1,.76c.59.51,1.43,1.27,2.43,2.25a78.86,78.86,0,0,1,13.31,17.32c.69,1.22,1.22,2.22,1.56,2.93A5.6,5.6,0,0,1,228.32,214.64Z" style="fill:#263238"></path><path d="M273,244a9.56,9.56,0,0,1-1.32.91c-.87.54-2.12,1.35-3.64,2.37A115.6,115.6,0,0,0,246.37,266c-1.23,1.36-2.2,2.48-2.87,3.27a9.68,9.68,0,0,1-1.08,1.18,8.81,8.81,0,0,1,.93-1.31c.61-.82,1.55-2,2.75-3.38a98.28,98.28,0,0,1,10.16-10.2A100.53,100.53,0,0,1,267.8,247c1.56-1,2.84-1.75,3.75-2.24A10.1,10.1,0,0,1,273,244Z" style="fill:#263238"></path><path d="M242.18,277.66s-.43-.8-1.23-2.22a38.13,38.13,0,0,0-4-5.63,53.15,53.15,0,0,0-7.37-7.06,107.45,107.45,0,0,0-10.31-7.14c-3.79-2.35-7.45-4.51-10.7-6.62a86.34,86.34,0,0,1-8.34-6,48.89,48.89,0,0,1-5-4.76c-.56-.6-1-1.11-1.23-1.43a2.87,2.87,0,0,1-.39-.53,4.24,4.24,0,0,1,.47.46c.31.3.71.79,1.3,1.36a55.88,55.88,0,0,0,5.13,4.61,93,93,0,0,0,8.37,5.91c3.25,2.07,6.92,4.22,10.72,6.57a103.28,103.28,0,0,1,10.33,7.21,51,51,0,0,1,7.35,7.21,33.45,33.45,0,0,1,3.86,5.77c.41.71.63,1.31.82,1.7A2.92,2.92,0,0,1,242.18,277.66Z" style="fill:#263238"></path></g><g id="freepik--Card--inject-185"><polygon points="372.43 405.19 383.59 475.53 354.56 475.53 372.43 405.19" style="fill:#FF81AE"></polygon><g style="opacity:0.30000000000000004"><polygon points="372.43 405.19 383.59 475.53 354.56 475.53 372.43 405.19"></polygon></g><polygon points="264.53 475.35 281.17 405.19 372.43 405.19 357.01 475.53 264.53 475.35" style="fill:#FF81AE"></polygon><g style="opacity:0.2"><path d="M343.53,429.26a18.31,18.31,0,0,0-2.9-10,13.13,13.13,0,0,0-7.12-5.81,11.22,11.22,0,0,0-9.59,1.91,15.55,15.55,0,0,0-4.37,5,12.32,12.32,0,0,0-3.07-4.64,10.19,10.19,0,0,0-9.13-2.41,16.41,16.41,0,0,0-8.33,5.4,21.5,21.5,0,0,0-5,9.77,24.7,24.7,0,0,0,.87,13.67,25.76,25.76,0,0,0,8.06,10.35c5.53,4.41,12.83,9.93,12.83,9.93s7.29-5.68,13.73-9.77a32.59,32.59,0,0,0,10.24-9.86A26.85,26.85,0,0,0,343.53,429.26Z" style="fill:#fff"></path></g><g style="opacity:0.2"><path d="M358.49,439.41a3.84,3.84,0,0,0,0-2.15,2.67,2.67,0,0,0-1.06-1.57,2.3,2.3,0,0,0-2-.2,3.25,3.25,0,0,0-1.16.73,2.53,2.53,0,0,0-.33-1.1,2.1,2.1,0,0,0-1.66-1,3.33,3.33,0,0,0-2,.57,4.39,4.39,0,0,0-1.57,1.63,5.17,5.17,0,0,0-.65,2.75,5.32,5.32,0,0,0,1,2.52c.83,1.21,1.94,2.73,1.94,2.73s1.78-.69,3.29-1.11a6.72,6.72,0,0,0,2.62-1.33A5.58,5.58,0,0,0,358.49,439.41Z" style="fill:#fff"></path></g><g style="opacity:0.2"><path d="M287.81,436a3.78,3.78,0,0,0-1.59-1.44,2.71,2.71,0,0,0-1.88-.26,2.35,2.35,0,0,0-1.48,1.37,3.2,3.2,0,0,0-.23,1.35,2.59,2.59,0,0,0-1-.48,2.08,2.08,0,0,0-1.87.55,3.35,3.35,0,0,0-.88,1.85,4.36,4.36,0,0,0,.17,2.26,5.12,5.12,0,0,0,1.62,2.32,5.45,5.45,0,0,0,2.54.95c1.44.18,3.32.37,3.32.37s.68-1.79,1.37-3.2a6.8,6.8,0,0,0,.74-2.84A5.53,5.53,0,0,0,287.81,436Z" style="fill:#fff"></path></g><path d="M295.8,449.57l.33-4.68c.05-3,.21-4.6.48-4.88a16.3,16.3,0,0,1,1.44-1.2,3.15,3.15,0,0,1,1.49-.79c.31,0,.5.07.58.18a1.3,1.3,0,0,1,.11.67,9.55,9.55,0,0,1-.82,3.62,42,42,0,0,0-.71,6.3c0,1.64.14,2.47.51,2.47.64,0,1.39-.56,2.25-1.73a24.4,24.4,0,0,0,2.67-5.19c0-.62.08-1.26.11-1.95s.08-1.18.11-1.5.06-.55.07-.69.39-.51,1.12-1.12a3,3,0,0,1,1.68-.91c.38,0,.57.54.55,1.6a12.22,12.22,0,0,1-.25,1.62,6.82,6.82,0,0,1-.53,1.75c-.25,2-.42,3.69-.53,5.17,2.67-3.41,4.09-5.2,4.27-5.39a.69.69,0,0,1,.47-.29c.26,0,.39.15.39.43a1.29,1.29,0,0,1-.17.54c-.88,1.29-2.6,3.56-5.16,6.79-.21,3.32-.36,5.57-.43,6.77q-.3,5.29-1.55,7.43t-4.38,2.06a4.18,4.18,0,0,1-2.52-.9,3.46,3.46,0,0,1-1.13-3,7.6,7.6,0,0,1,1.62-4.29,82.88,82.88,0,0,1,5.73-6.71l.32-4.54a20.44,20.44,0,0,1-2.76,4.69,3.78,3.78,0,0,1-2.94,1.55c-1.07,0-1.75-.31-2-.88A7.22,7.22,0,0,1,295.8,449.57Zm7.65,4.15q-4.65,5.05-4.7,8.15a5,5,0,0,0,.44,2.35,1.45,1.45,0,0,0,1.3.94,1.85,1.85,0,0,0,1.82-1.43,25,25,0,0,0,.87-5.91Z" style="fill:#f5f5f5"></path><path d="M322.39,444.64a10.89,10.89,0,0,0,2.24-.9l.95-.58.48-.29a.75.75,0,0,1,.32-.12c.22,0,.32.13.32.38s-.43.69-1.26,1.3a13.88,13.88,0,0,1-3.11,1.63,9.73,9.73,0,0,1-2.22,5.64,6.43,6.43,0,0,1-5.27,2.07,4.23,4.23,0,0,1-3.76-2.14,8.69,8.69,0,0,1-1.23-4.87,9.51,9.51,0,0,1,1.66-5.21,4.69,4.69,0,0,1,4.1-2.39,4.35,4.35,0,0,1,2.68-.78,3.68,3.68,0,0,1,2.82,1.77A7.26,7.26,0,0,1,322.39,444.64Zm-2.63,2.08-1.44.06a4.5,4.5,0,0,1-3.1-1.21A3.34,3.34,0,0,1,314,443a5.68,5.68,0,0,1,.48-2.37c-1.16.92-1.77,2.78-1.82,5.56a9.32,9.32,0,0,0,.74,3.84,2.64,2.64,0,0,0,2.48,1.86,3,3,0,0,0,2.7-1.47A8,8,0,0,0,319.76,446.72Zm-2.36-7a1.12,1.12,0,0,0-1,.59,2.6,2.6,0,0,0-.38,1.31,3.29,3.29,0,0,0,1,2.52,3.37,3.37,0,0,0,2.37,1h.48a12.73,12.73,0,0,0-.6-3.73Q318.68,439.77,317.4,439.74Z" style="fill:#f5f5f5"></path><path d="M324.34,450.11l.32-4.67c0-3,.21-4.61.48-4.88a14.43,14.43,0,0,1,1.44-1.21,3.15,3.15,0,0,1,1.49-.79c.31,0,.5.07.58.18a1.22,1.22,0,0,1,.11.67,9.55,9.55,0,0,1-.82,3.62,42.13,42.13,0,0,0-.71,6.3c0,1.64.21,2.47.71,2.48s1.35-.53,2.19-1.63a20.68,20.68,0,0,0,2.56-4.92,24.43,24.43,0,0,1,.66-4.51,11.29,11.29,0,0,1,1.12-1.19,2.47,2.47,0,0,1,1.48-.85c.38,0,.57.54.55,1.6a10.94,10.94,0,0,1-.25,1.63,6.86,6.86,0,0,1-.53,1.74c-.31.78-.49,3.18-.56,7.22,0,.75.06,1.13.22,1.13.45,0,1.09-.6,1.91-1.74a26.92,26.92,0,0,0,2.45-4.4c.82-1.79,1.31-2.69,1.49-2.69s.25.12.25.34a10.47,10.47,0,0,1-1.22,3.7q-3.28,7-5.44,6.91a3.54,3.54,0,0,1-2.35-.71,3.39,3.39,0,0,1-.25-1.8c0-1,.08-2.12.18-3.34a17.73,17.73,0,0,1-2.63,4.27,3.7,3.7,0,0,1-2.88,1.43,2.25,2.25,0,0,1-2.09-.91A6.25,6.25,0,0,1,324.34,450.11Z" style="fill:#f5f5f5"></path><path d="M305.46,422.29l.22,1.3a1,1,0,0,1-.34.76,1,1,0,0,1-.75.28.66.66,0,0,1-.61-.43,2,2,0,0,1-.16-.92,3.65,3.65,0,0,1,1.31-2.65,3.9,3.9,0,0,1,2.82-1.11h.16q.58-2.08,1.65-2c.21,0,.3.3.29.89l-.12,1.32.92.17a13.74,13.74,0,0,0,2.06.27,5.33,5.33,0,0,0,1.7-.24,5.11,5.11,0,0,1,1.16-.25c.49,0,.73.29.71.81a1.24,1.24,0,0,1-.83,1.16,5.22,5.22,0,0,1-2.31.33,12.14,12.14,0,0,1-3.64-.85,27.91,27.91,0,0,0-.46,2.86c-.06.64-.12,1.6-.2,2.87.74,0,1.76,0,3.07.05a.76.76,0,0,1,.58.29.87.87,0,0,1,.24.59.73.73,0,0,1-.2.49.53.53,0,0,1-.41.18l-3.34-.3c-.13,1.8-.23,3-.29,3.66a4.28,4.28,0,0,1-.57,1.78c-.32.54-.68.8-1.08.79a1.17,1.17,0,0,1-.74-.4,1,1,0,0,1-.39-.72,1.06,1.06,0,0,1,.11-.5,3.48,3.48,0,0,1,.22-.36,3,3,0,0,0,.18-.28,16.91,16.91,0,0,0,.7-3.93l-1,.11a.45.45,0,0,1-.34-.17.56.56,0,0,1-.12-.36,1.06,1.06,0,0,1,.09-.37.58.58,0,0,1,.33-.25l.35-.12a3.42,3.42,0,0,1,.84-.08c.05-.44.13-1.39.24-2.86a32.37,32.37,0,0,1,.38-3.44,3.35,3.35,0,0,0-.47-.05C306.14,420.54,305.5,421.11,305.46,422.29Z" style="fill:#f5f5f5"></path><path d="M322.54,428a7,7,0,0,0,1.49-.57l.63-.38.32-.18a.4.4,0,0,1,.21-.08c.15,0,.21.09.21.26s-.29.44-.85.84a9.5,9.5,0,0,1-2.07,1.05,6.4,6.4,0,0,1-1.51,3.7,4.27,4.27,0,0,1-3.5,1.32,2.81,2.81,0,0,1-2.47-1.45,5.85,5.85,0,0,1-.77-3.23,6.32,6.32,0,0,1,1.15-3.43,3.11,3.11,0,0,1,2.73-1.54,2.85,2.85,0,0,1,1.77-.49,2.4,2.4,0,0,1,1.85,1.2A4.82,4.82,0,0,1,322.54,428Zm-1.76,1.35-.95,0a2.94,2.94,0,0,1-2-.83,2.2,2.2,0,0,1-.79-1.69,3.91,3.91,0,0,1,.34-1.57c-.78.6-1.19,1.82-1.25,3.66a6.12,6.12,0,0,0,.45,2.54,1.74,1.74,0,0,0,1.62,1.26,2,2,0,0,0,1.8-.95A5.16,5.16,0,0,0,320.78,429.3Zm-1.49-4.64a.74.74,0,0,0-.68.38,1.73,1.73,0,0,0-.26.86,2.24,2.24,0,0,0,2.17,2.37h.32a8.66,8.66,0,0,0-.36-2.47C320.25,425.06,319.85,424.68,319.29,424.66Z" style="fill:#f5f5f5"></path><path d="M326.22,426.86l1.46-.12a.48.48,0,0,1,.36.26.94.94,0,0,1,.14.53c0,.19-.08.81-.23,1.88a24.57,24.57,0,0,0-.25,2.51c0,.62,0,.93.13.93.3,0,.73-.38,1.28-1.13a16.68,16.68,0,0,0,1.66-2.88c.56-1.18.89-1.77,1-1.76s.17.08.16.22a6.63,6.63,0,0,1-.84,2.43c-1.49,3-2.7,4.55-3.66,4.52a2.4,2.4,0,0,1-1.54-.49,7.06,7.06,0,0,1-.11-2.41,14.19,14.19,0,0,1,.57-3.77,2.29,2.29,0,0,1-2.11-1.09,2.31,2.31,0,0,1-.28-1.2,2.37,2.37,0,0,1,.3-1.15.83.83,0,0,1,.77-.47,1.15,1.15,0,0,1,.88.57,1.91,1.91,0,0,1,.37,1.21,2.64,2.64,0,0,1-.41,1.31A.57.57,0,0,0,326.22,426.86Z" style="fill:#f5f5f5"></path><path d="M383.59,475.53s0-.11-.07-.32-.1-.56-.17-1c-.15-.87-.37-2.13-.65-3.76l-2.36-14.18c-2-12.19-4.82-29.43-8.14-49.73h.46c-3.09,13.89-6.53,29.31-10.15,45.52l-5.25,23.49-.05.2H357L291,475.57l-19.41-.12-5.21-.05-1.35,0-.46,0,.46,0,1.35,0,5.21,0,19.41,0,66.05,0-.25.2L362,452c3.63-16.2,7.09-31.61,10.2-45.5l.27-1.22.2,1.23c3.25,20.32,6,37.57,7.95,49.76.95,6.08,1.71,10.89,2.23,14.21.25,1.63.44,2.89.57,3.77.06.41.11.74.14,1A1.38,1.38,0,0,1,383.59,475.53Z" style="fill:#263238"></path></g><g id="freepik--Box--inject-185"><path d="M202.83,398.4c-5.88-11.84-20.42-19.72-32.9-15.34-7.37,2.58-13,8.89-16.18,16a53.34,53.34,0,0,0-2.87,7.57,53.5,53.5,0,0,0-6-5.41c-3.47-2.8-7.19-6.86-11.43-8.19-3-.95-6-.56-10.5.74-12.72,3.65-22.21,16.13-22,29.36s8.16,25.37,18.38,33.76,26.3,18.4,49.3,18.1c18.91-3.37,28.14-26,33.37-38.2S208.71,410.25,202.83,398.4Z" style="fill:#FF81AE"></path><g style="opacity:0.30000000000000004"><path d="M202.83,398.4c-5.88-11.84-20.42-19.72-32.9-15.34-7.37,2.58-13,8.89-16.18,16a53.34,53.34,0,0,0-2.87,7.57,53.5,53.5,0,0,0-6-5.41c-3.42-2.76-5.79-7.21-10-8.38-3.28-.91-6.91-.28-11.3.75-12.88,3-22.82,16.31-22.6,29.54s8.16,25.37,18.38,33.76,26.3,18.4,49.3,18.1c18.28-3.14,28.14-26,33.37-38.2S208.71,410.25,202.83,398.4Z"></path></g><path d="M211,396.05c-5.85-11.75-20.35-19.53-32.83-15.16-7.38,2.59-13,8.87-16.21,16a54.78,54.78,0,0,0-2.89,7.52,51.6,51.6,0,0,0-6-5.34c-6.06-4.86-14-7.83-21.7-6.73-13.09,1.86-22.41,15.45-22.24,28.58s8.09,25.17,18.29,33.47,26.22,18.21,49.21,17.85c13.56-6.78,28.18-25.93,33.44-38S216.86,407.8,211,396.05Z" style="fill:#FF81AE"></path><path d="M124.09,460.85l10.55-1.15,66.88-74.63s7.18,4.95,9.49,11l-63.78,70.49L138.66,469C138.47,469.19,127.77,464.07,124.09,460.85Z" style="fill:#fff"></path><path d="M213.41,424.17s.15-.76.4-2.12a41,41,0,0,0,.6-5.82,54.56,54.56,0,0,0-.35-8.67,46.11,46.11,0,0,0-.89-5,29.77,29.77,0,0,0-1.66-5.22,28.54,28.54,0,0,0-6-8.63,32.78,32.78,0,0,0-6.86-5.26,31.66,31.66,0,0,0-5.3-2.44c-1.31-.47-2.05-.67-2-.72a2.93,2.93,0,0,1,.55.1c.36.1.89.2,1.55.43a27.92,27.92,0,0,1,5.43,2.31,32,32,0,0,1,7,5.24,28.64,28.64,0,0,1,6.16,8.76,30.45,30.45,0,0,1,1.68,5.31,45,45,0,0,1,.87,5.1,52.07,52.07,0,0,1,.24,8.74,35.88,35.88,0,0,1-.78,5.85c-.13.68-.31,1.2-.4,1.55A2.45,2.45,0,0,1,213.41,424.17Z" style="fill:#263238"></path><path d="M118.7,437.59a3.89,3.89,0,0,1-.77-.69,8.79,8.79,0,0,1-.82-.91,14.09,14.09,0,0,1-1-1.28,20.45,20.45,0,0,1-2-3.69,21.47,21.47,0,0,1-1.54-10.1,20,20,0,0,1,.82-4.12,13.08,13.08,0,0,1,.55-1.52,8.36,8.36,0,0,1,.51-1.1,3.85,3.85,0,0,1,.53-.89c.1,0-.61,1.34-1.24,3.61a21.88,21.88,0,0,0-.69,4.06,22.17,22.17,0,0,0,1.51,9.88,21.89,21.89,0,0,0,1.87,3.67C117.71,436.48,118.78,437.51,118.7,437.59Z" style="fill:#fff"></path><path d="M118,406c.1.11-.66.91-1.25,2.11s-.77,2.27-.92,2.26a3.42,3.42,0,0,1,.46-2.5C116.92,406.55,117.91,405.87,118,406Z" style="fill:#fff"></path><path d="M208.74,421.93a1.64,1.64,0,0,1-.06.51l-.3,1.45c-.13.64-.3,1.4-.55,2.29s-.49,1.89-.86,3a70.88,70.88,0,0,1-2.85,7.58,79.9,79.9,0,0,1-4.63,8.77,77.31,77.31,0,0,1-5.78,8.06,71.55,71.55,0,0,1-5.5,5.94c-.81.82-1.61,1.49-2.29,2.1s-1.29,1.12-1.8,1.51L183,464a2.64,2.64,0,0,1-.42.29s.11-.14.36-.37l1.1-1c.49-.42,1.08-.94,1.73-1.57s1.44-1.32,2.23-2.15a78.72,78.72,0,0,0,5.39-6,86.38,86.38,0,0,0,5.71-8,84.8,84.8,0,0,0,4.63-8.7,76.38,76.38,0,0,0,2.94-7.49c.4-1.08.66-2.08.93-2.95s.48-1.63.63-2.25.29-1.05.39-1.43A2.53,2.53,0,0,1,208.74,421.93Z" style="fill:#fff"></path><path d="M206.54,390a1.1,1.1,0,0,1-.17.22c-.13.17-.31.37-.52.63l-2.07,2.39L196.13,402l-25.41,28.6c-12.4,13.91-23.37,26.15-29.9,33.36l0,0h0c-2.89.63-5.2.91-6.77,1.19l-1.8.31a2.86,2.86,0,0,1-.62.1,4.32,4.32,0,0,1,.61-.17c.4-.11,1-.24,1.78-.39,1.56-.33,3.88-.66,6.73-1.32l-.07.05c6.42-7.31,17.32-19.6,29.72-33.51l25.52-28.51,7.78-8.6,2.14-2.32.56-.59C206.46,390.1,206.53,390,206.54,390Z" style="fill:#FF81AE"></path><path d="M151.58,397.91l-.34-.19-1-.62-1.6-1c-.62-.42-1.43-.74-2.28-1.19-.44-.22-.89-.46-1.38-.68l-1.59-.58c-.56-.18-1.12-.44-1.74-.59l-1.94-.45a23.07,23.07,0,0,0-9.26,0,24.28,24.28,0,0,0-10.06,4.91,27.86,27.86,0,0,0-8,10.08,30.57,30.57,0,0,0-3,13.86,32.18,32.18,0,0,0,1,7.5,34,34,0,0,0,2.68,7.31,71.77,71.77,0,0,0,9,12.54,70.61,70.61,0,0,0,10.65,9.64l2.77,2c.94.61,1.89,1.17,2.81,1.74l1.38.85,1.41.74,2.76,1.45a74.29,74.29,0,0,0,10.58,4.07l2.44.71c.8.23,1.59.35,2.36.53a43.45,43.45,0,0,0,4.33.82c1.37.18,2.64.42,3.82.51l3.22.23a23.76,23.76,0,0,0,2.58.08h1.9l1.16,0,.4,0a2,2,0,0,1-.4,0l-1.16,0-1.9,0a23.11,23.11,0,0,1-2.59,0l-3.24-.19c-1.18-.06-2.45-.3-3.83-.46a44,44,0,0,1-4.37-.78c-.76-.18-1.56-.3-2.36-.52l-2.46-.7a73.54,73.54,0,0,1-10.67-4l-2.78-1.45-1.42-.74-1.39-.85c-.93-.57-1.89-1.13-2.84-1.74l-2.79-2a71.07,71.07,0,0,1-10.75-9.69,72.34,72.34,0,0,1-9-12.64,34.38,34.38,0,0,1-2.73-7.42,32.65,32.65,0,0,1-1-7.62A30.8,30.8,0,0,1,112,407.4a28.15,28.15,0,0,1,8.12-10.21,24.39,24.39,0,0,1,10.25-4.93,23.06,23.06,0,0,1,9.39.05l2,.47c.63.16,1.19.42,1.75.62l1.6.6c.49.23.94.48,1.38.7a24.93,24.93,0,0,1,2.27,1.25l1.58,1.06,1,.66A2.37,2.37,0,0,1,151.58,397.91Z" style="fill:#263238"></path><path d="M131.37,392.31l-.36.06-1.07.14c-.94.08-2.31.32-4.07.66a33.29,33.29,0,0,0-13.6,6.36,30,30,0,0,0-3.62,3.46,27.86,27.86,0,0,0-3.22,4.35,29.89,29.89,0,0,0-4,11.19,33.59,33.59,0,0,0,.86,13.11,37.76,37.76,0,0,0,2.35,6.58,41.77,41.77,0,0,0,3.77,6.13A79.9,79.9,0,0,0,117.87,455a82.79,82.79,0,0,0,10.48,8.14,77,77,0,0,0,20.45,9.17,77.83,77.83,0,0,0,14.93,2.62c1.79.14,3.18.12,4.13.18l1.07.05.37,0a1.53,1.53,0,0,1-.37,0h-1.07c-1,0-2.35,0-4.14-.09a74.13,74.13,0,0,1-15-2.46,76.52,76.52,0,0,1-20.61-9.13,81.23,81.23,0,0,1-10.56-8.17A78.36,78.36,0,0,1,108,444.66a42.57,42.57,0,0,1-3.82-6.22,38.21,38.21,0,0,1-2.37-6.67,34,34,0,0,1-.85-13.31,30.32,30.32,0,0,1,4.09-11.35,30.81,30.81,0,0,1,7-7.86A32.72,32.72,0,0,1,125.83,393a38.59,38.59,0,0,1,4.1-.57l1.07-.08A1.47,1.47,0,0,1,131.37,392.31Z" style="fill:#263238"></path></g><g id="freepik--Table--inject-185"><path d="M415.57,475.53c0,.15-77,.26-172,.26s-172-.11-172-.26,77-.26,172-.26S415.57,475.39,415.57,475.53Z" style="fill:#263238"></path></g></svg>